<?xml version="1.0" encoding="utf-8"?>
<!-- Generator: Adobe Illustrator 25.4.1, SVG Export Plug-In . SVG Version: 6.00 Build 0)  -->
<svg version="1.1" id="Layer_1" xmlns="http://www.w3.org/2000/svg" xmlns:xlink="http://www.w3.org/1999/xlink" x="0px" y="0px"
	 viewBox="0 0 500 500" style="enable-background:new 0 0 500 500;" xml:space="preserve">
<g>
	<g>
		<path d="M463.9,93.5c-9.9-32.2-27-60.4-63-63.9c-2.4-0.2-7.4-0.5-9.8,0c-8.5,1.7-16.9,5.1-24.2,9.6
			c-18.7,11.7-29.9,29.4-36.7,50.2c-1.5,4.8-3,9.7-4.6,14.7c-25,0-49.2,1.1-73.2-0.3c-22.7-1.3-40,7-55.6,22.7
			c-46.3,46.9-93,93.4-139.9,139.7c-11.7,11.6-22.5,23.3-26.5,39.7v17.6c3.6,15.5,13.5,26.8,24.5,37.6
			c28.4,28.2,56.6,56.6,84.7,85.1c10.8,11,22.2,20.8,37.8,24.3h17.6c8.8-4.6,19.3-7.4,26-14.1C273.9,404,326,350.9,378.4,298.1
			c11.1-11.2,16.9-24.3,17-40.1c0.1-8.7,0.7-17.4,1.1-26c35.1-4.3,53.6-26.2,64.8-56c3.7-9.9,6.6-20.3,8.1-30.8
			c1.1-7.3,0.9-22.1,0-29.4C468.5,108.2,466.2,100.8,463.9,93.5z M327.7,159.7c9.6-3.8,18.6,5.5,14.2,15c-1,2.1-2.6,3.7-4.7,4.7
			c-9.6,4.4-18.9-4.6-15-14.2C323.2,162.7,325.2,160.7,327.7,159.7z M377.2,260c-0.3,8-4.6,17.2-9.9,23.5
			c-12.4,14.7-26.3,28.1-39.9,41.8c-36.6,36.8-73.2,73.6-110.3,109.9c-7,6.8-15.7,12.7-24.8,16.2c-9.8,3.8-20.4,0.6-28-7
			C128,408.3,91.6,372.1,55.8,335.5c-12-12.3-10.5-31.9,2.4-45c46.7-47.5,93.7-94.7,140.5-142c5.1-5.1,9.5-11.2,15.4-15
			c7.8-4.9,16.5-10.8,25.1-11.3c26-1.7,52.2-1.1,78.3-1.3c1.9,0,3.7,0.5,6.1,0.8c0.3,9.8,2.6,18.4-8.2,25.6
			c-13.2,8.9-13.5,27.5-2.8,38.6c11.1,11.5,28.2,11.5,39.1,0c10.8-11.5,10.7-29.7-2.8-38.6c-11.8-7.8-8-16.4-6.7-25.8
			c22.9-2.9,37.5,12.5,36.6,33.9C377.6,190.1,378.6,225.1,377.2,260z M434.5,190.9c-7.8,11.1-17.8,18.8-31,22.2
			c-1.8,0.5-3.8,0.3-7.9,0.7c0-14.4,0-28.3,0-42.2c0-7.2,0-14.3-0.2-21.5c-0.6-27.6-17.3-44.7-44.8-46.1c-1.6-0.1-3.1-0.4-5.8-0.8
			c6.3-22.5,15.1-42.1,37.2-52.3c16.1-7.4,34.3-1.9,47.9,13.9C457.2,96.3,459.3,155.5,434.5,190.9z"/>
	</g>
	<g>
		<path d="M290.7,277.7c-1.1,2.2-1.8,4.7-3.4,6.4c-8.4,9.2-7,9.1-16.1,0.5c-4.2-4-8.4-7.9-12.5-11.8c-2.1,5.1-4.2,10.1-6,15.1
			c-0.2,0.7,0.7,2.1,1.4,2.8c3.6,3.5,7.3,6.9,10.9,10.3c2.9,2.8,2.9,3.8,0.3,6.7c-2,2.2-4.2,4.4-6.2,6.6c-2.1,2.4-4.2,2.5-6.5,0.2
			c-4.2-4-8.4-8-12.7-12.1c-20.4,14.5-39.9,10.3-59.3-3c-0.2,6-0.2,11.7-0.5,17.3c-1,20-2.2,39.9-3.2,59.9c-0.2,3.5-1.9,4.7-5.1,4.6
			c-5.9-5.6-11.8-11.2-17.8-16.8c0-1.3-0.1-2.5-0.1-3.8c1-23.3,2.2-46.7,3-70c0.4-14.2,0.1-14.2,9.8-24.2c0.1-0.1,0.2-0.2,0.2-0.3
			c2.6-2.6,4.1-2.7,6.8-0.2c3.3,3.1,6.5,6.3,9.9,9.3c6,5.2,12.4,9.8,20.4,11.5c5.7,1.2,11,0.5,16.3-2.7c-1.1-1-1.9-1.8-2.7-2.6
			c-10.2-9.7-20.5-19.3-30.7-29c-3-2.9-3.1-4.1-0.2-7.2c1.7-1.9,3.5-3.7,5.3-5.6c3.5-3.6,4.2-3.7,7.9-0.2
			c9.6,9.1,19.3,18.2,28.9,27.3c0.9,0.8,1.8,1.5,2.7,2.4c0.4-0.6,0.6-0.8,0.6-1c0.1-0.4,0.2-0.9,0.3-1.4c1-8.5-2.9-15.2-8.2-21.1
			c-5-5.6-10.7-10.7-16.1-16c-2.9-2.9-3-4-0.3-7c2.8-3,5.4-6.1,8.4-8.8c1.2-1.1,3.2-1.4,4.8-2.1
			C244.3,233.9,267.5,255.8,290.7,277.7z"/>
	</g>
</g>
</svg>
