<?xml version="1.0" encoding="utf-8"?>
<!-- Generator: Adobe Illustrator 25.4.1, SVG Export Plug-In . SVG Version: 6.00 Build 0)  -->
<svg version="1.1" id="Layer_1" xmlns="http://www.w3.org/2000/svg" xmlns:xlink="http://www.w3.org/1999/xlink" x="0px" y="0px"
	 viewBox="0 0 500 500" style="enable-background:new 0 0 500 500;" xml:space="preserve">
<g>
	<path d="M159.3,96.5c-4.1-4.4-8.1-8.7-12.1-13.1c-2.8-3-6.4-5.8-4.4-10.7c2.1-5.2,6.8-4.9,11.3-5c8.4-0.3,16.9-0.5,25.3-1.3
		c3-0.3,6.3-1.6,8.6-3.5c29.6-24.7,63.7-36,102.1-33.2c34.3,2.5,63.9,16.3,88.5,40.5c0.8,0.8,1.7,1.7,2.6,2.5
		c0.2,0.2,0.5,0.2,0.6,0.2c11.5-11.3,22.8-22.6,34.3-33.7c9.7-9.4,21.1-12.3,33.9-8c20.4,6.9,28.2,31.8,15.6,49.2
		c-1.6,2.1-3.4,4.1-5.3,6c-14.1,14.2-28.1,28.5-42.3,42.6c-2.1,2.1-2.7,3.9-1.9,7c19.5,79.2-31.3,157.8-111.6,172.7
		c-75.4,14-149-36.7-163.2-112.4c-6.4-34.1-0.8-66.2,16.2-96.4C158.1,98.7,158.7,97.7,159.3,96.5z M191.3,131.3
		C177.6,159.2,179,203.2,208,235c28.1,30.8,73.5,40.3,111.5,23.1c39.3-17.9,57.2-56.6,56.5-86.3c-1.3,1.3-2.5,2.3-3.6,3.4
		c-14.8,14.8-29.4,29.7-44.3,44.4c-12.6,12.4-32,13.1-44.5,1c-19.6-19-38.8-38.3-57.9-57.9c-8.4-8.6-10.5-19.4-7-31
		c7.1-23.4,35.7-30.6,53.7-13.5c10,9.5,19.6,19.5,29.3,29.2c1.1,1.1,2.3,2.1,2.6,2.4c15.7-15.3,31-30.3,46.4-45.3
		C318,68,260.3,62.2,220.2,93.6c-1.2,0.9-2,2.9-2.2,4.4c-1.8,12.4-3.6,24.9-5.2,37.4c-0.5,3.6-1.9,6.2-5.4,7.4
		c-3.7,1.2-6.2-0.8-8.5-3.3C196.5,136.7,193.9,134.1,191.3,131.3z M249.5,123.2c-1.9,0.3-3.8,0.5-5.6,1
		c-12.9,4.3-16.5,19.9-6.7,29.8c17.5,17.7,35.2,35.3,52.8,52.9c10.4,10.4,19.8,10.4,30.3-0.2c39.1-39.4,78.2-78.8,117.2-118.1
		c4.8-4.8,9.7-9.6,14.4-14.6c7.5-8,7-19.2-0.9-26.1c-7.5-6.6-17.6-5.9-25.5,2c-37.6,37.9-75.2,75.8-112.9,113.7
		c-6.3,6.4-9,6.4-15.5-0.1c-11.3-11.3-22.7-22.6-34-34C259.5,125.8,255.2,123.2,249.5,123.2z M165.5,81.6c2.8,3.1,4.8,5.2,6.7,7.4
		c4.4,4.8,4.6,7.1,1.2,12.6c-19,30-24.4,62.5-16.8,97.1c14.7,66.7,84.3,110.2,150.5,94.4c60.7-14.5,100.6-66.6,98.5-129
		c-0.2-6.4-1.4-12.8-2.2-20c-4.6,4.4-8.5,8-12.1,11.9c-0.8,0.9-0.8,2.7-0.9,4.1c-0.6,9.9,0,19.9-1.7,29.6
		C376.7,260,300.5,301,235.5,271.9c-39.2-17.5-61.5-48.4-66.5-91.3c-2.7-22.9,2.3-44.4,13.3-64.6c3.4-6.1,8.5-6.8,13.3-1.7
		c1.4,1.4,2.7,2.9,4.7,5.2c1.8-13.8,3.5-26.5,5.3-39.8C192.4,80.3,179.6,80.9,165.5,81.6z M371.5,83.8
		c-45.2-49-117.7-50.1-160.1-19.6c2.3,0.7,5.5,0.9,7.2,2.5c1.9,1.8,2.4,5,3.3,7.3c50.8-26,97.3-19.6,139,19.3
		C364.4,90.3,367.9,87.1,371.5,83.8z"/>
	<path d="M85.9,337.7c7.9-4.5,15.4-8.9,23-13.2c13.3-7.5,26.4-15.4,39.9-22.3c13.5-6.9,27.4-7.7,42.1-2.6
		c19.9,7,40.2,12.9,60.3,19.3c1,0.3,2,0.5,3,0.6c18.6,2.6,30.6,20.7,22.2,40.6c3.8-1.9,6.8-3.1,9.6-4.8c22.9-13.3,45.8-26.6,68.7-40
		c9.3-5.4,18.9-9.7,29.5-11.7c17.2-3.1,31.5,5.4,35.3,21.2c2.9,12.2-2.1,25.1-12.7,31.7c-42.3,26.1-84.7,52.2-127.1,78.3
		c-14.3,8.8-29.6,10.4-45.7,6.1c-27.5-7.4-55.1-14.7-82.6-22.3c-4.5-1.3-8.2-1.2-11.9,1.6c-1.5,1.1-3.3,2-5.2,3.1
		c1.9,3.4,3.7,6.6,5.4,9.8c4.7,9,2.1,18.6-6.5,23.9c-6.6,4-13.3,7.8-20.1,11.4c-9.1,4.8-19,2-24.2-7
		c-19.5-34.2-38.9-68.5-58.2-102.8c-5.2-9.2-2.3-19.1,6.8-24.5c6.4-3.8,12.8-7.4,19.3-11c9.2-5,19.1-2.1,24.6,6.9
		C83,332.6,84.3,335.1,85.9,337.7z M127.1,410.8c3.6-2.1,6.8-3.7,9.7-5.7c4.1-2.9,8.2-3.2,13-1.8c29.1,8,58.2,15.6,87.3,23.6
		c12,3.3,23.5,2.8,34.2-3.8c42.8-26.3,85.6-52.6,128.2-79c2.2-1.4,4.2-3.9,5.2-6.3c4.5-11.7-4.4-21.8-17.1-19.8
		c-9.4,1.5-17.7,5.6-25.8,10.3c-22.5,13.1-45.1,26.1-67.5,39.4c-10.7,6.3-22.1,10.3-34.3,7.8c-20.5-4.2-40.8-9.5-61.2-14.5
		c-3.7-0.9-5.7-5-4.7-8.5c1.1-3.7,3.7-5.7,7.7-5.3c1.2,0.1,2.3,0.4,3.4,0.7c14.3,3.8,28.5,7.7,42.9,11.3c8,2,14.8-2.1,16.5-9.4
		c1.5-6.5-3-13.7-9.9-15.1c-22.6-4.4-44.2-12-65.6-20.3c-13.6-5.3-26-4.2-38.3,2.8c-19,10.9-38,21.9-56.9,32.8
		c-0.2,0.1-0.3,0.5-0.6,1C104.4,370.7,115.6,390.5,127.1,410.8z M66.5,335.1c-1.3,0.4-1.7,0.5-2.1,0.7c-6.6,3.7-13.2,7.4-19.7,11.2
		c-2.3,1.3-2.2,3.2-1,5.3c2.4,4.1,4.7,8.2,7,12.3c16.5,29.2,33.1,58.4,49.6,87.7c1.9,3.4,3.7,5,7.6,2.6c5-3.2,10.3-5.9,15.4-8.8
		c4.8-2.7,5.1-3.5,2.4-8.3c-7.6-13.4-15.1-26.8-22.7-40.2C92,378.1,80.9,358.5,69.8,339C68.9,337.5,67.5,336.3,66.5,335.1z"/>
	<path d="M62.7,347.7c4.5,0,8.2,3.6,8.3,8c0.1,4.5-3.9,8.5-8.5,8.4c-4.5,0-8.2-3.7-8.3-8.1C54.2,351.5,58,347.7,62.7,347.7z"/>
</g>
</svg>
