<?xml version="1.0" encoding="utf-8"?>
<!-- Generator: Adobe Illustrator 25.4.1, SVG Export Plug-In . SVG Version: 6.00 Build 0)  -->
<svg version="1.1" id="Layer_1" xmlns="http://www.w3.org/2000/svg" xmlns:xlink="http://www.w3.org/1999/xlink" x="0px" y="0px"
	 viewBox="0 0 500 500" style="enable-background:new 0 0 500 500;" xml:space="preserve">
<g>
	<path d="M20.6,220.3c5.7-19.4,11.3-38.8,17.1-58.1c2-6.7,3.7-13.5,6.3-20c4.3-10.9,11.4-18.5,24.1-18.8
		c13.1-0.4,22.2,5.8,27.8,17.3c5.7,11.8,5.7,24.2,2.3,36.6c-3.5,12.8-7.2,25.5-10.3,38.3c-1.5,6.3-1.7,12.8-2.6,19.7
		c16.2,1.6,27.2,10.2,37.2,21c11.1,11.9,22.4,23.6,33.8,35.2c3,3,6.7,5.3,10.4,7.4c4.4,2.5,9.2,4.3,13.7,6.6c3.9,2,5.1,5.5,3.5,8.9
		c-1.7,3.6-5.4,5-9.4,3.2c-6.7-3-13.3-6-19.8-9.2c-1.7-0.8-3.1-2.3-4.4-3.7c-14-14.5-28-29-42-43.5c-5.8-6-12.4-10.8-21-11.7
		c-3.3-0.3-6.9-0.1-10.1,0.9c-8.8,2.7-12.4,10.4-8.5,18.7c2,4.2,5,8.1,8.2,11.6c17.3,18.3,34.9,36.4,52.4,54.6c0.9,1,1.9,1.9,2.7,3
		c2.4,3.1,2,6.1-0.5,8.9c-2.5,2.7-6.2,2.8-9.2,0.3c-0.9-0.8-1.7-1.7-2.5-2.5c-17.7-18.4-35.6-36.6-53-55.3
		c-4.4-4.7-8.3-10.3-10.8-16.2c-6.1-14.1-0.6-27.8,13.2-34.4c3-1.4,4-3,3.6-6.1c-1.6-16,5.2-30.3,8.7-45.3
		c1.7-7.4,3.9-14.7,5.2-22.1c1.2-7.4-0.2-14.6-4.1-21.1c-3.2-5.4-8-7.8-14.2-7.5c-5.8,0.3-9,4-10.7,8.8c-3.7,10.8-7,21.8-10.2,32.8
		c-4.3,14.7-8.4,29.4-12.5,44.2c-0.6,2.3-0.6,4.7-0.6,7.1c0,23.3,0,46.6-0.1,69.9c0,10.7,3.6,19.6,11.1,27.4
		c35.3,36.3,70.4,72.7,105.7,109c2.9,3,4.5,6,4.3,10.3c-0.3,5.5,0,11-0.1,16.6c-0.1,4.5-2.8,7.3-6.7,7.4c-3.9,0-6.6-2.8-6.8-7.3
		c0-0.4-0.1-0.9,0-1.3c2.3-11.5-3.1-19.3-11-27.2c-29.6-29.7-58.4-60.2-87.8-90.2c-10.1-10.2-19.4-20.6-22.1-35.3
		C20.6,279.4,20.6,249.9,20.6,220.3z"/>
	<path d="M228.3,55.3c13.6,7.1,26.2,13.8,38.9,20.4c15,7.9,30,15.9,45.2,23.6c1.6,0.8,4.3,0.8,6,0c6-2.8,11.9-6.1,18.5-9.6
		c-4.9-2.6-9.1-5-13.4-7.2c-6.6-3.5-13.2-6.9-19.8-10.4c-4.5-2.4-6-6.2-4.1-9.9c1.9-3.6,5.9-4.5,10.5-2.2
		c14.4,7.5,28.7,15.1,43.2,22.6c3.8,1.9,5.3,4.7,5.3,8.9c-0.1,40.5-0.1,80.9,0,121.4c0,4.1-1.5,6.7-5.1,8.6
		c-32.9,17.2-65.7,34.4-98.5,51.7c-3.6,1.9-6.6,1.7-10.1-0.1c-32.5-17.2-65.1-34.3-97.8-51.3c-3.9-2-5.7-4.6-5.6-9.2
		c0.1-40.3,0.1-80.6,0-120.9c0-4.5,1.6-7.2,5.5-9.2c32.6-17,65.2-34.1,97.8-51.3c3.7-1.9,6.8-2.1,10.5,0
		c9.5,5.2,19.3,10.1,28.8,15.2c4.9,2.6,6.1,7.6,2.9,11c-2.6,2.8-5.6,2.9-8.9,1.2c-8.3-4.4-16.5-8.9-25-13c-1.7-0.8-4.3-0.8-6,0
		C240.9,48.5,235.1,51.8,228.3,55.3z M155,100.9c0,36.2,0,71.6,0.1,107c0,1.4,1.6,3.4,3,4.2c27.1,14.4,54.3,28.6,81.5,42.8
		c1,0.5,2,0.8,3.2,1.3c0.1-0.9,0.3-1.3,0.3-1.7c0-34.8,0.1-69.5-0.1-104.3c0-1.5-1.6-3.7-3.1-4.5c-15.7-8.5-31.6-16.7-47.4-25
		C180.1,114.1,167.9,107.7,155,100.9z M257.1,256.3c1.1-0.5,1.8-0.7,2.4-1c27.4-14.4,54.9-28.8,82.4-43.1c2.6-1.3,3.1-3,3.1-5.6
		c-0.1-33.7-0.1-67.5-0.1-101.2c0-1.3,0-2.5,0-4.4c-7,3.7-13.2,7.1-19.6,10.2c-2.4,1.2-3.1,2.7-3.1,5.2c0.1,8.7-0.1,17.3,0.1,26
		c0.1,4.6-1.7,7.6-5.9,9.5c-8.2,3.8-16.5,7.5-24.5,11.9c-8,4.4-13.3-0.6-12.5-8.1c0.6-6.5,0.1-13.2,0.1-20.4
		c-6.9,3.6-12.9,6.9-19,9.8c-2.9,1.4-3.7,3.1-3.7,6.2c0.1,33.4,0.1,66.9,0.1,100.3C256.9,253,257,254.4,257.1,256.3z M163,89.6
		c28.9,15.2,56.8,29.9,84.8,44.5c1,0.5,2.7,0.7,3.6,0.3c6.6-3.3,13.1-6.8,19.9-10.3c-0.7-0.5-1-0.8-1.4-1
		c-27.7-14.5-55.4-29.1-83.1-43.6c-1-0.5-2.7-0.8-3.7-0.4C176.6,82.4,170.2,85.8,163,89.6z M300.7,108.7
		c-28.9-15.1-57-29.9-85.1-44.5c-1-0.5-2.7-0.6-3.7-0.1c-4,1.9-7.9,4-11.9,6.2c0.5,0.6,0.7,1,1.1,1.2c27.8,14.6,55.6,29.3,83.5,43.8
		c1,0.5,2.6,0.5,3.6,0C292.2,113.3,296.1,111.1,300.7,108.7z M308.4,120.2c-5.2,2.7-9.4,4.8-13.5,7.1c-0.8,0.5-1.7,1.8-1.7,2.7
		c-0.2,5.8-0.1,11.5-0.1,17.9c5-2.4,9.4-4.4,13.7-6.6c0.7-0.4,1.5-1.6,1.6-2.4C308.4,132.9,308.4,127,308.4,120.2z"/>
	<path d="M479.3,264.7c0,11.5-0.3,23,0.1,34.5c0.5,15.1-5,27.4-15.5,38.2c-34.1,35-67.9,70.1-102,105.1c-2.6,2.7-3.8,5.3-3.6,9
		c0.3,4,0.2,8.1,0,12.1c-0.1,3.9-2.9,6.5-6.4,6.6c-3.8,0.1-6.8-2.6-6.9-6.6c-0.2-6.9-0.3-13.7,0.1-20.6c0.1-2.1,1.8-4.4,3.3-6
		c35.2-36.5,70.5-73.1,105.9-109.4c7.9-8.1,11.7-17.3,11.6-28.5c-0.1-23,0-46-0.1-69c0-4.3-0.6-8.7-1.7-12.8
		c-6.1-21.5-12.4-42.9-18.7-64.3c-0.8-2.8-1.8-5.7-3.2-8.3c-5.1-10-17.5-10.8-23.9-1.4c-5.8,8.6-6.3,18.2-3.8,27.9
		c3.6,14.1,7.6,28.1,11.3,42.3c0.6,2.2,1.1,5.2,0.1,6.8c-1.2,1.9-4,3.7-6.3,4c-3.4,0.3-5.6-2.3-6.5-5.7
		c-3.7-13.5-7.6-26.9-10.9-40.5c-1.6-6.6-2.5-13.5-2.4-20.3c0.1-9.3,3.2-17.8,9.3-25c10.4-12.5,35.7-15.5,45,5.6
		c4.8,10.8,7.7,22.5,11.1,33.9c4.7,15.7,9,31.4,13.4,47.2c0.6,2.3,0.7,4.7,0.7,7.1C479.4,239.3,479.3,252,479.3,264.7z"/>
	<path d="M255.4,426.4c1.3-16.9,1.6-34,4-50.8c3.5-23.6,16.4-42.2,36.1-55.4c12.4-8.3,26.2-14.7,39.3-22c2.7-1.5,5.4-3.1,7.5-5.3
		c13.9-14.2,27.5-28.7,41.4-42.8c9.4-9.5,20.7-14.9,34.4-14.5c22,0.6,34.7,21.2,24.9,40.8c-2.3,4.6-5.5,8.9-9,12.7
		c-18.1,19.1-36.4,37.9-54.6,56.9c-0.5,0.5-1,1.1-1.6,1.6c-3.1,2.5-6.7,2.4-9.3-0.3c-2.5-2.8-2.8-5.8-0.5-8.9c0.8-1.1,1.8-2,2.7-3
		c17.3-18,34.6-35.9,51.8-54c2.5-2.6,4.9-5.3,6.8-8.3c3.4-5.2,5.4-11,1.6-16.8c-4-6.1-10.5-7.6-17.3-6.9c-8.9,0.9-15.8,5.7-21.9,12
		c-13.8,14.3-27.5,28.7-41.4,42.9c-2.3,2.4-5.3,4.4-8.3,5.7c-15.8,7.1-31.3,14.8-44.7,26c-16,13.4-24.7,30.6-25.8,51.2
		c-1.1,20.4-0.9,40.9-1.2,61.3c-0.1,4.6,0.1,9.3,0,13.9c-0.1,5.1-2.9,8.1-7.1,8c-4-0.1-6.7-3-6.7-7.9c-0.1-11.9,0-23.9,0-35.8
		C256.1,426.5,255.8,426.4,255.4,426.4z"/>
	<path d="M243.5,426.8c0,11,0,22.1,0,33.1c0,1.2,0.1,2.4-0.1,3.6c-0.5,4.2-3.3,6.8-7,6.7c-4.1-0.2-6.1-2.7-6.7-6.5
		c-0.2-1.3-0.1-2.7-0.1-4c-0.1-20.6,0.1-41.2-0.3-61.8c-0.2-12.7-2.1-25.3-7.5-37c-5.3-11.7-13.7-20.9-23.9-28.5
		c-1.4-1.1-2.9-2.1-4.3-3.2c-3.3-2.7-4-6.8-1.8-9.9c2.2-3,6.1-3.7,9.5-1.3c14.5,10,26.4,22.2,33.5,38.7c7.3,17,8,35,8.5,53.1
		C243.6,415.5,243.4,421.2,243.5,426.8C243.4,426.8,243.5,426.8,243.5,426.8z"/>
</g>
</svg>
