<?xml version="1.0" encoding="utf-8"?>
<!-- Generator: Adobe Illustrator 25.4.1, SVG Export Plug-In . SVG Version: 6.00 Build 0)  -->
<svg version="1.1" id="Layer_1" xmlns="http://www.w3.org/2000/svg" xmlns:xlink="http://www.w3.org/1999/xlink" x="0px" y="0px"
	 viewBox="0 0 500 500" style="enable-background:new 0 0 500 500;" xml:space="preserve">
<g>
	<path d="M61.5,135.2c-15,24.3-24.6,50.6-29.2,77.5c5-29,15.9-56.5,31.4-81C63,132.8,62.3,134,61.5,135.2z M50.6,290
		C39.9,234.5,52,180.4,80.7,137.2C30.1,212,36.5,316.1,96.4,383.4c19.8,22.2,42.2,39.3,67.4,51.1C106.7,407.4,62.8,353.8,50.6,290z
		 M66,372c16,24.3,37.1,45.8,62.8,62.6c2.8,1.8,5.7,3.6,8.5,5.3C109.7,423.4,84.9,400.6,66,372z M144.3,76.3
		c16.8-10.2,35.3-18.1,55.3-23.3c9.5-2.5,19.1-4.2,28.6-5.3C198.6,50.9,170,60.6,144.3,76.3z M193.7,36.5c1.4-0.4,2.8-0.7,4.2-1
		c41-9.7,81.9-7.6,119.1,4.2C276.3,26.6,233.6,25.9,193.7,36.5z M337.7,452.8c20.7-8.8,39.6-20.7,55.9-34.9
		C377.2,431.9,358.5,443.8,337.7,452.8z M353.7,75c-2.4-1.4-4.9-2.8-7.4-4.1c36.7,19.8,67.2,50.6,86.2,89.1
		C415.7,125.7,389.1,95.7,353.7,75z M448.3,204.7c0.5,2.2,1,4.4,1.4,6.7c1.2,6.4,2.1,12.8,2.8,19.2
		C451.6,221.8,450.2,213.2,448.3,204.7z M470.6,238.6c0.1,2.8,0.2,5.7,0.3,8.5C470.8,244.2,470.7,241.4,470.6,238.6z"/>
	<path d="M32.4,212.7c-4.6,26.6-4.4,54.3,1.5,82c2,9.6,4.6,18.8,7.7,27.7C29.5,287.4,26.1,249.6,32.4,212.7z M54.5,352.5
		c1.1,2.2,2.3,4.4,3.5,6.5C56.8,356.9,55.6,354.7,54.5,352.5z M80.9,136.9c15.9-23.5,35.7-42.6,57.9-57.2
		C115.6,94.9,96,114.4,80.9,136.9z M67.7,125.8c30.9-45,75.3-75.3,124.1-88.7C139.6,51,96.4,83.5,67.7,125.8z M143.4,443.4
		c27.4,15.2,57.3,24.3,87,26.6C201.2,467.4,171.7,458.9,143.4,443.4z M231.5,47.4C268,44,305.8,50.6,340.8,68
		C307.7,51.4,270,43.7,231.5,47.4z M340.3,48.5c7.5,3.4,14.8,7.1,22,11.4c6.4,3.8,12.5,7.8,18.4,12.1
		C368.1,62.8,354.6,54.9,340.3,48.5z M430.9,343c1-1.8,1.9-3.6,2.8-5.5c1.1-2.4,2.2-4.7,3.2-7.1C435.1,334.6,433.1,338.8,430.9,343z
		 M440,177.3c0.8,2,1.5,4.1,2.2,6.1C441.5,181.3,440.8,179.3,440,177.3z M452.8,234.3c2,25.8-0.9,52.2-8.9,77.5
		C452,286.7,455,260.8,452.8,234.3z"/>
	<path d="M470.9,247.1c0-2.8-0.1-5.7-0.3-8.5c-0.1-1.7-0.2-3.5-0.3-5.2c-0.2-2-0.3-3.9-0.5-5.9c-0.1-1.4-0.3-2.7-0.5-4.1
		c-0.2-1.3-0.3-2.5-0.5-3.8c-0.2-1.4-0.4-2.9-0.6-4.3c-0.1-0.7-0.2-1.4-0.3-2.1c-0.2-1-0.3-1.9-0.5-2.9c-0.2-1.1-0.4-2.1-0.6-3.2
		c-0.1-0.4-0.2-0.7-0.2-1.1c-0.2-1.2-0.5-2.3-0.8-3.5c-0.3-1.1-0.5-2.3-0.8-3.4c-0.3-1.4-0.7-2.8-1-4.2c-0.7-2.6-1.4-5.2-2.2-7.8
		c-0.2-0.6-0.4-1.2-0.6-1.8c-0.7-2.5-1.5-4.9-2.4-7.4c-0.6-1.9-1.3-3.7-2-5.5c-0.3-0.9-0.7-1.8-1-2.7c-0.4-1-0.8-2-1.2-2.9
		c-0.5-1.3-1-2.5-1.6-3.7c-0.1-0.2-0.2-0.4-0.2-0.6c0,0,0-0.1-0.1-0.1c-0.5-1.2-1.1-2.4-1.6-3.6c0-0.1-0.1-0.1-0.1-0.2
		c-0.6-1.2-1.1-2.5-1.7-3.7c0,0,0-0.1-0.1-0.1c-0.6-1.2-1.2-2.4-1.8-3.6c-0.6-1.2-1.2-2.3-1.8-3.5c-0.6-1.2-1.2-2.3-1.8-3.4
		c-0.6-1.1-1.2-2.2-1.8-3.3c-0.5-1-1.1-2-1.7-2.9c0-0.1-0.1-0.2-0.2-0.4c-0.6-1-1.2-2-1.8-3c-1.3-2.1-2.6-4.2-4-6.2
		c-0.6-0.9-1.2-1.8-1.8-2.7c-0.6-0.8-1.1-1.6-1.7-2.4c0,0,0-0.1-0.1-0.1c-0.6-0.9-1.3-1.8-2-2.8c-0.7-0.9-1.3-1.8-2-2.7
		c-0.7-0.9-1.3-1.8-2-2.7c-0.1-0.1-0.2-0.3-0.3-0.4c-0.5-0.6-1-1.3-1.5-2c-0.6-0.7-1.2-1.4-1.7-2.2c-1-1.2-2-2.4-3-3.6
		c-1.8-2.2-3.7-4.3-5.6-6.3c-1.3-1.4-2.7-2.8-4-4.2c-0.8-0.8-1.5-1.6-2.3-2.4c-0.4-0.4-0.7-0.8-1.1-1.1c-1.2-1.2-2.4-2.3-3.6-3.5
		c0,0,0,0,0,0c-1.6-1.5-3.2-3-4.8-4.4c-2.5-2.2-5-4.4-7.6-6.4c-1.1-0.9-2.1-1.7-3.2-2.5c-0.9-0.7-1.9-1.5-2.8-2.2
		c-0.8-0.6-1.7-1.3-2.5-1.9c-5.9-4.3-12-8.4-18.4-12.1c-7.2-4.2-14.6-8-22-11.4c-1.1-0.5-2.1-1-3.2-1.4c-1.1-0.5-2.2-0.9-3.3-1.4
		c-0.5-0.2-0.9-0.4-1.4-0.6c-1.3-0.5-2.6-1-3.9-1.5c-0.2-0.1-0.4-0.2-0.7-0.3c-1-0.4-1.9-0.7-2.9-1.1c-1.2-0.4-2.4-0.9-3.6-1.3
		c-1.4-0.5-2.8-0.9-4.2-1.4C279.9,27.9,239,25.8,198,35.5c-1.4,0.3-2.8,0.7-4.2,1c-0.6,0.2-1.3,0.3-1.9,0.5
		c-48.9,13.4-93.3,43.8-124.1,88.7c-0.8,1.2-1.6,2.3-2.3,3.5c-0.5,0.8-1,1.6-1.5,2.4c-15.6,24.5-26.4,52.1-31.4,81c0,0,0,0.1,0,0.1
		c-6.2,36.9-2.9,74.7,9.2,109.7c0.2,0.7,0.5,1.3,0.7,2c0.3,0.9,0.6,1.8,1,2.7c0.3,0.9,0.7,1.8,1,2.7c0.5,1.4,1.1,2.8,1.7,4.2
		c0.5,1.2,1,2.5,1.5,3.7c0.2,0.5,0.5,1.1,0.7,1.6c0.2,0.4,0.4,0.9,0.6,1.3c0.4,0.9,0.8,1.8,1.2,2.8c0.2,0.5,0.4,1,0.7,1.4
		c0.4,1,0.9,1.9,1.4,2.9c0.8,1.6,1.6,3.3,2.5,4.9c1.1,2.2,2.3,4.4,3.5,6.5c0.6,1.1,1.2,2.2,1.9,3.2c0.1,0.3,0.3,0.5,0.4,0.7
		c0.8,1.4,1.7,2.8,2.5,4.2c0.1,0.1,0.1,0.2,0.2,0.3c0.4,0.6,0.7,1.2,1.1,1.7c0.6,0.9,1.2,1.9,1.8,2.8c18.9,28.5,43.7,51.4,71.4,67.9
		c1.1,0.7,2.2,1.3,3.4,2c0.9,0.5,1.8,1,2.7,1.5c28.2,15.6,57.8,24.1,87,26.6c0.1,0,0.2,0,0.3,0c16.6,1.4,33.2,1,49.2-1.2
		c2.5-0.3,5-0.7,7.6-1.2c4.2-0.7,8.3-1.5,12.4-2.5c11.9-2.7,23.4-6.4,34.5-10.9c1.1-0.4,2.2-0.9,3.2-1.4c20.8-9,39.5-20.9,55.9-34.9
		c0,0,0.1-0.1,0.1-0.1c12-10.3,22.8-21.8,32.2-34.2c1.6-2.1,3.1-4.1,4.6-6.3c2.4-3.5,4.8-7,7-10.6
		C459.6,331.2,471.4,289.6,470.9,247.1z M443.9,311.8c-0.1,0.3-0.2,0.6-0.3,0.9c-0.3,1-0.7,2.1-1,3.1c-0.4,1.1-0.7,2.1-1.1,3.2
		c-0.5,1.3-1,2.7-1.5,4c-0.4,1-0.8,2-1.2,3c-0.3,0.7-0.6,1.5-0.9,2.2c-0.3,0.7-0.6,1.5-0.9,2.2c-1,2.4-2.1,4.7-3.2,7.1
		c-0.9,1.9-1.8,3.7-2.8,5.5c-2.8,5.5-6,10.9-9.4,16.2c-1,1.5-2,3.1-3,4.6c-0.2,0.3-0.4,0.6-0.7,1c-1.2,1.7-2.4,3.4-3.6,5.1
		c-1.9,2.6-3.9,5.2-5.9,7.7c-2.6,3.2-5.2,6.3-7.9,9.3c-2,2.2-4,4.4-6.1,6.5c-0.7,0.7-1.4,1.4-2.1,2.1c-3.3,3.2-6.6,6.3-10.1,9.3
		c-0.8,0.5-1.6,1-2.3,1.6c-8.3,6.9-16.8,13-25.5,18.3c-19.2,11.8-39.7,19.8-61.2,24.4c-1.6,0.3-3.2,0.7-4.8,1
		c-2.5,0.5-5,0.9-7.5,1.2c-2.7,0.4-5.4,0.7-8.1,1c-4.5,0.5-9,0.8-13.6,1c-2.8,0.1-5.6,0.2-8.4,0.2c-1.1,0-2.2,0-3.4,0
		c-3.8,0-7.7-0.2-11.6-0.4c-0.3,0-0.6,0-0.9-0.1c-1.1-0.3-2.3-0.6-3.6-0.7c-23.7-2.1-45.5-7.8-65.7-17c-0.6-0.3-1.3-0.6-1.9-0.9
		c-25.2-11.7-47.6-28.9-67.4-51.1C36.5,316.1,30.1,212,80.7,137.2c0.1-0.1,0.1-0.2,0.2-0.3c15-22.5,34.6-42.1,57.9-57.2
		c1.8-1.2,3.6-2.4,5.5-3.5c25.7-15.7,54.3-25.4,83.9-28.6c0.7-0.1,1.5-0.2,2.2-0.2c0.4-0.1,0.7-0.1,1.1-0.1
		c38.5-3.6,76.2,4.1,109.2,20.6c0.2,0.1,0.5,0.2,0.7,0.4c0.7,0.3,1.4,0.7,2,1c0.9,0.5,1.8,1,2.8,1.5c2.5,1.3,4.9,2.7,7.4,4.1
		c35.4,20.7,62,50.7,78.8,85c0.6,1.2,1.2,2.4,1.7,3.6c0.1,0.3,0.3,0.6,0.4,0.8c0.5,1.1,1,2.3,1.5,3.4c0.6,1.3,1.1,2.6,1.7,3.9
		c0.3,0.8,0.7,1.6,1,2.4c0.1,0.1,0.1,0.3,0.2,0.4c0.4,1,0.8,1.9,1.1,2.9c0.8,2,1.5,4.1,2.2,6.1c0.4,1,0.7,2,1,3.1c0.4,1,0.7,2,1,3.1
		c0.3,1.1,0.6,2.1,0.9,3.1c0.2,0.6,0.4,1.3,0.5,1.9c0.2,0.8,0.5,1.7,0.7,2.5c0.1,0.4,0.2,0.7,0.3,1.1c0.3,1.2,0.6,2.4,0.9,3.6
		c0.2,1,0.5,1.9,0.7,2.9c2,8.5,3.3,17.1,4.2,25.8c0.1,1,0.2,2,0.3,3.1c0,0.2,0,0.5,0.1,0.7C455,260.8,452,286.7,443.9,311.8z"/>
	<path d="M360.8,211.9c-7.1,8-14,15.4-20.5,23.1c-14.3,16.8-31.3,30.2-51.5,39.3c-8.7,3.9-17.3,8-25.4,12.9
		c-15.8,9.3-25,23.5-28.8,41.4c-2.5,12,0.8,23,6.2,34c-11.9,4.8-23.9,7.2-36.2,5c-44.3-7.9-75.4-62-60.6-104.8
		c6.3-18,17.1-33.4,27.7-49c17.2-25.4,34.4-50.8,51.2-76.3c3.9-5.9,6.6-12.6,10.2-19.6c27.4,37.8,52.6,76.2,73.3,117.7
		c5.4-2.7,10.1-5,15.5-7.6c-25.8-52.2-58.4-99.3-93.7-145.6c-1.1,2.2-1.8,3.4-2.3,4.8c-10.5,33.1-29,61.8-48.9,89.8
		c-14.1,19.8-28.4,39.6-40.5,60.6c-21.6,37.7-17.1,74.9,7.5,109.6c23.8,33.5,58.8,45.7,95.5,33.9c8.7-2.8,15.1-2.8,23.6,2.2
		c17.1,10,34.1,10.1,50.7,4.4c2.8-1,5.5-2.1,8.3-3.4c0,0,0,0,0.1,0c15.4-5.8,26.4-18.2,32-25.7c0.3-0.4,0.6-0.8,0.9-1.2
		c0.2-0.3,0.5-0.6,0.7-1c0.2-0.3,0.4-0.5,0.5-0.8c0.7-1,1.3-2,2-3c0.2-0.3,0.2-0.4,0.2-0.4c5.6-9,9.7-18.6,12.7-28.5
		c2.7-8.9,4.4-18,5.4-27.5C379.4,267,373.9,239.2,360.8,211.9z M330,358.4c-14.9,13.1-31.9,18.7-51.6,13.4c-2-0.5-3.9-1.5-5.8-2.4
		c-0.7-0.3-1.2-1-2.2-1.9c24.3-15.3,44.6-34.5,62.9-57c-4.6-3.5-8.9-6.8-13.5-10.4c-18.4,21.3-37.9,40.8-62.7,54.8
		c-5.7-7.9-7.3-16.4-5-25.4c2.9-11.5,9-21,19.5-27c7.9-4.5,16.1-8.5,24.3-12.3c20.3-9.5,38.5-22,53.3-39.1c1.6-1.9,3.4-3.6,5.3-5.6
		C365.1,276.8,361.3,330.9,330,358.4z"/>
</g>
<path d="M296.5,373c-0.3,0.4-0.8,1.3-1.5,2.4C295.5,374.6,296,373.8,296.5,373z"/>
</svg>
