<?xml version="1.0" encoding="utf-8"?>
<!-- Generator: Adobe Illustrator 25.4.1, SVG Export Plug-In . SVG Version: 6.00 Build 0)  -->
<svg version="1.1" id="Layer_1" xmlns="http://www.w3.org/2000/svg" xmlns:xlink="http://www.w3.org/1999/xlink" x="0px" y="0px"
	 viewBox="0 0 500 500" style="enable-background:new 0 0 500 500;" xml:space="preserve">
<path d="M296.5,373c-0.3,0.4-0.8,1.3-1.5,2.4C295.5,374.6,296,373.8,296.5,373z"/>
<g>
	<path d="M123.7,328.4c-72-75-62.9-188.7,7-252.7c66.6-61,169-62.7,237.7-0.8c69.4,62.5,81.3,177.4,7.8,253.6
		c13.8,23.9,27.6,47.9,41.5,71.8c2.4,4.1,5.1,8.1,7,12.4c0.9,2.1,1.2,5.6,0.1,7.3c-1.1,1.7-4.7,2.9-6.8,2.5
		c-17.4-3.2-34.7-6.7-52-10.3c-3.5-0.7-4.9,0-6,3.5c-5.2,16-10.7,31.8-16,47.7c-1.2,3.5-2.1,7-6.6,7.4c-4.5,0.4-6.1-3.1-7.8-6.2
		c-15.8-27.3-31.6-54.6-47.3-81.9c-1.5-2.6-2.9-3.7-6.2-3.2c-17.5,2.8-35,2.7-52.5,0c-3.1-0.5-4.4,0.5-5.9,3
		c-15.4,26.8-30.9,53.6-46.4,80.4c-0.5,0.9-1.1,1.8-1.6,2.7c-1.6,3-3.5,5.6-7.5,5.2c-4-0.5-5.1-3.6-6.2-6.8
		c-3.9-11.5-7.7-23.1-11.6-34.6c-1.7-4.9-3.5-9.8-4.9-14.8c-0.8-2.6-2-3.2-4.5-2.6c-16.6,3.4-33.2,6.8-49.8,10.2
		c-1,0.2-2.1,0.7-3.1,0.4c-2.4-0.6-5.9-0.7-6.9-2.3c-1.2-1.9-1.1-5.6,0-7.7c6.9-12.7,14.3-25.1,21.5-37.6
		C105.8,359.6,114.7,344.1,123.7,328.4z M250.2,41.7c-89.7-0.3-163.6,73-163.7,163.2c-0.1,90.4,72.2,163.7,163.3,163.9
		c90.4,0.2,163.4-72.2,163.7-163C413.7,115.3,341.3,42.5,250.2,41.7z M93,407.2c1.2,0,1.8,0.1,2.4,0c14.8-3,29.7-6,44.5-9
		c5.3-1.1,7.6,0.1,9.4,5.4c2.3,6.7,4.6,13.5,6.8,20.2c2.8,8.2,5.5,16.3,8.6,25.3c14.3-24.7,28.1-48.6,42.1-72.9
		c-27.8-7.3-52-20.2-73.5-38.9C119.7,360.8,106.5,383.8,93,407.2z M407.2,407.6c-13.8-23.9-27.1-46.9-40-69.2
		c-11.8,7.7-22.9,16-35.1,22.5c-12.2,6.5-25.4,11-38.4,16.5c13.5,23.4,27.3,47.3,41.4,71.7c0.7-2,1.1-3.2,1.6-4.5
		c4.7-13.8,9.3-27.5,14-41.3c1.7-5,4.1-6.2,9.2-5.1c1.3,0.3,2.6,0.5,3.9,0.7C378,401.7,392.1,404.6,407.2,407.6z"/>
	<path d="M376.5,205.3c0,69.6-56.7,126.3-126.4,126.5c-69.7,0.2-127.1-57.3-126.6-126.7c0.5-70,57.2-126.5,126.6-126.2
		C319.9,79.1,376.5,135.7,376.5,205.3z M250.3,91.7c-62.8-0.1-113.8,50.4-114,113c-0.2,63,50.4,114.1,113.3,114.2
		c62.8,0.1,113.8-50.4,114-113.1C363.8,142.8,313.2,91.8,250.3,91.7z"/>
	<path d="M327.9,230.5c4.1,10.7,2.3,16.7-7,24.6c7.1,15.7-5.4,28.3-19.5,28c-20.4-0.5-40.8-0.2-61.2,0c-6.8,0.1-13.1-0.7-17.7-6.8
		c-4.4,5.2-9.9,6.2-15.9,5.9c-4.3-0.2-8.6,0-13,0c-9.6,0-15.3-5.5-15.4-15.1c-0.2-13.5-0.2-27.1-0.3-40.7c-0.1-11-0.1-22-0.1-33.1
		c0-10.3,5.4-15.7,15.6-15.8c7.7-0.1,15.4,0,24.1,0c7.2-9.3,14.8-19.7,16.6-33.3c1-7.5,3.1-14.8,5.4-22c3.6-11.6,16-18.1,27.8-14.9
		c11.5,3.1,18.8,15,16.2,26.6c-1.9,8.8-4.1,17.6-6.1,26.5c-0.8,3.5-1.6,6.9-2.5,11c2.3,0,4.2,0,6,0c13.8,0,27.7,0,41.5,0
		c8.2,0,15.3,2.2,18.6,10.3c3.3,8.3,2,16.1-5,22.4c-0.2,0.2-0.3,0.5-0.6,0.9C339.7,215.2,337.5,223.9,327.9,230.5z M269.9,270.3
		c0,0,0-0.1,0-0.1c3.1,0,6.3,0,9.4,0c8.2-0.1,16.4,0.2,24.6-0.4c2.1-0.1,5.1-2.3,5.8-4.3c0.6-1.6-1.3-4.4-2.5-6.4
		c-0.6-1-2.6-1.3-3.1-2.4c-1.2-2-2.9-4.6-2.4-6.5c0.5-1.9,3.1-3.5,5.1-4.7c1.3-0.8,3.4-0.2,4.8-0.9c2.1-1.1,4.9-2.6,5.3-4.4
		c0.4-1.8-1.6-4.3-2.8-6.3c-0.5-0.8-2.1-0.9-2.5-1.7c-1.2-2.1-3.3-4.7-2.7-6.4c0.8-2.2,3.5-3.9,5.8-5.1c1.9-1,4.6-0.3,6.4-1.4
		c1.6-1,3.5-3.3,3.4-5c-0.1-1.9-2.1-3.7-3.5-5.4c-0.5-0.6-2-0.4-2.4-1c-1.4-1.9-3.8-4.1-3.5-6c0.3-2.1,2.7-4.2,4.6-5.6
		c1.1-0.8,3.2-0.4,4.8-0.7c3.7-0.6,5.5-2.7,5.4-6.4c-0.1-3.9-2-5.3-7.6-5.3c-15.8,0-31.6,0-47.4-0.1c-9.5-0.1-14.4-6.4-12.3-15.6
		c2.8-12.4,5.9-24.9,8.5-37.3c1.1-5.2-2.2-10.1-7.1-11.4c-5.3-1.4-10.2,1.1-12.2,6.4c-0.7,1.9-1.2,4-1.6,6
		c-4.1,18.7-8,37.6-21.5,52.4c-0.7,0.8-1.3,1.7-1.6,2.7c-0.9,3.1-2.3,6.2-2.3,9.3c-0.1,19.7,0.2,39.3,0.2,59c0,3.6,0,6.6,4,8.2
		c1.1,0.4,2.1,1.8,2.6,2.9c1.4,3.3,3.9,3.9,7.2,3.8C249,270.2,259.4,270.3,269.9,270.3z M211.8,190.3c-7.3,0-13.9,0-20.7,0
		c0,26.3,0,52.4,0,79c6.4,0,12.5,0.1,18.5-0.2c0.8,0,2.1-2.2,2.2-3.4c0.2-7.7,0-15.5,0-23.2C211.7,225.3,211.8,208.1,211.8,190.3z"
		/>
</g>
</svg>
