<svg width="24" height="24" viewBox="0 0 24 24" fill="none" xmlns="http://www.w3.org/2000/svg">
<g clip-path="url(#clip0_612_114)">
<path d="M24.75 8.37H28.56V29.92H24.75V8.37Z" fill="black"/>
<path d="M14.73 30.0001H10.93C10.93 29.7501 10.88 29.5101 10.88 29.2701C10.88 24.3301 10.88 19.4001 10.88 14.4701C10.88 13.8901 11.02 13.6501 11.64 13.6901C12.64 13.6901 13.64 13.6901 14.75 13.6901L14.73 30.0001Z" fill="black"/>
<path d="M4 17.88H7.4C7.74 17.88 7.88 18.02 7.88 18.37C7.88 22.09 7.88 25.81 7.88 29.53C7.85376 29.6317 7.8025 29.7252 7.73089 29.8021C7.65929 29.8789 7.5696 29.9367 7.47 29.97C6.28 30 5.18 30 4 30V17.88Z" fill="black"/>
<path d="M17.83 30.0001V17.9301H21.69V18.7101C21.69 22.2301 21.69 25.7101 21.69 29.2601C21.69 29.8101 21.54 30.0201 20.96 30.0001C19.96 30.0001 18.93 30.0001 17.83 30.0001Z" fill="black"/>
<path d="M26.66 2.00002C26.3306 1.99588 26.0063 2.08119 25.7216 2.24688C25.4369 2.41256 25.2026 2.6524 25.0435 2.94083C24.8844 3.22925 24.8065 3.55544 24.8182 3.88463C24.83 4.21381 24.9308 4.53364 25.11 4.81002C25.1209 4.9901 25.0829 5.16979 25 5.33002C23.57 7.33002 22.11 9.33002 20.66 11.33C20.4876 11.4259 20.3024 11.4966 20.11 11.54C19.9835 11.5297 19.8565 11.5297 19.73 11.54C19.3158 11.5412 18.9141 11.6822 18.59 11.94C18.4745 11.9629 18.3555 11.9629 18.24 11.94L18.13 11.86C17.06 11.21 15.98 10.57 14.93 9.86002C14.7627 9.72948 14.6518 9.53982 14.62 9.33002C14.625 9.27012 14.625 9.20992 14.62 9.15002C14.62 8.66468 14.4272 8.19921 14.084 7.85602C13.7408 7.51283 13.2753 7.32002 12.79 7.32002C12.3047 7.32002 11.8392 7.51283 11.496 7.85602C11.1528 8.19921 10.96 8.66468 10.96 9.15002C10.9503 9.26315 10.9503 9.37689 10.96 9.49002C10.9075 9.63676 10.8137 9.76523 10.69 9.86002C9.69 10.55 8.56 11.21 7.48 11.86C7.28092 11.9444 7.05988 11.9619 6.85 11.91C6.55614 11.7058 6.20782 11.5943 5.85 11.59C5.48525 11.5921 5.12933 11.7024 4.82745 11.9072C4.52557 12.1119 4.29136 12.4018 4.15455 12.7399C4.01775 13.078 3.98453 13.4492 4.05912 13.8062C4.13371 14.1633 4.31274 14.4901 4.57346 14.7452C4.83419 15.0003 5.16485 15.1721 5.52344 15.2389C5.88204 15.3057 6.25239 15.2644 6.58745 15.1202C6.92251 14.976 7.20716 14.7355 7.40526 14.4293C7.60335 14.123 7.70594 13.7647 7.7 13.4C7.70549 13.3301 7.70549 13.2599 7.7 13.19C7.75205 12.962 7.87875 12.7579 8.06 12.61C9.06 11.95 10.11 11.31 11.16 10.72C11.337 10.6347 11.5353 10.6034 11.73 10.63C12.0632 10.873 12.4686 10.9962 12.8807 10.9799C13.2927 10.9636 13.6871 10.8086 14 10.54C14.2063 10.5354 14.4078 10.6025 14.57 10.73C15.57 11.34 16.57 11.96 17.57 12.55C17.7446 12.6344 17.8856 12.7754 17.97 12.95C17.9597 13.0765 17.9597 13.2036 17.97 13.33C17.9647 13.618 18.0275 13.9031 18.1533 14.1623C18.279 14.4214 18.4641 14.6472 18.6936 14.8213C18.923 14.9954 19.1903 15.1128 19.4737 15.1641C19.7571 15.2154 20.0487 15.1991 20.3246 15.1165C20.6005 15.0339 20.853 14.8873 21.0616 14.6887C21.2702 14.4901 21.429 14.2451 21.525 13.9735C21.621 13.702 21.6516 13.4116 21.6142 13.126C21.5769 12.8405 21.4726 12.5677 21.31 12.33C21.3243 12.1343 21.4014 11.9483 21.53 11.8C22.89 9.82002 24.28 7.85002 25.75 5.90002C25.8721 5.76807 26.0226 5.6655 26.19 5.60002C26.3433 5.64088 26.5014 5.66106 26.66 5.66002C27.1453 5.66002 27.6108 5.46722 27.954 5.12403C28.2972 4.78084 28.49 4.31537 28.49 3.83002C28.49 3.34468 28.2972 2.87921 27.954 2.53602C27.6108 2.19283 27.1453 2.00002 26.66 2.00002ZM6.97 13.4C6.94381 13.6749 6.81608 13.9302 6.61175 14.116C6.40742 14.3018 6.14117 14.4048 5.865 14.4048C5.58883 14.4048 5.32257 14.3018 5.11824 14.116C4.91391 13.9302 4.78618 13.6749 4.76 13.4C4.74534 13.2461 4.763 13.0908 4.81187 12.9441C4.86073 12.7973 4.93971 12.6624 5.04374 12.548C5.14778 12.4336 5.27457 12.3422 5.416 12.2796C5.55742 12.2171 5.71036 12.1848 5.865 12.1848C6.01964 12.1848 6.17257 12.2171 6.314 12.2796C6.45542 12.3422 6.58222 12.4336 6.68625 12.548C6.79029 12.6624 6.86927 12.7973 6.91813 12.9441C6.96699 13.0908 6.98466 13.2461 6.97 13.4ZM12.8 10.25C12.5796 10.252 12.3636 10.1883 12.1796 10.0671C11.9955 9.94592 11.8517 9.77267 11.7665 9.56944C11.6812 9.36621 11.6584 9.1422 11.7009 8.92596C11.7434 8.70971 11.8493 8.51101 12.0052 8.35518C12.161 8.19934 12.3597 8.09342 12.5759 8.05091C12.7922 8.0084 13.0162 8.03123 13.2194 8.11648C13.4226 8.20173 13.5959 8.34554 13.7171 8.52961C13.8383 8.71367 13.902 8.92965 13.9 9.15002C13.8974 9.44095 13.7807 9.71923 13.5749 9.92496C13.3692 10.1307 13.0909 10.2474 12.8 10.25ZM19.73 14.44C19.5105 14.44 19.2959 14.3749 19.1133 14.253C18.9308 14.131 18.7885 13.9576 18.7045 13.7548C18.6205 13.552 18.5985 13.3288 18.6413 13.1135C18.6842 12.8982 18.7899 12.7004 18.9451 12.5451C19.1003 12.3899 19.2981 12.2842 19.5134 12.2414C19.7288 12.1985 19.952 12.2205 20.1548 12.3045C20.3576 12.3885 20.531 12.5308 20.6529 12.7133C20.7749 12.8959 20.84 13.1105 20.84 13.33C20.84 13.6244 20.7231 13.9067 20.5149 14.1149C20.3067 14.3231 20.0244 14.44 19.73 14.44ZM26.66 4.94002C26.5061 4.95468 26.3507 4.93702 26.204 4.88815C26.0573 4.83929 25.9224 4.76031 25.808 4.65628C25.6936 4.55224 25.6022 4.42545 25.5396 4.28402C25.4771 4.1426 25.4448 3.98966 25.4448 3.83502C25.4448 3.68038 25.4771 3.52745 25.5396 3.38602C25.6022 3.2446 25.6936 3.1178 25.808 3.01377C25.9224 2.90973 26.0573 2.83075 26.204 2.78189C26.3507 2.73303 26.5061 2.71536 26.66 2.73002C26.9349 2.75621 27.1902 2.88394 27.376 3.08827C27.5618 3.2926 27.6648 3.55885 27.6648 3.83502C27.6648 4.11119 27.5618 4.37745 27.376 4.58178C27.1902 4.78611 26.9349 4.91384 26.66 4.94002Z" fill="black"/>
</g>
<defs>
<clipPath id="clip0_612_114">
<rect width="24.57" height="28" fill="white" transform="translate(4 2)"/>
</clipPath>
</defs>
</svg>
