<svg width="29" height="28" viewBox="0 0 29 28" fill="none" xmlns="http://www.w3.org/2000/svg">
<g clip-path="url(#clip0_612_360)">
<path d="M2.57 3.50001C2.57 3.90001 2.57 4.26001 2.65 4.61001C2.70375 5.02441 2.90738 5.40479 3.22243 5.67931C3.53748 5.95382 3.94214 6.10348 4.36 6.10001C4.77691 6.10197 5.18051 5.95332 5.49654 5.68139C5.81256 5.40946 6.01976 5.03255 6.08 4.62001C6.08 4.26001 6.14 3.90001 6.16 3.52001H16.58C16.58 3.90001 16.63 4.26001 16.67 4.62001C16.7251 5.03582 16.9294 5.41745 17.2449 5.69387C17.5604 5.9703 17.9656 6.12269 18.385 6.12269C18.8045 6.12269 19.2096 5.9703 19.5251 5.69387C19.8406 5.41745 20.0449 5.03582 20.1 4.62001C20.1 4.27001 20.15 3.91001 20.18 3.56001C20.4407 3.48006 20.7149 3.45424 20.9859 3.48414C21.2569 3.51405 21.5189 3.59904 21.7558 3.7339C21.9928 3.86876 22.1996 4.05064 22.3637 4.26837C22.5278 4.4861 22.6457 4.73508 22.71 5.00001C22.7197 5.06967 22.7197 5.14035 22.71 5.21001V12C22.71 12.06 22.71 12.11 22.71 12.19H21.01C21.01 12.09 21.01 11.99 21.01 11.9C21.01 10.9 21.01 9.96001 21.01 9.00001C21.01 8.77001 20.95 8.70001 20.72 8.70001H2.01C1.75 8.70001 1.7 8.79001 1.7 9.02001C1.7 12.8733 1.7 16.7233 1.7 20.57C1.7 20.93 1.77 21 2.15 21H12.15V22.7H1.77C1.31854 22.6838 0.889012 22.5013 0.564087 22.1874C0.239161 21.8736 0.0418045 21.4506 0.0100021 21V5.29001C0.0226296 4.81926 0.215272 4.37126 0.548264 4.03827C0.881256 3.70528 1.32925 3.51264 1.8 3.50001H2.57Z" fill="black"/>
<path d="M21.01 28C19.6417 27.9981 18.304 27.5952 17.1622 26.8412C16.0204 26.0871 15.1247 25.015 14.5857 23.7573C14.0467 22.4996 13.8882 21.1116 14.1296 19.7648C14.3711 18.4179 15.002 17.1714 15.9443 16.1793C16.8866 15.1872 18.099 14.493 19.4316 14.1825C20.7642 13.8721 22.1586 13.959 23.4423 14.4326C24.7261 14.9061 25.8429 15.7455 26.6547 16.8469C27.4665 17.9484 27.9377 19.2636 28.01 20.63C28.0603 21.5799 27.9164 22.5301 27.5872 23.4225C27.258 24.315 26.7504 25.131 26.0953 25.8207C25.4402 26.5104 24.6514 27.0594 23.7771 27.4341C22.9028 27.8088 21.9612 28.0013 21.01 28ZM21.01 26.25C22.0484 26.25 23.0634 25.9421 23.9267 25.3652C24.7901 24.7883 25.463 23.9684 25.8604 23.0091C26.2577 22.0498 26.3617 20.9942 26.1591 19.9758C25.9566 18.9574 25.4565 18.0219 24.7223 17.2877C23.9881 16.5535 23.0526 16.0534 22.0342 15.8509C21.0158 15.6483 19.9602 15.7523 19.0009 16.1496C18.0416 16.547 17.2217 17.2199 16.6448 18.0833C16.0679 18.9466 15.76 19.9616 15.76 21C15.7587 21.6898 15.8936 22.3731 16.1569 23.0106C16.4203 23.6482 16.807 24.2275 17.2948 24.7152C17.7825 25.203 18.3618 25.5897 18.9994 25.853C19.6369 26.1164 20.3202 26.2513 21.01 26.25Z" fill="black"/>
<path d="M3.52 14V10.53H6.95V14H3.52Z" fill="black"/>
<path d="M8.78 10.52H12.21V14H8.78V10.52Z" fill="black"/>
<path d="M17.47 14H14.01V10.53H17.44L17.47 14Z" fill="black"/>
<path d="M7.01 15.79V19.22H3.53V15.79H7.01Z" fill="black"/>
<path d="M12.21 19.22H8.78V15.79H12.21V19.22Z" fill="black"/>
<path d="M5.22 2.60999V4.41999C5.22313 4.52934 5.20323 4.63813 5.16158 4.73929C5.11993 4.84045 5.05747 4.93171 4.97825 5.00716C4.89903 5.0826 4.80483 5.14054 4.70176 5.17721C4.59869 5.21388 4.48907 5.22845 4.38 5.21999C4.26942 5.23286 4.15737 5.22191 4.05138 5.18787C3.94539 5.15384 3.84791 5.09751 3.7655 5.02267C3.68308 4.94784 3.61764 4.85623 3.57357 4.754C3.5295 4.65177 3.50782 4.54129 3.51 4.42999V0.789993C3.50782 0.678692 3.5295 0.568215 3.57357 0.465987C3.61764 0.363759 3.68308 0.272149 3.7655 0.197313C3.84791 0.122477 3.94539 0.0661485 4.05138 0.032114C4.15737 -0.00192048 4.26942 -0.0128728 4.38 -6.72182e-06C4.48907 -0.00846665 4.59869 0.00611065 4.70176 0.0427784C4.80483 0.0794462 4.89903 0.137384 4.97825 0.21283C5.05747 0.288275 5.11993 0.37954 5.16158 0.480698C5.20323 0.581855 5.22313 0.690642 5.22 0.799993V2.60999Z" fill="black"/>
<path d="M19.24 2.61001V4.42001C19.2414 4.52629 19.2213 4.63177 19.181 4.73011C19.1406 4.82845 19.0808 4.91764 19.0052 4.99233C18.9296 5.06703 18.8396 5.12569 18.7408 5.16481C18.642 5.20393 18.5363 5.22271 18.43 5.22001C18.3172 5.23405 18.2027 5.22421 18.094 5.19111C17.9853 5.15801 17.8847 5.10239 17.7989 5.02788C17.713 4.95337 17.6439 4.86163 17.5958 4.75862C17.5478 4.65562 17.5219 4.54365 17.52 4.43001V0.840006C17.5134 0.723618 17.5323 0.607196 17.5755 0.498888C17.6186 0.390581 17.6848 0.293005 17.7696 0.21299C17.8544 0.132975 17.9556 0.0724547 18.0663 0.0356649C18.1769 -0.00112479 18.2942 -0.0132949 18.41 6.10342e-06C18.5218 -0.00752905 18.6339 0.00911487 18.7387 0.0488049C18.8435 0.0884949 18.9385 0.150299 19.0173 0.23001C19.096 0.309721 19.1567 0.405466 19.1951 0.510729C19.2336 0.615991 19.2489 0.728299 19.24 0.840006V2.61001Z" fill="black"/>
<path d="M20.38 22.37L20.61 22.15L23.42 19.35C23.5219 19.2249 23.6563 19.1303 23.8084 19.0764C23.9605 19.0225 24.1244 19.0115 24.2824 19.0445C24.4403 19.0775 24.5861 19.1534 24.7039 19.2637C24.8216 19.374 24.9068 19.5146 24.95 19.67C25.0032 19.8206 25.0106 19.9835 24.9715 20.1383C24.9324 20.293 24.8483 20.4328 24.73 20.54C23.49 21.7933 22.25 23.04 21.01 24.28C20.8439 24.4413 20.6215 24.5315 20.39 24.5315C20.1585 24.5315 19.9361 24.4413 19.77 24.28C18.9367 23.4267 18.1133 22.6 17.3 21.8C17.2144 21.7179 17.1463 21.6193 17.0998 21.5102C17.0532 21.401 17.0292 21.2836 17.0292 21.165C17.0292 21.0464 17.0532 20.929 17.0998 20.8198C17.1463 20.7107 17.2144 20.6121 17.3 20.53C17.4725 20.3578 17.7063 20.2611 17.95 20.2611C18.1937 20.2611 18.4275 20.3578 18.6 20.53L20.38 22.37Z" fill="black"/>
</g>
<defs>
<clipPath id="clip0_612_360">
<rect width="28.02" height="28" fill="white"/>
</clipPath>
</defs>
</svg>
