<svg width="32" height="32" viewBox="0 0 32 32" fill="none" xmlns="http://www.w3.org/2000/svg">
<g clip-path="url(#clip0_612_379)">
<path d="M12.5583 15.7678C9.65971 12.6889 9.43609 9.36765 11.9581 6.83846C13.0435 5.74382 14.5152 5.11891 16.0566 5.09813C17.5981 5.07735 19.0861 5.66237 20.2007 6.72737C22.7847 9.19019 22.6043 12.5172 19.6784 15.8068C21.2651 16.3905 22.6765 17.3699 23.7787 18.6519C25.2968 20.3823 26.1476 22.5975 26.1781 24.8992C26.1896 25.5008 26.1781 26.101 26.1781 26.7012C26.1781 27.6477 25.9342 27.8987 24.9921 27.9001C22.3504 27.9001 19.7072 27.9001 17.0641 27.9001H7.33107C6.32113 27.9001 6.10759 27.6751 6.08595 26.6897C6.047 24.8357 6.06287 22.9904 6.84486 21.2504C7.93415 18.8265 9.67559 17.0577 12.1197 15.9929C12.2495 15.9352 12.3822 15.8818 12.5121 15.8241C12.5352 15.8169 12.5453 15.7851 12.5583 15.7678ZM7.7235 26.2309H24.4179C24.6055 22.7076 23.4527 19.8567 20.4329 18.0229C17.494 16.2396 14.4353 16.2627 11.5252 18.1181C8.61514 19.9735 7.45803 22.7754 7.7235 26.2309ZM11.7489 10.8407C11.7557 11.9688 12.2101 13.048 13.0123 13.8412C13.8144 14.6344 14.8986 15.0767 16.0267 15.071C18.4232 15.071 20.4084 13.1347 20.3796 10.8148C20.3521 8.52507 18.3496 6.58165 16.0354 6.60041C13.6706 6.62061 11.7503 8.5193 11.7489 10.8407Z" fill="black"/>
<path d="M27.6742 24.7303L27.5487 23.3294L28.3971 23.2529C28.902 20.6242 27.0986 17.6953 24.366 16.6638C24.1207 16.5714 23.8264 16.5426 23.6345 16.3867C23.3791 16.179 23.0458 15.8818 23.0343 15.6105C23.0227 15.3393 23.3228 14.967 23.5796 14.817C25.1249 13.9311 25.8232 12.2676 25.1407 10.7325C24.9084 10.2073 24.5261 9.58837 24.0471 9.36618C23.0285 8.89295 22.838 7.91186 22.2119 7.05774C24.1394 7.22077 25.5303 8.04027 26.3555 9.65474C27.3958 11.6746 26.9976 13.5502 25.5274 15.2902C26.7886 15.9344 27.8726 16.8781 28.6842 18.0387C29.9221 19.8451 30.127 21.8722 29.9466 23.9541C29.9235 24.2297 29.4748 24.5976 29.156 24.6899C28.7145 24.8241 28.211 24.7303 27.6742 24.7303Z" fill="black"/>
<path d="M3.70681 23.2587L4.54939 23.3121L4.40511 24.879C3.8381 24.879 3.29273 24.9193 2.75602 24.8689C2.21931 24.8184 2.04906 24.41 2.01876 23.8935C1.79513 20.174 2.98542 17.2034 6.49137 15.4504C5.03128 13.7407 4.60422 11.8766 5.65745 9.8452C6.48849 8.24227 7.85913 7.39247 9.79245 7.2179C9.17494 8.08356 8.91091 8.97664 7.98176 9.55375C6.0571 10.7513 6.19849 13.6137 8.13325 14.8011C8.29629 14.9021 8.5228 14.9454 8.62524 15.0897C8.79548 15.3191 9.03211 15.6437 8.97584 15.8601C8.92096 16.0038 8.83431 16.1332 8.72238 16.2386C8.61046 16.344 8.47613 16.4228 8.32947 16.469C5.3963 17.1731 3.32303 20.1495 3.70681 23.2587Z" fill="black"/>
</g>
<defs>
<clipPath id="clip0_612_379">
<rect width="28" height="22.806" fill="white" transform="translate(2 5.09702)"/>
</clipPath>
</defs>
</svg>
