<svg width="32" height="32" viewBox="0 0 32 32" fill="none" xmlns="http://www.w3.org/2000/svg">
<mask id="mask0" style="mask-type:luminance" maskUnits="userSpaceOnUse" x="0" y="0" width="32" height="32">
<rect width="32" height="32" fill="white"/>
</mask>
<g mask="url(#mask0_612_4155)">
<path d="M13.6704 7.84579L14.0416 13.3657L14.2259 16.1401C14.2279 16.4255 14.2725 16.7089 14.3588 16.9813C14.5813 17.5101 15.1168 17.8461 15.6993 17.8227L24.5756 17.242C24.96 17.2357 25.3312 17.3795 25.6075 17.6417C25.8377 17.8603 25.9864 18.1461 26.0333 18.4536L26.0491 18.6403C25.6817 23.7265 21.9461 27.9689 16.8704 29.064C11.7946 30.1591 6.58967 27.8457 4.08147 23.3799C3.35837 22.0824 2.90672 20.6564 2.75303 19.1853C2.68883 18.7499 2.66056 18.31 2.66849 17.87C2.66056 12.417 6.54382 7.70262 11.9796 6.5661C12.6339 6.46422 13.2752 6.81057 13.5376 7.40738C13.6055 7.54559 13.6503 7.69362 13.6704 7.84579Z" stroke="white" stroke-width="1.5"/>
<path d="M30.3054 12.4164L30.2961 12.4598L30.2691 12.523L30.2729 12.6965C30.259 12.9263 30.1702 13.1473 30.0174 13.326C29.8581 13.512 29.6405 13.6387 29.4009 13.6879L29.2547 13.7079L19.0137 14.3715C18.673 14.4051 18.3338 14.2952 18.0806 14.0693C17.8694 13.8809 17.7345 13.6268 17.6963 13.3529L17.009 3.12675C16.997 3.09217 16.997 3.05469 17.009 3.02011C17.0183 2.73823 17.1425 2.47179 17.3535 2.28031C17.5645 2.08883 17.845 1.98827 18.1321 2.00109C24.2119 2.15577 29.3218 6.52772 30.3054 12.4164Z" stroke="white" stroke-width="1.5"/>
</g>
</svg>
