<svg width="32" height="32" viewBox="0 0 32 32" fill="none" xmlns="http://www.w3.org/2000/svg">
<rect x="0.5" y="0.5" width="31" height="31" rx="4.5" fill="white"/>
<rect x="0.5" y="0.5" width="31" height="31" rx="4.5" stroke="#EDEBEB"/>
<path d="M14 9.5H18C18 8.96957 17.7893 8.46086 17.4142 8.08579C17.0391 7.71071 16.5304 7.5 16 7.5C15.4696 7.5 14.9609 7.71071 14.5858 8.08579C14.2107 8.46086 14 8.96957 14 9.5ZM12.5 9.5C12.5 9.04037 12.5905 8.58525 12.7664 8.16061C12.9423 7.73597 13.2001 7.35013 13.5251 7.02513C13.8501 6.70012 14.236 6.44231 14.6606 6.26642C15.0852 6.09053 15.5404 6 16 6C16.4596 6 16.9148 6.09053 17.3394 6.26642C17.764 6.44231 18.1499 6.70012 18.4749 7.02513C18.7999 7.35013 19.0577 7.73597 19.2336 8.16061C19.4095 8.58525 19.5 9.04037 19.5 9.5H25.25C25.4489 9.5 25.6397 9.57902 25.7803 9.71967C25.921 9.86032 26 10.0511 26 10.25C26 10.4489 25.921 10.6397 25.7803 10.7803C25.6397 10.921 25.4489 11 25.25 11H23.93L22.76 23.111C22.6702 24.039 22.238 24.9002 21.5477 25.5268C20.8573 26.1534 19.9583 26.5004 19.026 26.5H12.974C12.0419 26.5001 11.1431 26.153 10.4529 25.5265C9.7628 24.8999 9.33073 24.0388 9.241 23.111L8.07 11H6.75C6.55109 11 6.36032 10.921 6.21967 10.7803C6.07902 10.6397 6 10.4489 6 10.25C6 10.0511 6.07902 9.86032 6.21967 9.71967C6.36032 9.57902 6.55109 9.5 6.75 9.5H12.5ZM14.5 14.25C14.5 14.0511 14.421 13.8603 14.2803 13.7197C14.1397 13.579 13.9489 13.5 13.75 13.5C13.5511 13.5 13.3603 13.579 13.2197 13.7197C13.079 13.8603 13 14.0511 13 14.25V21.75C13 21.9489 13.079 22.1397 13.2197 22.2803C13.3603 22.421 13.5511 22.5 13.75 22.5C13.9489 22.5 14.1397 22.421 14.2803 22.2803C14.421 22.1397 14.5 21.9489 14.5 21.75V14.25ZM18.25 13.5C18.0511 13.5 17.8603 13.579 17.7197 13.7197C17.579 13.8603 17.5 14.0511 17.5 14.25V21.75C17.5 21.9489 17.579 22.1397 17.7197 22.2803C17.8603 22.421 18.0511 22.5 18.25 22.5C18.4489 22.5 18.6397 22.421 18.7803 22.2803C18.921 22.1397 19 21.9489 19 21.75V14.25C19 14.0511 18.921 13.8603 18.7803 13.7197C18.6397 13.579 18.4489 13.5 18.25 13.5Z" fill="#EB5757"/>
</svg>
