<svg width="814" height="233" viewBox="0 0 814 233" fill="none" xmlns="http://www.w3.org/2000/svg">
<g clip-path="url(#clip0_2523_574)">
<path d="M256.56 3.30004V25.23C256.555 27.5129 255.646 29.7008 254.033 31.3159C252.42 32.9311 250.233 33.8421 247.95 33.85H226.01C225.135 33.85 224.295 33.5024 223.677 32.8835C223.058 32.2646 222.71 31.4253 222.71 30.55V5.31004C222.707 4.61198 222.843 3.9203 223.109 3.27486C223.375 2.62943 223.766 2.04301 224.259 1.54941C224.753 1.0558 225.339 0.664773 225.985 0.398857C226.63 0.132941 227.322 -0.00260624 228.02 3.79529e-05H253.26C254.135 3.79529e-05 254.975 0.347721 255.593 0.966591C256.212 1.58546 256.56 2.42483 256.56 3.30004Z" fill="url(#paint0_linear_2523_574)"/>
<path d="M227.92 47.7305V58.8205C227.915 60.3757 227.295 61.8657 226.195 62.9654C225.095 64.0651 223.605 64.6853 222.05 64.6905H210.96C210.122 64.6853 209.32 64.3493 208.728 63.7557C208.136 63.162 207.803 62.3587 207.8 61.5205V50.3805C207.8 48.8387 208.412 47.3599 209.501 46.2687C210.591 45.1775 212.068 44.5632 213.61 44.5605H224.76C225.598 44.5658 226.4 44.9018 226.992 45.4954C227.584 46.0891 227.917 46.8923 227.92 47.7305Z" fill="url(#paint1_linear_2523_574)"/>
<path d="M213.33 16.7603V31.0503C213.331 31.9927 213.147 32.9262 212.787 33.7972C212.427 34.6683 211.899 35.4599 211.233 36.1267C210.567 36.7936 209.777 37.3226 208.906 37.6836C208.036 38.0445 207.102 38.2303 206.16 38.2303H191.83C190.918 38.2303 190.043 37.8679 189.397 37.2228C188.752 36.5776 188.39 35.7027 188.39 34.7903V20.5003C188.39 18.5961 189.146 16.7698 190.493 15.4233C191.839 14.0768 193.666 13.3203 195.57 13.3203H209.89C210.802 13.3203 211.677 13.6827 212.322 14.3279C212.968 14.973 213.33 15.848 213.33 16.7603Z" fill="url(#paint2_linear_2523_574)"/>
<path d="M205.69 77.8504C205.61 77.7304 205.53 77.6104 205.44 77.5004V86.0504C205.44 88.9678 204.281 91.7657 202.218 93.8286C200.155 95.8915 197.357 97.0504 194.44 97.0504H189.01C178.746 97.0452 168.89 101.067 161.56 108.25L161.25 108.56L160.49 109.34C162.009 114.028 162.752 118.933 162.69 123.86C162.585 128.425 162.066 132.97 161.14 137.44C157.807 155.007 149.523 168.674 136.29 178.44C123.057 188.207 106.39 193.097 86.2899 193.11H61.1399L83.49 81.7304H108.96C120.38 81.7304 130.047 83.3504 137.96 86.5904C138.19 86.3804 138.4 86.1704 138.62 85.9504L138.95 85.6304C146.746 77.6627 151.111 66.958 151.11 55.8104V52.1604C151.112 49.7495 151.906 47.406 153.37 45.4904C142.438 43.1179 131.276 41.9708 120.09 42.0704H38.4199L-0.0900879 232.77H81.6899C104.457 232.77 125.313 228.77 144.26 220.77C163.207 212.77 178.837 201.544 191.15 187.09C203.333 172.878 211.626 155.752 215.22 137.38C216.521 130.846 217.25 124.211 217.4 117.55C217.387 102.404 213.483 89.1704 205.69 77.8504Z" fill="url(#paint3_linear_2523_574)"/>
<path d="M200.89 52.2204V86.0504C200.89 87.7531 200.214 89.386 199.01 90.59C197.806 91.794 196.173 92.4704 194.47 92.4704H189.04C177.684 92.4416 166.765 96.8478 158.61 104.75L158.35 105.01L158.19 105.17C158.19 105.23 158.08 105.28 158.02 105.34C149.688 113.786 145.039 125.187 145.09 137.05V157.32C145.087 159.024 144.409 160.657 143.203 161.861C141.998 163.064 140.364 163.74 138.66 163.74H91.5599C89.8546 163.74 88.2192 163.063 87.0133 161.857C85.8074 160.651 85.1299 159.016 85.1299 157.31V108.05C85.1299 107.206 85.2964 106.371 85.6196 105.591C85.9429 104.812 86.4166 104.103 87.0138 103.507C87.611 102.911 88.32 102.438 89.1001 102.116C89.8802 101.794 90.716 101.629 91.5599 101.63H111.79C123.076 101.66 133.917 97.2279 141.95 89.3004L142.11 89.1404L142.28 88.9604L142.48 88.7604C151.043 79.9693 155.821 68.1729 155.79 55.9004V52.2504C155.79 51.1825 156.056 50.1315 156.564 49.1922C157.072 48.2529 157.806 47.455 158.7 46.8704C159.744 46.1807 160.969 45.8153 162.22 45.8204H194.47C196.168 45.823 197.797 46.4975 199 47.6966C200.202 48.8957 200.882 50.522 200.89 52.2204Z" fill="url(#paint4_linear_2523_574)"/>
<path d="M323.35 39.4406C328.166 41.6926 332.207 45.3223 334.96 49.8706C337.717 54.6527 339.101 60.1026 338.96 65.6206C338.905 68.2527 338.651 70.8769 338.2 73.4706C337.018 80.5938 334.163 87.335 329.87 93.1406C325.651 98.8428 320.094 103.42 313.69 106.471C306.92 109.674 299.509 111.292 292.02 111.201H263.69L277.03 35.7306H305.3C311.521 35.5682 317.697 36.8375 323.35 39.4406ZM310.93 89.7006C315.517 85.8273 318.383 80.4173 319.53 73.4706C319.854 71.6947 320.035 69.8955 320.07 68.0906C320.07 62.7906 318.457 58.6873 315.23 55.7806C312.003 52.874 307.417 51.424 301.47 51.4306H292.69L284.95 95.5106H293.65C300.59 95.5106 306.35 93.574 310.93 89.7006Z" fill="#184291"/>
<path d="M373.61 35.7305L360.28 111.2H341.9L355.23 35.7305H373.61Z" fill="#184291"/>
<path d="M441.13 111.2H422.75L400.28 64.6505L392 111.2H373.61L386.95 35.7305H405.33L427.8 82.5005L436.08 35.7305H454.47L441.13 111.2Z" fill="#184291"/>
<path d="M464.38 53.4207C468.578 47.625 474.102 42.9174 480.489 39.6905C486.877 36.4636 493.944 34.8111 501.1 34.8707C510.127 34.8707 517.383 37.0574 522.87 41.4307C528.357 45.804 531.357 51.8607 531.87 59.6007H511.65C510.774 57.1527 509.036 55.1083 506.76 53.8507C504.134 52.4468 501.186 51.7571 498.21 51.8507C492.537 51.7446 487.044 53.8456 482.89 57.7107C478.63 61.6107 475.927 66.824 474.78 73.3507C474.448 75.1962 474.268 77.0658 474.24 78.9407C474.24 84.274 475.78 88.3607 478.86 91.2007C481.94 94.0407 486.313 95.474 491.98 95.5007C496.29 95.5807 500.523 94.3611 504.13 92.0007C507.791 89.499 510.722 86.0684 512.62 82.0607H489.4L491.66 68.6207H531.66L528.66 85.7107C526.379 90.4881 523.268 94.8222 519.47 98.5107C515.36 102.523 510.556 105.756 505.29 108.051C499.739 110.503 493.729 111.747 487.66 111.701C481.72 111.833 475.836 110.526 470.51 107.891C465.779 105.509 461.852 101.788 459.22 97.1907C456.528 92.2951 455.176 86.776 455.3 81.1907C455.35 78.5588 455.601 75.9345 456.05 73.3407C457.241 66.1436 460.093 59.3232 464.38 53.4207Z" fill="#184291"/>
<path d="M645.29 35.7305L612.29 111.2H590.03L586.69 61.6405L565.51 111.2H543.25L537.45 35.7305H557.12L558.3 90.6705L581.42 35.7305H601.74L604.97 90.3505L625.5 35.7305H645.29Z" fill="#184291"/>
<path d="M675.08 97.8705H646.92L640.04 111.2H620.79L661.43 35.7305H682.69L696.69 111.2H677.22L675.08 97.8705ZM672.93 83.8705L668.53 55.8705L654.12 83.8705H672.93Z" fill="#184291"/>
<path d="M771.52 111.2H753.14L730.69 64.6505L722.42 111.2H704.03L717.36 35.7305H735.69L758.16 82.5005L766.44 35.7305H784.82L771.52 111.2Z" fill="#184291"/>
<path d="M813.69 35.7305L800.36 111.2H781.97L795.31 35.7305H813.69Z" fill="#184291"/>
<path d="M273.23 162.12C277.559 156.12 283.243 151.228 289.82 147.84C296.419 144.426 303.75 142.669 311.18 142.72C320.547 142.72 328.137 145.193 333.95 150.14C339.763 155.087 343.04 161.833 343.78 170.38H322.69C321.859 167.361 319.962 164.746 317.35 163.02C314.502 161.259 311.197 160.379 307.85 160.49C302.105 160.416 296.564 162.62 292.44 166.62C288.1 170.7 285.327 176.15 284.12 182.97C283.776 184.787 283.589 186.631 283.56 188.48C283.56 193.733 285.023 197.893 287.95 200.96C290.877 204.027 294.877 205.563 299.95 205.57C303.539 205.591 307.076 204.703 310.23 202.99C313.461 201.205 316.208 198.658 318.23 195.57H339.37C335.844 203.842 329.923 210.87 322.37 215.75C314.811 220.655 305.97 223.216 296.96 223.11C290.845 223.253 284.787 221.904 279.31 219.18C274.456 216.684 270.446 212.813 267.78 208.05C265.013 202.906 263.635 197.129 263.78 191.29C263.779 188.498 264.043 185.712 264.57 182.97C265.794 175.441 268.76 168.301 273.23 162.12Z" fill="#EE7A04"/>
<path d="M366.33 219.181C361.363 216.501 357.282 212.436 354.58 207.481C351.73 202.164 350.297 196.202 350.42 190.171C350.277 181.567 352.343 173.069 356.42 165.491C360.249 158.407 365.995 152.543 373 148.571C380.359 144.451 388.678 142.357 397.11 142.501C403.282 142.367 409.39 143.776 414.88 146.601C419.858 149.228 423.96 153.253 426.68 158.181C429.52 163.444 430.953 169.351 430.84 175.331C430.972 183.969 428.908 192.499 424.84 200.121C421.016 207.273 415.247 213.197 408.2 217.211C400.792 221.367 392.413 223.482 383.92 223.341C377.798 223.473 371.744 222.041 366.33 219.181ZM399.88 201.751C403.66 199.168 406.673 195.613 408.6 191.461C410.676 187.088 411.732 182.301 411.69 177.461C411.69 172.074 410.19 167.841 407.19 164.761C404.19 161.681 399.993 160.144 394.6 160.151C389.948 160.07 385.38 161.402 381.5 163.971C377.703 166.512 374.66 170.029 372.69 174.151C370.6 178.519 369.543 183.309 369.6 188.151C369.6 193.538 371.1 197.791 374.1 200.911C377.1 204.031 381.333 205.584 386.8 205.571C391.449 205.674 396.017 204.34 399.88 201.751Z" fill="#EE7A04"/>
<path d="M505.34 222.549H486.12L462.62 173.869L453.96 222.549H434.74L448.69 143.619H467.91L491.41 192.529L500.07 143.619H519.29L505.34 222.549Z" fill="#EE7A04"/>
<path d="M589.89 222.549H570.69L547.19 173.869L538.54 222.549H519.31L533.25 143.619H552.48L575.98 192.529L584.63 143.619H603.86L589.89 222.549Z" fill="#EE7A04"/>
<path d="M631.69 158.799L628.88 175.219H654.62L652.04 189.719H626.29L623.14 207.369H652.26L649.56 222.549H601.22L615.16 143.619H663.5L660.81 158.799H631.69Z" fill="#EE7A04"/>
<path d="M673 162.12C677.329 156.12 683.013 151.228 689.59 147.84C696.189 144.426 703.52 142.669 710.95 142.72C720.323 142.72 727.91 145.193 733.71 150.14C739.51 155.087 742.79 161.833 743.55 170.38H722.42C721.589 167.361 719.692 164.746 717.08 163.02C714.232 161.259 710.927 160.379 707.58 160.49C701.835 160.416 696.294 162.62 692.17 166.62C687.823 170.7 685.05 176.15 683.85 182.97C683.506 184.787 683.319 186.631 683.29 188.48C683.29 193.733 684.753 197.893 687.68 200.96C690.607 204.027 694.607 205.563 699.68 205.57C703.269 205.591 706.806 204.703 709.96 202.99C713.191 201.205 715.937 198.658 717.96 195.57H739.1C735.574 203.842 729.653 210.87 722.1 215.75C714.541 220.655 705.7 223.216 696.69 223.11C690.575 223.253 684.517 221.904 679.04 219.18C674.201 216.678 670.205 212.807 667.55 208.05C664.783 202.906 663.405 197.129 663.55 191.29C663.549 188.498 663.813 185.712 664.34 182.97C665.564 175.441 668.53 168.301 673 162.12Z" fill="#EE7A04"/>
<path d="M813.69 143.619L811.11 158.799H790.11L778.87 222.549H759.69L770.94 158.799H750.02L752.72 143.619H813.69Z" fill="#EE7A04"/>
</g>
<defs>
<linearGradient id="paint0_linear_2523_574" x1="228.01" y1="-1.01996" x2="250.57" y2="33.79" gradientUnits="userSpaceOnUse">
<stop stop-color="#EE7902"/>
<stop offset="1" stop-color="#FFE505"/>
</linearGradient>
<linearGradient id="paint1_linear_2523_574" x1="209.63" y1="46.1405" x2="226.07" y2="63.0905" gradientUnits="userSpaceOnUse">
<stop stop-color="#223A8E"/>
<stop offset="1" stop-color="#4494D0"/>
</linearGradient>
<linearGradient id="paint2_linear_2523_574" x1="192.98" y1="13.6203" x2="208.75" y2="37.9604" gradientUnits="userSpaceOnUse">
<stop stop-color="#223A8E"/>
<stop offset="1" stop-color="#4494D0"/>
</linearGradient>
<linearGradient id="paint3_linear_2523_574" x1="52.2799" y1="228.15" x2="146.05" y2="61.1904" gradientUnits="userSpaceOnUse">
<stop stop-color="#223A8E"/>
<stop offset="1" stop-color="#4494D0"/>
</linearGradient>
<linearGradient id="paint4_linear_2523_574" x1="85.1299" y1="104.74" x2="200.89" y2="104.74" gradientUnits="userSpaceOnUse">
<stop stop-color="#223A8E"/>
<stop offset="1" stop-color="#4494D0"/>
</linearGradient>
<clipPath id="clip0_2523_574">
<rect width="813.74" height="232.84" fill="white"/>
</clipPath>
</defs>
</svg>
