<svg width="32" height="32" viewBox="0 0 32 32" fill="none" xmlns="http://www.w3.org/2000/svg">
<rect x="0.5" y="0.5" width="31" height="31" rx="4.5" fill="white"/>
<rect x="0.5" y="0.5" width="31" height="31" rx="4.5" stroke="#EDEBEB"/>
<path d="M10 11.0001H9C8.46957 11.0001 7.96086 11.2108 7.58579 11.5859C7.21071 11.961 7 12.4697 7 13.0001V22.0001C7 22.5306 7.21071 23.0393 7.58579 23.4143C7.96086 23.7894 8.46957 24.0001 9 24.0001H18C18.5304 24.0001 19.0391 23.7894 19.4142 23.4143C19.7893 23.0393 20 22.5306 20 22.0001V21.0001" stroke="#273389" stroke-width="2" stroke-linecap="round" stroke-linejoin="round"/>
<path d="M19 9.00011L22 12.0001M23.385 10.5851C23.7788 10.1913 24.0001 9.65709 24.0001 9.10011C24.0001 8.54312 23.7788 8.00895 23.385 7.61511C22.9912 7.22126 22.457 7 21.9 7C21.343 7 20.8088 7.22126 20.415 7.61511L12 16.0001V19.0001H15L23.385 10.5851Z" stroke="#273389" stroke-width="2" stroke-linecap="round" stroke-linejoin="round"/>
</svg>
