<svg width="28" height="28" viewBox="0 0 28 28" fill="none" xmlns="http://www.w3.org/2000/svg">
<path d="M20.0124 7.91026L20.1283 8.00681C20.1332 7.94576 20.1332 7.88442 20.1283 7.82336L20.0124 7.91026Z" fill="black"/>
<path d="M25.8172 15.2894C25.7977 14.9323 25.7977 14.5744 25.8172 14.2173C25.9125 13.5854 25.8695 12.9403 25.691 12.3266C25.5126 11.7129 25.203 11.1453 24.7837 10.663C24.48 10.3455 24.1154 10.0925 23.7116 9.91931C23.201 9.71769 22.6573 9.61288 22.1083 9.61024H21.239C20.8817 9.61024 20.5147 9.61024 20.1573 9.61024V8.20975C20.1621 8.14223 20.1621 8.07445 20.1573 8.00693L20.0414 7.91034L20.1573 7.82341C20.1854 7.33728 20.0986 6.85135 19.904 6.405C19.7093 5.95865 19.4123 5.56442 19.0369 5.25425C18.6144 5.01875 18.1422 4.88637 17.6588 4.86791C17.1754 4.84945 16.6945 4.94542 16.2553 5.14801C16.3691 4.50943 16.2653 3.85112 15.9606 3.2785C15.6559 2.70587 15.1679 2.25205 14.5747 1.98968C13.0583 1.31358 12.0152 2.2408 11.1652 2.95553L11.0397 3.07143C8.72163 5.14801 6.39393 7.2439 4.04691 9.1756C3.7842 9.38062 3.47619 9.51972 3.14867 9.58126C2.27219 9.68638 1.46591 10.113 0.885996 10.7786C0.306083 11.4442 -0.00619037 12.3013 0.00966005 13.1839C0.00966005 16.8927 0.00966005 20.5952 0.00966005 24.2912C-0.0147024 24.7734 0.061354 25.2554 0.233011 25.7067C0.404668 26.158 0.668183 26.5687 1.00686 26.9128C1.34554 27.257 1.752 27.527 2.2005 27.7058C2.64899 27.8847 3.12974 27.9684 3.61228 27.9517C6.72232 27.9517 9.8227 27.9517 12.9231 27.9517H22.2339C22.706 27.9637 23.1756 27.8794 23.6141 27.7039C24.0525 27.5285 24.4507 27.2655 24.7842 26.9311C25.1176 26.5967 25.3795 26.1979 25.5538 25.759C25.7281 25.32 25.8111 24.8502 25.7979 24.3781C25.7979 23.7986 25.7979 23.2191 25.7979 22.6589V22.2532C26.4462 22.1254 27.0257 21.7655 27.4275 21.2409C27.8294 20.7164 28.0261 20.0632 27.9807 19.404C28.0386 16.7189 27.7006 16.0138 25.8172 15.2894ZM16.9796 6.82859C17.1226 6.73851 17.2856 6.68519 17.4541 6.67339C17.6226 6.6616 17.7914 6.69169 17.9455 6.76098C18.0763 6.86733 18.1797 7.00355 18.247 7.15818C18.3142 7.31281 18.3433 7.48133 18.3318 7.64956C18.3318 8.18078 18.3318 8.712 18.3318 9.25287V9.55229H11.5709L14.1111 8.27736C15.019 7.78478 15.9945 7.2922 16.9796 6.82859ZM7.62056 8.56712C9.4428 6.96381 11.2715 5.37015 13.1066 3.78616C13.2205 3.66726 13.3766 3.59788 13.5412 3.59299C13.6524 3.59945 13.7611 3.62847 13.8608 3.67828C13.9604 3.72809 14.0488 3.79766 14.1207 3.88274C14.2623 4.06523 14.3616 4.27678 14.4117 4.50222C14.4618 4.72766 14.4614 4.96139 14.4105 5.18664C14.3921 5.4244 14.32 5.65488 14.1995 5.86067C14.079 6.06647 13.9134 6.24222 13.7151 6.37464L12.2083 7.14732C11.001 7.76546 9.74543 8.40292 8.48983 8.96312C7.82319 9.23299 7.135 9.44623 6.43256 9.60058L7.62056 8.56712ZM23.9627 24.3877C23.9777 24.6188 23.9441 24.8504 23.8643 25.0678C23.7844 25.2851 23.66 25.4833 23.499 25.6497C23.3381 25.8162 23.1441 25.9471 22.9295 26.0342C22.715 26.1212 22.4846 26.1625 22.2532 26.1553C16.12 26.1553 9.81304 26.1553 3.52536 26.1553C3.30411 26.1619 3.08384 26.1233 2.87809 26.0417C2.67234 25.9601 2.48546 25.8372 2.32895 25.6807C2.17244 25.5242 2.0496 25.3373 1.968 25.1316C1.88639 24.9258 1.84775 24.7056 1.85443 24.4843C1.85443 20.8238 1.85443 17.0087 1.85443 13.1646C1.84743 12.9349 1.88817 12.7062 1.97406 12.4931C2.05995 12.2799 2.18913 12.0869 2.35343 11.9262C2.51774 11.7655 2.71359 11.6407 2.92861 11.5596C3.14363 11.4785 3.37314 11.4429 3.60262 11.455H22.2242C22.4551 11.4455 22.6854 11.4839 22.9007 11.5679C23.1159 11.6519 23.3114 11.7796 23.4748 11.943C23.6382 12.1064 23.7659 12.3019 23.8499 12.5171C23.9339 12.7324 23.9723 12.9627 23.9627 13.1935C23.9627 13.7441 23.9627 14.3043 23.9627 14.8934V15.2701H20.2442C19.9345 15.2284 19.6196 15.2494 19.3182 15.332C19.0168 15.4146 18.7351 15.5571 18.49 15.7509C18.2448 15.9446 18.0412 16.1858 17.8912 16.46C17.7412 16.7342 17.648 17.0357 17.6171 17.3467C17.4471 18.2518 17.4308 19.1791 17.5688 20.0897C17.8199 21.6254 18.6602 22.3112 20.3215 22.3305H23.9724V22.7361C23.9821 23.3253 23.9821 23.8565 23.9627 24.3877ZM26.1456 18.9404C26.1456 20.3602 26.0007 20.505 24.6195 20.505H23.277C22.3111 20.505 21.3453 20.505 20.3794 20.505C19.713 20.505 19.4136 20.2829 19.346 19.6261C19.2784 19.0906 19.2784 18.5487 19.346 18.0131C19.4233 17.3564 19.684 17.0473 20.2635 17.0473H20.4277C20.9682 17.0761 21.5099 17.0761 22.0504 17.0473H23.5088C24.04 17.0473 24.5809 17.0473 25.1121 17.0473C25.8944 17.0473 26.1359 17.3274 26.1649 18.1387C26.1649 18.3125 26.1649 18.4864 26.1649 18.6603L26.1456 18.9404Z" fill="black"/>
<path d="M20.0124 7.91026L20.1283 8.00681C20.1332 7.94576 20.1332 7.88442 20.1283 7.82336L20.0124 7.91026Z" fill="black"/>
<path d="M27.3336 2.8396L27.0245 2.41463L26.0586 1.17834C25.6047 0.569852 25.0928 0 24.407 0C24.0706 0.0551183 23.7508 0.185331 23.4716 0.380966C23.1924 0.576601 22.9608 0.832633 22.7941 1.13004L22.0117 2.23111L21.5964 2.79131C21.1618 3.38048 20.7561 3.95999 20.9783 4.51052C21.2004 5.06106 21.6447 5.20593 22.2339 5.37979C22.1856 6.17178 21.5964 6.67403 20.6306 7.42739L20.1283 7.82339C20.1332 7.88446 20.1332 7.94582 20.1283 8.0069L20.4857 8.29665L21.0362 8.73129C21.3734 8.96918 21.696 9.22721 22.0021 9.50397L22.1276 9.61021C22.6766 9.61285 23.2203 9.71766 23.7309 9.91928C23.9829 9.80253 24.2145 9.646 24.4167 9.45567C25.6008 8.3824 26.3928 6.94457 26.6671 5.37013C27.3142 5.21559 27.7682 4.99345 27.9324 4.5395C28.0966 4.08555 27.8165 3.48672 27.3336 2.8396ZM25.4019 3.88272C25.1613 4.24492 24.9788 4.64249 24.861 5.06106C24.6504 6.21093 24.0625 7.25776 23.1901 8.03587L22.9969 7.90066C24.011 6.40359 24.3587 5.31218 24.0497 4.48155C23.9003 4.1176 23.6217 3.82174 23.2673 3.65091L24.4457 2.07658L25.5854 3.55433L25.4019 3.88272Z" fill="black"/>
<path d="M21.3743 18.3605C21.4913 18.3629 21.6029 18.4105 21.6857 18.4933C21.7685 18.5761 21.8161 18.6876 21.8186 18.8046C21.8186 18.9224 21.7718 19.0354 21.6884 19.1187C21.6051 19.202 21.4921 19.2488 21.3743 19.2488C21.3156 19.2501 21.2572 19.2395 21.2027 19.2176C21.1482 19.1958 21.0987 19.1631 21.0572 19.1216C21.0156 19.0801 20.983 19.0306 20.9611 18.9761C20.9392 18.9216 20.9287 18.8633 20.93 18.8046C20.93 18.6868 20.9768 18.5739 21.0601 18.4906C21.1434 18.4073 21.2564 18.3605 21.3743 18.3605ZM21.3743 17.395C21.0966 17.395 20.8252 17.477 20.5939 17.6307C20.3627 17.7843 20.182 18.0028 20.0745 18.2587C19.9669 18.5146 19.9374 18.7965 19.9895 19.0691C20.0416 19.3418 20.173 19.593 20.3674 19.7912C20.5617 19.9895 20.8102 20.1259 21.0818 20.1836C21.3534 20.2412 21.636 20.2174 21.8941 20.1151C22.1523 20.0128 22.3744 19.8367 22.5328 19.6087C22.6912 19.3807 22.7787 19.1111 22.7844 18.8336C22.7844 18.6485 22.7479 18.4652 22.6771 18.2941C22.6062 18.1231 22.5023 17.9677 22.3714 17.8368C22.2404 17.7059 22.085 17.6021 21.9139 17.5312C21.7428 17.4604 21.5595 17.4239 21.3743 17.4239V17.395Z" fill="black"/>
</svg>
