<svg width="28" height="24" viewBox="0 0 28 24" fill="none" xmlns="http://www.w3.org/2000/svg">
<g clip-path="url(#clip0_612_295)">
<path d="M14 23.99H1.3C0.3 23.99 0 23.65 0 22.68V5.30999C0 4.30999 0.15 4.15999 1 3.87999L13.32 0.109989C13.7583 -0.0349541 14.2317 -0.0349541 14.67 0.109989L26.94 3.87999C27.86 4.15999 28 4.35999 28 5.28999C28 11.09 28 16.88 28 22.66C28 23.66 27.69 23.98 26.68 23.98L14 23.99ZM4 21.99V21.49C4 17.3833 4 13.2767 4 9.16999C4 8.36999 4.36 8.01999 5.16 8.01999H22.79C23.68 8.01999 24 8.34999 24 9.25999V21.99H26V5.68999L14.25 2.09999C14.0306 2.04098 13.7994 2.04098 13.58 2.09999C11.39 2.75999 9.2 3.44999 7 4.09999L2 5.68999V21.99H4ZM6 21.99H8C8 20.99 8 20.1 8 19.17C7.96984 19.0138 7.97738 18.8526 8.022 18.6999C8.06662 18.5472 8.14703 18.4074 8.25656 18.292C8.36608 18.1766 8.50155 18.089 8.65173 18.0365C8.8019 17.9839 8.96243 17.968 9.12 17.99C9.41 17.99 9.69 17.99 10.01 17.99C10.01 16.93 10.01 15.99 10.01 14.99C9.99754 14.8648 10.0112 14.7384 10.05 14.6188C10.0889 14.4991 10.1521 14.3888 10.2358 14.2949C10.3194 14.2009 10.4216 14.1253 10.5359 14.0728C10.6503 14.0203 10.7742 13.9921 10.9 13.99C12.63 13.99 14.35 13.99 16.08 13.99C16.2007 13.9886 16.3205 14.0116 16.4322 14.0574C16.5439 14.1033 16.6452 14.1712 16.7301 14.257C16.815 14.3429 16.8818 14.4449 16.9264 14.5571C16.9711 14.6693 16.9927 14.7893 16.99 14.91C16.99 15.31 16.99 15.71 16.99 16.11V17.99H18.72C19.72 17.99 19.99 18.32 19.99 19.28V21.99H22V9.98999H6V21.99ZM12 15.99V17.99H15V15.99H12ZM15 19.99V21.93H18V19.99H15ZM13 21.99V19.99H10.1V21.99H13Z" fill="black"/>
</g>
<defs>
<clipPath id="clip0_612_295">
<rect width="28" height="23.99" fill="white"/>
</clipPath>
</defs>
</svg>
