<svg width="230" height="85" viewBox="0 0 230 85" fill="none" xmlns="http://www.w3.org/2000/svg">
<path fill-rule="evenodd" clip-rule="evenodd" d="M212.364 28.6369C212.197 28.6019 212.039 28.6194 211.881 28.5931C213.023 22.4804 214.156 16.359 215.299 10.2462C148.875 -2.05801 80.7469 -2.03173 14.3322 10.3075C15.4745 16.4115 16.6169 22.5155 17.7592 28.6194C17.7153 28.6282 17.6801 28.6282 17.6362 28.6282C7.39016 30.5373 0.808435 39.6363 2.86467 48.5251C4.92091 57.4227 14.2355 62.8962 23.7258 61.1359C23.7698 61.1271 23.7961 61.1096 23.8401 61.1009C25.2636 68.7199 26.6872 76.3476 28.1195 83.9666C85.4482 73.3175 144.253 73.3 201.582 83.9053C203.005 76.2688 204.429 68.6411 205.852 61.0045C206.002 61.0396 206.142 61.1009 206.292 61.1271C215.782 62.8874 225.088 57.4227 227.153 48.5164C229.192 39.6363 222.61 30.5373 212.364 28.6369Z" fill="#273389"/>
<path d="M31.0457 80.017L26.7663 57.125L22.7417 57.8956C14.9473 59.1655 7.9877 54.7079 6.44112 47.9997C5.73814 44.9696 6.36204 41.7819 8.18102 39.0058C10.3339 35.7305 13.9543 33.3835 18.1107 32.5603L18.2074 32.5428C18.2777 32.534 18.348 32.5252 18.4271 32.5077L22.0387 31.8422L18.6116 13.5303L19.9209 13.3026C51.239 7.78539 83.2249 4.983 115 4.983C146.652 4.983 178.515 7.75912 209.719 13.2413L211.028 13.469L207.592 31.8859L211.292 32.4902C211.45 32.5165 211.599 32.534 211.757 32.5428L211.924 32.569C216.072 33.401 219.684 35.748 221.828 39.0145C223.656 41.7906 224.271 44.9871 223.576 48.0084C222.197 53.9548 216.555 58.1146 209.851 58.1146C208.972 58.1146 208.076 58.0357 207.206 57.8956L207.047 57.8606C206.889 57.8168 206.74 57.773 206.582 57.738L202.935 57.0024L198.656 79.9732L197.373 79.7455C170.237 75.0165 142.531 72.6169 115.026 72.6169C87.4077 72.6169 59.587 75.034 32.355 79.7981L31.0457 80.017ZM28.8664 54.0511L33.1547 76.9869C60.1318 72.3455 87.6538 69.9897 115 69.9897C142.232 69.9897 169.648 72.3279 196.52 76.9344L200.817 53.8847L207.1 55.1545C207.311 55.1983 207.513 55.2509 207.715 55.3122C208.418 55.426 209.13 55.4873 209.842 55.4873C215.316 55.4873 219.903 52.1682 221.002 47.4217C221.538 45.101 221.046 42.6314 219.622 40.4595C217.873 37.7972 214.912 35.8794 211.476 35.17C211.274 35.1525 211.072 35.1262 210.87 35.0999L204.517 34.0666L207.953 15.6146C177.32 10.3163 146.063 7.62776 115.009 7.62776C83.8313 7.62776 52.4429 10.3338 21.696 15.6759L25.1142 33.9702L18.9016 35.1087C18.7961 35.1262 18.6907 35.1437 18.5852 35.1612C15.1318 35.8531 12.1441 37.7885 10.3866 40.4683C8.96309 42.6401 8.471 45.1097 9.00703 47.4305C10.246 52.7725 15.8612 56.3456 22.2408 55.3297L22.3199 55.3122L28.8664 54.0511Z" fill="#FFE200"/>
<path fill-rule="evenodd" clip-rule="evenodd" d="M51.2302 27.7612C52.2759 32.7792 53.3128 37.7885 54.3585 42.8065C54.6134 42.754 54.8594 42.7014 55.1142 42.6489C54.1476 37.9286 53.1722 33.2083 52.2056 28.4793C52.6889 28.3041 53.1371 28.1815 53.5501 28.094C54.3409 27.9363 54.9736 27.8925 55.4569 27.9538C55.9402 28.0151 56.4499 28.199 56.9859 28.5056C55.8875 28.2516 54.754 28.2341 53.594 28.4618C53.348 28.5143 53.0228 28.5931 52.6274 28.7157C53.5677 33.3397 54.5167 37.9549 55.4569 42.5788C56.4851 42.3686 57.2408 42.1409 57.7417 41.8695C58.2425 41.598 58.6819 41.1864 59.0685 40.6171C60.1494 39.0496 60.4218 36.7113 59.8506 33.5937C59.297 30.5548 58.1634 28.6019 56.4411 27.7787C55.4042 27.2795 53.884 27.2182 51.9069 27.6211C51.6784 27.6648 51.4499 27.7174 51.2302 27.7612ZM51.116 45.7227C51.0193 45.6177 50.9227 45.5126 50.8348 45.4075C52.4956 45.0397 54.1564 44.6894 55.8172 44.3566C58.2689 43.8574 60.0703 43.1743 61.2302 42.2635C63.717 40.3281 64.6397 37.3156 63.9455 33.182C63.4798 30.4147 62.4868 28.4705 60.9578 27.3583C60.7294 27.1919 60.5009 27.0343 60.2724 26.8679C60.246 26.8504 60.1845 26.7979 60.0615 26.7103C62.3199 27.5422 63.717 29.6703 64.2794 33.0507C64.877 36.6062 64.341 39.3911 62.7153 41.4053C61.4675 42.9641 59.2004 44.0413 55.8875 44.7069C54.297 45.0309 52.7065 45.3724 51.116 45.7227ZM46.6169 27.5685C48.5149 27.1482 50.413 26.7453 52.3111 26.36C55.0967 25.7995 57.2671 25.9134 58.7873 26.6665C61.0545 27.7787 62.4341 29.9243 62.9789 33.077C63.5413 36.3435 63.1019 38.8481 61.7047 40.5996C61.0721 41.3878 60.3163 42.0096 59.4376 42.4562C58.5589 42.9028 57.355 43.2707 55.826 43.5772C53.8928 43.9713 51.9596 44.3829 50.0264 44.812C50.5448 44.2077 51.0633 43.6034 51.5905 42.9992C50.5624 38.2614 49.5255 33.5148 48.4974 28.777C47.8735 28.3742 47.2408 27.9714 46.6169 27.5685Z" fill="#FFE200"/>
<path fill-rule="evenodd" clip-rule="evenodd" d="M71.775 23.8466C71.3445 24.372 70.9139 24.8975 70.4921 25.4229C71.1599 30.0294 71.819 34.627 72.4868 39.2335C73.3831 39.9691 74.2794 40.7135 75.1582 41.4579C72.7768 41.7819 70.4042 42.1322 68.0316 42.5088C67.8998 42.4037 67.768 42.2986 67.6274 42.2022C69.8506 41.8432 72.0738 41.5104 74.297 41.2039C73.5765 40.6084 72.8471 40.0129 72.1178 39.4261C71.4323 34.7409 70.7557 30.0469 70.0703 25.3616C70.5448 24.7749 71.0193 24.1969 71.4939 23.6101C71.5817 23.689 71.6784 23.7678 71.775 23.8466ZM64.1037 24.2144C64.8682 24.6698 65.6327 25.1252 66.3884 25.5806C67.1265 30.2833 67.8735 34.9861 68.6116 39.6889C68.0492 40.3106 67.4956 40.9324 66.9508 41.5542C69.0861 41.2039 71.2214 40.8799 73.3568 40.5821C72.7153 40.188 72.065 39.7852 71.406 39.3999C70.7118 34.6971 70.0176 30.0031 69.3146 25.3003C69.8682 24.591 70.4306 23.8816 70.993 23.181C68.7083 23.4875 66.406 23.8378 64.1037 24.2144Z" fill="#FFE200"/>
<path fill-rule="evenodd" clip-rule="evenodd" d="M90.5097 22.0426C90.4306 22.1827 90.3603 22.3315 90.2812 22.4717C89.5431 22.6994 89.0598 23.0409 88.8313 23.5051C88.6028 23.9692 88.5325 24.7223 88.6204 25.7732C89.0246 30.4585 89.4288 35.1525 89.833 39.8377C88.8489 39.9253 87.8559 40.0129 86.8717 40.1092C86.8014 39.9954 86.7311 39.8728 86.6608 39.7589C87.5835 39.6713 88.5062 39.5838 89.4376 39.5049C89.0422 34.9861 88.6468 30.4672 88.2513 25.9484C88.1371 24.661 88.2337 23.759 88.5501 23.2248C88.8576 22.6818 89.5079 22.2878 90.5097 22.0426ZM89.9209 21.0792C87.7065 21.2544 85.4833 21.4558 83.2689 21.6835C84.4113 22.0601 85.1406 22.5067 85.4745 23.0146C85.7996 23.5226 86.0369 24.5647 86.1863 26.141C86.2127 26.3775 86.2302 26.6227 86.2566 26.8592C86.4587 28.9785 86.652 31.1065 86.8541 33.2258C84.754 30.0031 82.5835 26.7979 80.3691 23.6189C80.9315 23.1723 81.4851 22.7256 82.0562 22.279C81.9508 22.2002 81.8541 22.1301 81.7487 22.0513C81.116 22.5505 80.4833 23.0584 79.8506 23.5664C82.2759 26.9993 84.6397 30.4672 86.9332 33.9615C86.9859 34.5044 87.0387 35.0562 87.0914 35.5991C84.4288 31.5181 81.6784 27.4722 78.8313 23.47C79.4728 22.9621 80.1142 22.4542 80.7557 21.9462C78.2865 22.2177 75.826 22.5155 73.3656 22.8395C74.0773 23.2511 74.7891 23.6714 75.5009 24.0918C75.9666 27.7174 76.4236 31.3342 76.8893 34.9598C77.1002 36.5887 77.0562 37.7622 76.775 38.4803C76.4939 39.1984 75.8172 39.829 74.754 40.3807C76.8981 40.0917 79.0334 39.8202 81.1775 39.575C81.4499 39.7939 81.7135 40.0216 81.9772 40.2406C79.6749 40.4945 77.3814 40.7835 75.0791 41.09C75.167 41.2039 75.2636 41.3177 75.3515 41.4228C77.8295 41.09 80.3164 40.7835 82.8032 40.5121C82.355 40.1355 81.9069 39.7589 81.4587 39.3823C80.1933 39.1634 79.3497 38.6993 78.9192 37.9724C78.4886 37.2455 78.1195 35.6341 77.812 33.1558C77.4868 30.5461 77.1617 27.9363 76.8453 25.3266C77.1617 25.7732 77.4868 26.2111 77.8032 26.6577C78.1019 29.1361 78.4007 31.6145 78.7083 34.0928C78.7522 34.5219 78.8049 34.9423 78.8489 35.3714C79.1213 37.6308 79.9209 38.8832 81.2478 39.1546C81.2039 39.1284 81.1687 39.1021 81.1248 39.0758C80.4218 38.7168 79.9209 38.095 79.6221 37.2105C79.4903 36.5624 79.3585 35.9144 79.2179 35.2751C79.2004 35.0737 79.174 34.8635 79.1564 34.6621C78.8577 32.2012 78.5677 29.7404 78.2689 27.2795C81.0281 31.1591 83.6995 35.0737 86.283 39.0233C87.065 38.9445 87.8383 38.8744 88.6204 38.8044C88.2601 34.8022 87.8998 30.7913 87.5395 26.7891C87.5132 26.4913 87.4868 26.1936 87.4605 25.9046C87.3374 24.5122 87.4868 23.4525 87.9086 22.7169C88.1722 22.2527 88.8489 21.701 89.9209 21.0792Z" fill="#FFE200"/>
<path fill-rule="evenodd" clip-rule="evenodd" d="M108.735 21.4733C107.935 23.0234 107.144 24.5735 106.371 26.1323C106.257 26.0885 106.134 26.036 106.019 25.9922C106.801 24.4333 107.592 22.8745 108.401 21.3157C108.506 21.3682 108.62 21.412 108.735 21.4733ZM109.736 28.3479C109.253 28.8296 108.77 29.3113 108.295 29.7842C108.348 31.921 108.392 34.0666 108.445 36.2034C109.236 37.0616 110.018 37.9111 110.8 38.7781C108.972 38.7956 107.144 38.8219 105.308 38.8744C103.647 38.9445 101.995 39.032 100.334 39.1371C100.018 39.1546 99.7803 39.1546 99.6134 39.1459C99.0334 39.1109 98.4359 38.8919 97.812 38.4891C97.9086 38.4803 98.0053 38.4803 98.1019 38.4716C98.7434 38.708 99.6134 38.7956 100.694 38.743C100.923 38.7255 101.151 38.708 101.388 38.6993C104.262 38.5679 107.135 38.4716 110.009 38.419C109.359 37.7359 108.708 37.0441 108.049 36.361C107.996 34.1279 107.944 31.886 107.882 29.6528C108.418 29.1098 108.954 28.5669 109.49 28.0327C109.578 28.1465 109.657 28.2516 109.736 28.3479ZM104.13 23.6802C104.13 23.6539 104.13 23.6277 104.13 23.6014C103.243 22.5768 102.109 22.0863 100.747 22.1476C99.1828 22.2177 97.9965 22.8833 97.2056 24.1356C96.4148 25.3879 96.0896 27.0869 96.2302 29.25C96.3533 31.2116 96.6872 32.7442 97.2408 33.8564C97.7856 34.9686 98.6204 35.8093 99.7276 36.3873C99.7276 36.3347 99.7188 36.291 99.7188 36.2384C98.6819 35.5028 97.9438 34.6708 97.5132 33.7163C97.0826 32.7617 96.8014 31.3693 96.696 29.5302C96.6081 28.0852 96.6608 26.9117 96.8629 26.0097C97.065 25.1077 97.4429 24.372 97.9877 23.794C98.7522 23.0146 99.6924 22.5943 100.8 22.5417C101.714 22.4979 102.742 22.8307 103.875 23.5226C103.946 23.5664 104.033 23.6277 104.13 23.6802ZM107.83 20.6238C107.197 20.9304 106.582 21.0967 105.967 21.1143C105.545 21.1318 104.675 20.9829 103.339 20.6939C102.039 20.4137 100.879 20.2998 99.8858 20.3524C97.6538 20.4575 95.7645 21.2982 94.2443 22.8307C92.5044 24.5822 91.775 26.9292 91.9947 29.8279C92.2144 32.6391 93.3304 34.8109 95.3076 36.361C96.1424 37.0266 96.9508 37.482 97.7417 37.7184C98.5237 37.9549 99.5079 38.0425 100.677 37.9899C101.142 37.9636 101.608 37.9461 102.074 37.9198C104.438 37.8148 106.801 37.7359 109.156 37.6922C108.55 37.2017 107.953 36.7113 107.337 36.2297C107.276 33.979 107.214 31.7283 107.162 29.4776C107.803 28.8471 108.445 28.2166 109.095 27.586C105.94 27.6473 102.786 27.7612 99.6309 27.9188C99.4728 27.9276 99.3058 27.9363 99.1476 27.9451C98.8313 27.9626 98.6731 27.9101 98.6643 27.7962C98.6643 27.7349 98.7171 27.6824 98.8313 27.6473C98.9455 27.6211 99.0598 27.586 99.174 27.5598C99.4728 27.4809 99.6221 27.2445 99.5958 26.8416C99.587 26.6052 99.4816 26.4038 99.2794 26.2374C99.0861 26.071 98.8576 26.0009 98.6116 26.0097C98.2777 26.0272 97.9965 26.1761 97.768 26.4651C97.5395 26.7541 97.4429 27.0869 97.4692 27.4722C97.5308 28.453 98.2689 28.9084 99.6837 28.8296C99.8946 28.8208 100.114 28.8121 100.325 28.7946C101.652 28.7333 102.97 28.672 104.297 28.6282C104.306 28.8734 104.315 29.1186 104.323 29.3638C103.137 29.4076 101.96 29.4514 100.773 29.5127C100 29.5477 99.4464 29.5389 99.1037 29.4776C98.761 29.4163 98.4095 29.2762 98.0492 29.0485C98.058 29.1624 98.058 29.2762 98.0668 29.3901C98.3919 29.644 98.7346 29.8104 99.0685 29.8717C99.4112 29.933 99.9649 29.9506 100.747 29.9068C101.942 29.8542 103.137 29.8017 104.332 29.7579C104.42 32.1224 104.499 34.4957 104.587 36.8602C103.84 36.8865 103.093 36.9127 102.346 36.9478C97.9613 37.1404 95.5975 34.6708 95.2373 29.3901C95.0791 26.9905 95.4569 25.0989 96.3884 23.7065C97.3199 22.314 98.7083 21.5697 100.545 21.4821C101.837 21.4208 102.882 21.7623 103.699 22.4892C104.508 23.2161 105.026 24.302 105.246 25.7207C106.098 24.0305 106.96 22.3228 107.83 20.6238Z" fill="#FFE200"/>
<path fill-rule="evenodd" clip-rule="evenodd" d="M137.654 17.1734C136.38 18.2944 135.325 19.5905 134.473 21.053C133.62 22.5155 132.733 24.591 131.81 27.262C130.808 30.1607 129.824 33.0682 128.866 35.9757C129.71 37.0353 130.554 38.1038 131.38 39.1722C129.016 39.0496 126.652 38.9445 124.297 38.8744C124.192 38.7518 124.095 38.6204 123.989 38.4978C126.178 38.5591 128.374 38.6467 130.562 38.7606C129.859 37.8673 129.148 36.9828 128.436 36.0983C129.429 33.077 130.439 30.0644 131.476 27.0606C132.408 24.3808 133.286 22.3403 134.104 20.9216C134.921 19.5029 135.993 18.163 137.32 16.9194C137.434 17.007 137.548 17.0946 137.654 17.1734ZM136.828 16.0787C136.749 16.0087 136.678 15.9386 136.599 15.8685C135.914 16.2889 134.886 16.753 133.533 17.261C132.17 17.7689 130.914 18.1717 129.745 18.452C130.703 19.0563 131.16 19.8444 131.107 20.8165C131.063 21.6923 130.536 23.5576 129.561 26.4213C129.042 27.9451 128.524 29.4601 128.014 30.9839C127.144 27.3934 126.239 23.8028 125.299 20.2122C125.158 20.2122 125.026 20.2035 124.886 20.2035C125.896 24.0217 126.872 27.84 127.803 31.667C127.627 32.1749 127.46 32.6829 127.294 33.1908C126.239 28.8471 125.141 24.5122 123.981 20.1772C123.524 20.1685 123.058 20.1509 122.601 20.1422C121.467 23.6714 120.378 27.2095 119.315 30.7475C118.524 27.8663 117.707 24.9851 116.872 22.1126C117.276 21.7798 117.68 21.4383 118.093 21.1055C117.979 21.0354 117.873 20.9566 117.759 20.8866C117.311 21.2544 116.863 21.6222 116.424 21.99C117.355 25.1339 118.251 28.2779 119.121 31.4306C118.946 31.9823 118.779 32.534 118.603 33.0857C117.566 29.3113 116.494 25.5455 115.378 21.7886C116.046 21.2106 116.714 20.6414 117.39 20.0721C114.991 20.0546 112.601 20.0721 110.202 20.1071C110.949 20.6676 111.687 21.2369 112.425 21.8061C113.884 26.5702 115.281 31.343 116.617 36.1333C115.984 36.6325 115.351 37.1317 114.728 37.6396C116.845 37.6396 118.954 37.6571 121.063 37.6922C120.536 37.1755 120 36.6675 119.464 36.1596C119.394 35.8794 119.323 35.5904 119.253 35.3101C120.255 31.9035 121.283 28.5056 122.355 25.1077C122.504 25.6506 122.645 26.2024 122.794 26.7453C121.81 29.8455 120.861 32.9456 119.93 36.0545C120.615 36.8514 121.292 37.6571 121.968 38.4628C119.772 38.4103 117.575 38.3927 115.378 38.3927C115.466 38.5154 115.562 38.638 115.659 38.7606C118.014 38.7606 120.369 38.7956 122.724 38.8481C121.96 37.8848 121.178 36.9303 120.395 35.9757C121.239 33.1295 122.109 30.2833 123.005 27.4459C123.779 30.3884 124.534 33.3397 125.255 36.291C124.631 36.7726 124.007 37.2543 123.383 37.7447C125.492 37.806 127.601 37.8761 129.71 37.9811C129.165 37.4557 128.62 36.9215 128.067 36.396C127.988 36.037 127.909 35.6779 127.83 35.3189C128.752 32.4815 129.701 29.644 130.677 26.8154C131.757 23.6627 132.698 21.412 133.462 20.0634C134.244 18.706 135.36 17.3748 136.828 16.0787Z" fill="#FFE200"/>
<path fill-rule="evenodd" clip-rule="evenodd" d="M152.557 29.031C152.671 29.8717 153.058 31.054 153.708 32.5778C153.506 32.5252 153.392 32.499 153.357 32.4902C152.979 32.4114 152.601 32.3326 152.223 32.2538C151.714 32.1487 151.336 32.0786 151.098 32.0523C151.063 32.0523 150.967 32.0436 150.817 32.0348C151.371 34.1366 151.907 36.2384 152.434 38.3402C153.357 39.3561 154.262 40.3807 155.167 41.4141C152.513 41.055 149.859 40.7398 147.206 40.4508C147.135 40.3194 147.056 40.188 146.986 40.0567C149.429 40.3194 151.863 40.6084 154.297 40.9237C153.568 40.0917 152.83 39.2685 152.091 38.4453C151.529 36.2121 150.958 33.979 150.36 31.7458C150.694 31.702 151.063 31.702 151.476 31.7546C151.986 31.8159 152.548 31.921 153.163 32.0786C153.12 31.9735 153.076 31.8684 153.032 31.7546C152.557 30.6074 152.267 29.6002 152.162 28.707C152.285 28.8208 152.425 28.9259 152.557 29.031ZM145.009 25.8608C144.35 27.1306 143.708 28.4005 143.067 29.6703C143.146 29.7666 143.19 29.8279 143.19 29.8455C143.366 30.0732 143.541 30.3008 143.717 30.5285C143.998 30.8876 144.35 31.4306 144.763 32.1662C144.807 32.2362 144.842 32.3151 144.886 32.3851C145.343 31.9297 145.87 31.4919 146.476 31.0715C146.002 29.3288 145.51 27.5948 145.009 25.8608ZM144.508 24.2144C144.613 24.5735 144.71 24.9413 144.815 25.3003C144.051 26.7803 143.295 28.2604 142.557 29.7404C143.374 30.6074 144.06 31.5707 144.622 32.6128C144.543 32.6829 144.482 32.7442 144.446 32.7792C144.376 32.8493 144.297 32.9193 144.227 32.9894C144.218 33.0069 144.165 33.0507 144.069 33.1295C143.989 33.0157 143.954 32.9456 143.946 32.9368C143.761 32.6303 143.568 32.3151 143.374 32.0086C142.917 31.2729 142.364 30.511 141.696 29.7404C142.627 27.8925 143.559 26.0535 144.508 24.2144ZM149.042 21.8499C146.793 21.6134 144.543 21.3945 142.293 21.2018C142.768 21.7623 143.243 22.3315 143.708 22.892C142.891 24.5297 142.091 26.1761 141.292 27.8225C140.861 27.3671 140.395 26.9555 139.912 26.5964C139.824 26.6928 139.745 26.7803 139.657 26.8767C139.701 26.9117 139.736 26.9467 139.78 26.9818C140.088 27.2532 140.466 27.6123 140.905 28.0502C140.958 28.1027 141.011 28.1465 141.063 28.1991C140.958 28.3917 140.861 28.5844 140.756 28.777C140.466 28.5406 140.22 28.3217 140.018 28.1027C139.815 27.8925 139.613 27.6911 139.42 27.4809C139.394 27.4547 139.315 27.3759 139.192 27.2445C138.84 28.0327 138.374 28.777 137.794 29.4864C138.735 29.644 139.446 29.9506 139.912 30.4059C139.886 30.4672 139.868 30.5285 139.842 30.5898C138.875 32.9018 137.97 34.6008 137.109 35.6779C136.248 36.7639 135.141 37.5958 133.779 38.1913C136.09 38.3314 138.392 38.4978 140.703 38.6993C140.606 38.5679 140.527 38.4803 140.475 38.419C139.956 37.7885 139.622 37.2981 139.473 36.9478C139.323 36.5975 139.271 36.1684 139.315 35.6604C139.35 35.17 139.525 34.557 139.842 33.8389C140.035 33.3835 140.228 32.9368 140.422 32.4815C140.659 31.9297 140.844 31.5181 140.993 31.2379C141.186 31.4656 141.371 31.6933 141.564 31.921C140.624 33.69 140.123 35.0474 140.044 35.9669C140 36.5099 140.053 37.0003 140.211 37.4207C140.369 37.841 140.721 38.4453 141.265 39.216C141.336 39.321 141.406 39.4174 141.476 39.5225C139.139 39.321 136.793 39.1371 134.446 38.9883C134.534 39.1196 134.613 39.2422 134.701 39.3736C137.188 39.5312 139.666 39.7239 142.144 39.9516C142.021 39.7677 141.933 39.6276 141.872 39.54C141.204 38.5504 140.773 37.841 140.615 37.4294C140.448 37.0178 140.387 36.5274 140.439 35.9494C140.518 34.9773 140.984 33.7425 141.845 32.245C141.889 32.3063 141.933 32.3589 141.968 32.4202C142.645 33.4535 143.19 34.3643 143.603 35.17C143.673 35.3101 143.743 35.4502 143.822 35.5904C144.666 34.4694 145.685 33.5148 146.907 32.7354C146.977 32.9456 147.047 33.1558 147.109 33.366C147.065 33.4097 147.021 33.4448 146.986 33.4886C145.773 34.4694 144.851 35.3889 144.218 36.2297C144.323 36.2647 144.429 36.3085 144.534 36.3435C145.167 35.4853 146.054 34.6095 147.197 33.7075C147.575 35.0912 147.953 36.4661 148.322 37.8498C147.627 38.3052 146.933 38.7606 146.239 39.2247C148.568 39.4612 150.888 39.7326 153.207 40.0304C152.583 39.4174 151.96 38.8044 151.327 38.2001C150.756 35.8706 150.176 33.5499 149.569 31.2291C150.018 31.0014 150.694 30.9401 151.591 31.0452C151.714 31.0627 151.916 31.089 152.188 31.1416C151.775 30.2658 151.503 29.2937 151.38 28.2341C151.292 28.3129 151.09 28.453 150.782 28.6369C150.606 28.742 150.439 28.8559 150.264 28.961C150.237 28.9785 150.167 29.0223 150.044 29.0923C149.569 27.3233 149.077 25.5631 148.585 23.794C149.13 23.3124 149.684 22.8395 150.228 22.3578C150.105 22.2965 149.982 22.2265 149.868 22.1652C149.288 22.6643 148.717 23.1635 148.146 23.6627C148.673 25.528 149.192 27.3934 149.701 29.2587C149.499 29.3375 149.297 29.4163 149.095 29.4952C148.533 27.4284 147.953 25.3704 147.364 23.3124C147.917 22.8132 148.48 22.3316 149.042 21.8499Z" fill="#FFE200"/>
<path fill-rule="evenodd" clip-rule="evenodd" d="M175.07 26.7453C174.956 26.8592 174.842 26.9818 174.736 27.0956C173.963 27.1131 173.41 27.3233 173.058 27.7086C172.715 28.094 172.443 28.8033 172.25 29.8367C171.388 34.4606 170.527 39.0933 169.666 43.7173C168.691 43.5334 167.707 43.3582 166.731 43.1918C166.696 43.0605 166.652 42.9291 166.617 42.7978C167.531 42.9554 168.453 43.1218 169.367 43.2882C170.193 38.8306 171.019 34.3643 171.837 29.9068C172.074 28.6369 172.408 27.7874 172.847 27.3583C173.304 26.9205 174.042 26.719 175.07 26.7453ZM174.754 25.6594C172.557 25.239 170.36 24.8449 168.163 24.4771C169.165 25.1427 169.754 25.7732 169.939 26.3425C170.123 26.9205 170.07 27.9889 169.798 29.5477C169.754 29.7842 169.71 30.0206 169.675 30.2658C169.306 32.3676 168.928 34.4606 168.559 36.5624C167.381 32.9018 166.151 29.2412 164.851 25.5893C165.51 25.3091 166.169 25.0201 166.837 24.7399C166.757 24.6435 166.678 24.5384 166.599 24.4421C165.852 24.7574 165.105 25.0814 164.359 25.4054C165.791 29.3638 167.144 33.3309 168.427 37.2981C168.33 37.841 168.234 38.3752 168.137 38.9182C166.652 34.2767 165.07 29.6528 163.392 25.0376C164.148 24.7136 164.903 24.3983 165.659 24.0743C163.207 23.6802 160.747 23.3211 158.286 22.9796C158.866 23.5663 159.438 24.1619 160.009 24.7574C159.49 28.3742 158.972 31.9823 158.453 35.5991C158.216 37.228 157.865 38.349 157.408 38.962C156.942 39.575 156.125 40.0041 154.947 40.2581C157.091 40.5471 159.227 40.8536 161.362 41.1864C161.564 41.4754 161.757 41.7556 161.96 42.0446C159.666 41.6856 157.373 41.3528 155.079 41.0463C155.132 41.1776 155.193 41.309 155.246 41.4403C157.724 41.7731 160.202 42.1409 162.68 42.535C162.346 42.0534 162.021 41.5717 161.687 41.09C160.518 40.5471 159.833 39.8728 159.613 39.0583C159.394 38.2439 159.464 36.5975 159.833 34.1191C160.22 31.5181 160.598 28.9172 160.984 26.3162C161.178 26.8241 161.362 27.3408 161.547 27.8488C161.178 30.3184 160.808 32.788 160.439 35.2576C160.369 35.6779 160.299 36.107 160.237 36.5274C159.903 38.7781 160.343 40.1968 161.538 40.8098C161.503 40.7748 161.476 40.731 161.441 40.696C160.852 40.1618 160.536 39.4349 160.492 38.4978C160.536 37.841 160.58 37.1842 160.624 36.5186C160.659 36.3172 160.694 36.1158 160.729 35.9144C161.098 33.4623 161.468 31.0102 161.837 28.5581C163.471 33.0332 165.009 37.517 166.45 42.0096C167.223 42.1409 167.997 42.2811 168.77 42.4212C169.49 38.4628 170.211 34.5132 170.931 30.5548C170.984 30.2658 171.037 29.9681 171.09 29.6791C171.336 28.3041 171.766 27.3233 172.373 26.7278C172.759 26.3337 173.55 25.9747 174.754 25.6594Z" fill="#FFE100"/>
<path fill-rule="evenodd" clip-rule="evenodd" d="M183.383 28.2166C182.794 28.5581 182.206 28.8997 181.626 29.2499C180.641 33.7951 179.657 38.3402 178.682 42.8941C179.271 43.9012 179.851 44.8995 180.422 45.9067C178.067 45.3812 175.712 44.8908 173.348 44.4179C173.26 44.2778 173.172 44.1289 173.076 43.9888C175.29 44.4266 177.496 44.882 179.692 45.3637C179.218 44.5492 178.743 43.7436 178.26 42.9379C179.253 38.3052 180.246 33.6725 181.248 29.0398C181.898 28.6544 182.548 28.2691 183.199 27.8925C183.26 28.0064 183.322 28.1115 183.383 28.2166ZM176.046 25.9046C176.608 26.5964 177.162 27.2883 177.715 27.9801C176.766 32.6478 175.826 37.3156 174.877 41.9746C174.139 42.3599 173.401 42.754 172.663 43.1393C174.789 43.5509 176.907 43.9888 179.025 44.4529C178.559 43.8574 178.084 43.2619 177.61 42.6664C178.594 38.0162 179.587 33.366 180.571 28.7245C181.344 28.2516 182.118 27.7875 182.891 27.3145C180.624 26.8154 178.339 26.3512 176.046 25.9046Z" fill="#FFE100"/>
<path d="M85.993 61.6438L88.4622 49.5848H96.7048L96.283 51.599H90.4657L89.8682 54.4977H95.5712L95.1582 56.512H89.4552L88.4095 61.6438H85.993Z" fill="white"/>
<path d="M96.8366 56.9148C96.8366 56.2054 96.942 55.4523 97.1529 54.6641C97.4253 53.6045 97.8471 52.6849 98.4007 51.9055C98.9631 51.1261 99.6661 50.5131 100.518 50.0577C101.371 49.6023 102.337 49.3746 103.427 49.3746C104.886 49.3746 106.063 49.8388 106.96 50.7671C107.856 51.6953 108.304 52.9214 108.304 54.4539C108.304 55.7238 108.014 56.9586 107.425 58.1496C106.837 59.3406 106.046 60.2601 105.044 60.8994C104.042 61.5387 102.909 61.8628 101.643 61.8628C100.545 61.8628 99.6221 61.6088 98.8752 61.1009C98.1283 60.5929 97.6011 59.9624 97.2935 59.2005C96.9947 58.4386 96.8366 57.6767 96.8366 56.9148ZM99.2355 56.8623C99.2355 57.6942 99.4815 58.386 99.9736 58.9465C100.466 59.507 101.116 59.7872 101.916 59.7872C102.566 59.7872 103.199 59.5683 103.796 59.1217C104.402 58.6838 104.895 58.0095 105.29 57.1162C105.685 56.223 105.879 55.3472 105.879 54.4977C105.879 53.5519 105.633 52.8075 105.132 52.2646C104.631 51.7216 103.998 51.4589 103.225 51.4589C102.039 51.4589 101.081 52.0281 100.334 53.1578C99.6046 54.2788 99.2355 55.5136 99.2355 56.8623Z" fill="white"/>
<path d="M109.64 56.9148C109.64 56.2054 109.745 55.4523 109.956 54.6641C110.228 53.6045 110.65 52.6849 111.204 51.9055C111.766 51.1261 112.469 50.5131 113.322 50.0577C114.174 49.6023 115.141 49.3746 116.23 49.3746C117.689 49.3746 118.866 49.8388 119.763 50.7671C120.659 51.6953 121.107 52.9214 121.107 54.4539C121.107 55.7238 120.817 56.9586 120.228 58.1496C119.64 59.3406 118.849 60.2601 117.847 60.8994C116.845 61.5387 115.712 61.8628 114.446 61.8628C113.348 61.8628 112.425 61.6088 111.678 61.1009C110.931 60.5929 110.404 59.9624 110.097 59.2005C109.789 58.4386 109.64 57.6767 109.64 56.9148ZM112.03 56.8623C112.03 57.6942 112.276 58.386 112.768 58.9465C113.26 59.507 113.91 59.7872 114.71 59.7872C115.36 59.7872 115.993 59.5683 116.591 59.1217C117.197 58.6838 117.689 58.0095 118.084 57.1162C118.48 56.223 118.673 55.3472 118.673 54.4977C118.673 53.5519 118.427 52.8075 117.926 52.2646C117.425 51.7216 116.793 51.4589 116.019 51.4589C114.833 51.4589 113.875 52.0281 113.128 53.1578C112.399 54.2788 112.03 55.5136 112.03 56.8623Z" fill="white"/>
<path d="M121.714 61.6438L124.183 49.5848H127.355C128.243 49.5848 128.805 49.6023 129.051 49.6286C129.534 49.6811 129.974 49.7775 130.36 49.9351C130.747 50.0927 131.09 50.3029 131.406 50.5831C131.722 50.8634 131.986 51.1962 132.214 51.5815C132.443 51.9756 132.619 52.4222 132.742 52.9301C132.865 53.4381 132.926 53.9898 132.926 54.5941C132.926 55.8902 132.68 57.0462 132.197 58.0533C131.714 59.0604 131.098 59.8573 130.369 60.4528C129.807 60.917 129.077 61.2497 128.19 61.4774C127.689 61.6 126.916 61.6613 125.87 61.6613H121.714V61.6438ZM124.534 59.6997H125.764C126.652 59.6997 127.302 59.6471 127.698 59.5333C128.093 59.4194 128.462 59.2093 128.796 58.9027C129.271 58.4561 129.675 57.8694 130 57.125C130.325 56.3894 130.492 55.5136 130.492 54.5065C130.492 53.6483 130.36 53.009 130.088 52.5798C129.815 52.1507 129.482 51.8617 129.086 51.7216C128.805 51.6253 128.313 51.5727 127.601 51.5727H126.195L124.534 59.6997Z" fill="white"/>
<path d="M133.928 57.738L136.23 57.6154C136.265 58.3685 136.388 58.8765 136.608 59.1392C136.96 59.5683 137.619 59.7785 138.568 59.7785C139.359 59.7785 139.93 59.6296 140.29 59.3406C140.65 59.0516 140.817 58.7013 140.817 58.2897C140.817 57.9307 140.677 57.6329 140.387 57.3877C140.185 57.2038 139.622 56.9148 138.708 56.512C137.794 56.1091 137.127 55.7676 136.705 55.4961C136.283 55.2246 135.958 54.8743 135.712 54.4364C135.475 54.0073 135.351 53.4994 135.351 52.9126C135.351 51.8968 135.712 51.0561 136.424 50.3905C137.144 49.7249 138.181 49.3834 139.543 49.3834C140.923 49.3834 141.995 49.7162 142.75 50.3817C143.506 51.0473 143.928 51.9318 143.998 53.0265L141.678 53.1316C141.617 52.5536 141.415 52.1157 141.072 51.8092C140.721 51.5027 140.211 51.345 139.525 51.345C138.858 51.345 138.374 51.4677 138.093 51.7041C137.812 51.9406 137.663 52.2471 137.663 52.6149C137.663 52.9564 137.794 53.2454 138.058 53.4731C138.322 53.7008 138.902 54.0161 139.798 54.4189C141.151 55.0144 142.012 55.5048 142.381 55.8727C142.935 56.4244 143.207 57.125 143.207 57.9832C143.207 59.0429 142.794 59.9536 141.977 60.7068C141.16 61.4599 140.009 61.8365 138.541 61.8365C137.531 61.8365 136.652 61.6613 135.914 61.311C135.176 60.9607 134.649 60.4791 134.341 59.8573C134.042 59.253 133.902 58.5437 133.928 57.738Z" fill="white"/>
<path d="M69.2794 57.2388C68.4446 57.2388 67.768 56.5733 67.7504 55.7413C67.7329 54.9006 68.4095 54.2087 69.2531 54.1912L80.9139 53.9898C81.7311 53.981 82.4517 54.6466 82.4693 55.4873C82.4868 56.328 81.8102 57.0199 80.9666 57.0374L69.3058 57.2388C69.297 57.2388 69.2882 57.2388 69.2794 57.2388Z" fill="white"/>
<path d="M149.06 57.2388C148.225 57.2388 147.548 56.5733 147.531 55.7413C147.513 54.9006 148.19 54.2087 149.033 54.1912L160.694 53.9898C161.547 53.9898 162.232 54.6466 162.25 55.4873C162.267 56.3281 161.591 57.0199 160.747 57.0374L149.086 57.2388C149.077 57.2388 149.069 57.2388 149.06 57.2388Z" fill="white"/>
<path fill-rule="evenodd" clip-rule="evenodd" d="M212.61 40.6259C212.065 40.6872 203.067 42.7102 203.067 42.7102C203.067 42.7102 212.294 42.6401 212.83 42.5788C213.374 42.5175 213.761 42.0271 213.699 41.4929C213.638 40.9499 213.146 40.5558 212.61 40.6259Z" fill="white"/>
<path fill-rule="evenodd" clip-rule="evenodd" d="M212.399 45.5914C211.898 45.3812 203.067 42.7102 203.067 42.7102C203.067 42.7102 211.125 47.194 211.626 47.4042C212.127 47.6144 212.707 47.3867 212.917 46.8787C213.128 46.3796 212.9 45.8016 212.399 45.5914Z" fill="white"/>
<path fill-rule="evenodd" clip-rule="evenodd" d="M209.745 49.8125C209.411 49.3834 203.067 42.7102 203.067 42.7102C203.067 42.7102 207.847 50.5744 208.181 51.0035C208.515 51.4326 209.13 51.5202 209.561 51.1874C209.991 50.8634 210.079 50.2416 209.745 49.8125Z" fill="white"/>
<path fill-rule="evenodd" clip-rule="evenodd" d="M17.3902 40.6259C17.935 40.6872 26.9332 42.7102 26.9332 42.7102C26.9332 42.7102 17.7065 42.6401 17.1705 42.5788C16.6257 42.5175 16.239 42.0271 16.3005 41.4929C16.362 40.9499 16.8541 40.5558 17.3902 40.6259Z" fill="white"/>
<path fill-rule="evenodd" clip-rule="evenodd" d="M17.6011 45.5914C18.1019 45.3812 26.9332 42.7102 26.9332 42.7102C26.9332 42.7102 18.8752 47.194 18.3743 47.4042C17.8735 47.6144 17.2935 47.3867 17.0826 46.8787C16.8717 46.3796 17.1002 45.8016 17.6011 45.5914Z" fill="white"/>
<path fill-rule="evenodd" clip-rule="evenodd" d="M20.2548 49.8125C20.5888 49.3834 26.9332 42.7102 26.9332 42.7102C26.9332 42.7102 22.1529 50.5744 21.819 51.0035C21.4851 51.4326 20.8699 51.5202 20.4394 51.1874C20 50.8634 19.9209 50.2416 20.2548 49.8125Z" fill="white"/>
<path fill-rule="evenodd" clip-rule="evenodd" d="M193.471 20.1247C195 20.1247 196.388 20.7464 197.39 21.7448C198.392 22.7519 199.016 24.1268 199.016 25.6594C199.016 27.1832 198.392 28.5669 197.39 29.5652C196.388 30.5636 195 31.1853 193.471 31.1853C191.942 31.1853 190.554 30.5636 189.552 29.5652C188.55 28.5669 187.926 27.1832 187.926 25.6506C187.926 24.1268 188.55 22.7431 189.552 21.7448C190.554 20.7464 191.933 20.1247 193.471 20.1247ZM197.039 22.0951C196.125 21.1843 194.859 20.6238 193.462 20.6238C192.065 20.6238 190.8 21.1843 189.886 22.0951C188.972 23.0059 188.409 24.2669 188.409 25.6594C188.409 27.0518 188.972 28.3129 189.886 29.2237C190.8 30.1345 192.065 30.6949 193.462 30.6949C194.859 30.6949 196.125 30.1345 197.039 29.2237C197.953 28.3129 198.515 27.0518 198.515 25.6594C198.524 24.2669 197.953 23.0059 197.039 22.0951Z" fill="white"/>
<path d="M189.534 23.8729H192.891V24.7486H191.766V27.4284H190.659V24.7486H189.534V23.8729Z" fill="white"/>
<path d="M193.383 23.8729H194.833L195.395 26.036L195.949 23.8729H197.399V27.4372H196.494V24.7223L195.8 27.4372H194.982L194.288 24.7223V27.4372H193.383V23.8729Z" fill="white"/>
</svg>
