<svg width="24" height="24" viewBox="0 0 24 24" fill="none" xmlns="http://www.w3.org/2000/svg">
<g clip-path="url(#clip0_612_444)">
<path d="M23.2 2C23.2 0.57 22.59 0 21.2 0H2.2C0.600002 0 0.0100021 0.55 0.0100021 2.2V14C0.0100021 18 0.0100021 22 0.0100021 26C0.0100021 27.38 0.620003 28 1.92 28C6.58667 28 11.28 28 16 28C16.3492 27.9924 16.6836 27.8572 16.94 27.62C18.94 25.7 20.85 23.76 22.77 21.8C23.0185 21.5243 23.1635 21.1708 23.18 20.8C23.21 14.52 23.2 8.27 23.2 2ZM16.6 25.35V21.42H20.6L16.6 25.35ZM21.5 19.73H16.94C15.45 19.73 14.94 20.31 14.94 21.82C14.94 23.04 14.94 24.26 14.94 25.48V26.28H1.72V1.72H21.51L21.5 19.73Z" fill="black"/>
<path d="M8.7 16.0001V7.06006C9.38 7.59006 9.95 8.06006 10.5 8.46006C11.05 8.86006 11.59 9.32006 12.13 9.77006C12.2431 9.85476 12.3185 9.98041 12.34 10.1201C12.34 12.0601 12.34 13.9901 12.34 15.9701L8.7 16.0001Z" fill="black"/>
<path d="M17.77 16.0001V7.06006L15.97 8.46006C15.42 8.89006 14.88 9.32006 14.34 9.77006C14.2269 9.85476 14.1515 9.98041 14.13 10.1201C14.13 12.0601 14.13 13.9901 14.13 15.9701L17.77 16.0001Z" fill="black"/>
<path d="M6.93 16.0001V7.06006L5.12 8.46006C4.58 8.89006 4.03 9.32006 3.5 9.77006C3.38471 9.8544 3.30601 9.9796 3.28 10.1201C3.28 12.0601 3.28 13.9901 3.28 15.9701L6.93 16.0001Z" fill="black"/>
<path d="M12.86 22.3101V24.0001C10.73 24.0001 6.61 24.0001 4.48 24.0001C3.91 24.0001 3.48 23.8301 3.48 23.2201C3.48 22.6101 3.87 22.3401 4.48 22.3401L12.86 22.3101Z" fill="black"/>
<path d="M12.86 19.29V21H4.38C3.85 21 3.46 20.74 3.46 20.17C3.46 19.6 3.85 19.33 4.46 19.33L12.86 19.29Z" fill="black"/>
<path d="M19.2 4.55995C19.2082 4.68834 19.19 4.81706 19.1464 4.93812C19.1029 5.05919 19.0349 5.17002 18.9468 5.26376C18.8587 5.35751 18.7523 5.43216 18.6341 5.48311C18.516 5.53406 18.3887 5.56021 18.26 5.55995C18.0398 5.56248 17.8264 5.48421 17.66 5.33995L14.18 6.99995C14.1847 7.01628 14.1847 7.03362 14.18 7.04995C14.18 7.3019 14.0799 7.54354 13.9017 7.7217C13.7236 7.89986 13.482 7.99995 13.23 7.99995C12.978 7.99995 12.7364 7.89986 12.5582 7.7217C12.3801 7.54354 12.28 7.3019 12.28 7.04995C12.2751 7.02687 12.2751 7.00303 12.28 6.97995L8.94 5.24995C8.75682 5.39825 8.52462 5.47234 8.2894 5.45752C8.05418 5.4427 7.83311 5.34007 7.67 5.16995L5.2 6.07995C5.14974 6.30598 5.02259 6.50756 4.84027 6.65029C4.65794 6.79303 4.43174 6.86806 4.20025 6.8626C3.96877 6.85714 3.74635 6.77152 3.57096 6.62034C3.39557 6.46917 3.27808 6.26182 3.23853 6.03367C3.19899 5.80552 3.23984 5.57072 3.35412 5.36934C3.4684 5.16795 3.64902 5.01247 3.86517 4.92942C4.08131 4.84637 4.31958 4.8409 4.5393 4.91394C4.75903 4.98699 4.9466 5.13402 5.07 5.32995L7.41 4.45995C7.42281 4.21941 7.52747 3.99297 7.70239 3.82736C7.8773 3.66175 8.10912 3.56961 8.35 3.56995C8.59641 3.58185 8.82972 3.68443 9.00508 3.85794C9.18045 4.03146 9.28548 4.26368 9.3 4.50995C9.30485 4.53303 9.30485 4.55687 9.3 4.57995L12.67 6.35995C12.8307 6.22063 13.0373 6.14582 13.25 6.14995C13.4702 6.14741 13.6836 6.22569 13.85 6.36995L17.33 4.61995C17.3253 4.60022 17.3253 4.57967 17.33 4.55995C17.3541 4.32608 17.464 4.10946 17.6386 3.95196C17.8131 3.79446 18.0399 3.70729 18.275 3.70729C18.5101 3.70729 18.7369 3.79446 18.9114 3.95196C19.086 4.10946 19.1959 4.32608 19.22 4.55995H19.2Z" fill="black"/>
</g>
<defs>
<clipPath id="clip0_612_444">
<rect width="23.2" height="28" fill="white"/>
</clipPath>
</defs>
</svg>
