<svg width="26" height="24" viewBox="0 0 28 26" fill="none" xmlns="http://www.w3.org/2000/svg">
<g clip-path="url(#clip0_612_277)">
<path d="M2.77 24.41V14.28C2.78278 14.2492 2.78804 14.2158 2.78533 14.1825C2.78263 14.1493 2.77204 14.1171 2.75445 14.0888C2.73686 14.0604 2.71276 14.0367 2.68416 14.0195C2.65556 14.0023 2.62329 13.9922 2.59 13.99C2.08104 13.8611 1.61032 13.6123 1.21715 13.2644C0.823984 12.9165 0.519794 12.4795 0.329997 11.99C0.183968 11.5317 0.12628 11.0498 0.159997 10.57C0.159997 10.24 0.159997 10.24 0.489997 10.24H28C28.1598 11.0591 27.9974 11.9083 27.5465 12.6106C27.0957 13.3129 26.3913 13.8142 25.58 14.01C25.45 14.01 25.41 14.1 25.41 14.22C25.41 17.5533 25.41 20.8867 25.41 24.22V24.41H25.6C26.12 24.41 26.65 24.41 27.17 24.41C27.2846 24.4069 27.3986 24.4278 27.5046 24.4715C27.6106 24.5152 27.7062 24.5806 27.7854 24.6635C27.8645 24.7464 27.9254 24.845 27.9641 24.9529C28.0028 25.0608 28.0184 25.1757 28.01 25.29C27.9712 25.4956 27.858 25.6797 27.6919 25.807C27.5258 25.9343 27.3186 25.9959 27.11 25.98C25.93 25.98 24.75 25.98 23.57 25.98H10.63C7.45 25.98 4.27 25.98 1.09 25.98C0.887448 25.9964 0.68555 25.9414 0.519331 25.8245C0.353111 25.7076 0.233058 25.5362 0.179997 25.34C0.162464 25.2232 0.170696 25.1039 0.204117 24.9906C0.237538 24.8773 0.295338 24.7727 0.373466 24.6841C0.451594 24.5955 0.548159 24.525 0.656389 24.4777C0.76462 24.4303 0.881896 24.4072 0.999997 24.41C1.52 24.41 2 24.41 2.57 24.41H2.77ZM11 14.18V24.4H23.63C23.63 24.34 23.63 24.29 23.63 24.24V14.24C23.63 14.12 23.63 14.08 23.47 14.04C23.0365 13.9262 22.6296 13.7282 22.2727 13.457C21.9158 13.1859 21.6159 12.8471 21.39 12.46C21.1829 12.0929 21.0504 11.6885 21 11.27C20.8971 12.0517 20.5219 12.7721 19.9402 13.3044C19.3585 13.8367 18.6077 14.1467 17.82 14.18C16.9505 14.2619 16.0807 14.0275 15.37 13.52C15.0094 13.2695 14.7055 12.946 14.4781 12.5704C14.2507 12.1948 14.1048 11.7756 14.05 11.34C13.9406 12.0897 13.5787 12.7798 13.0242 13.2961C12.4697 13.8124 11.7556 14.1242 11 14.18ZM7.12 11.37C7.09157 11.5787 7.0515 11.7857 7 11.99C6.81885 12.4983 6.51508 12.9541 6.11562 13.3169C5.71616 13.6798 5.23335 13.9384 4.71 14.07C4.6 14.07 4.54 14.14 4.54 14.28C4.54 17.6133 4.54 20.9467 4.54 24.28V24.44H9.74V14.1C9.07844 13.9633 8.47388 13.6292 8.00612 13.1418C7.53837 12.6544 7.2294 12.0366 7.12 11.37Z" fill="black"/>
<path d="M27.79 9.05001H0C0 9.00001 -6.70552e-08 8.95001 0.0699999 8.91001C1.23 6.91001 2.4 4.91001 3.56 2.91001C3.58546 2.86491 3.62381 2.82844 3.67014 2.80528C3.71646 2.78212 3.76864 2.77332 3.82 2.78001H24.36C24.4056 2.77608 24.4514 2.78649 24.4908 2.80979C24.5302 2.8331 24.5614 2.86813 24.58 2.91001C25.58 4.91001 26.68 6.91001 27.73 8.91001L27.79 9.05001ZM5.44 7.88001C5.51061 7.87062 5.57808 7.84495 5.63708 7.80504C5.69608 7.76513 5.74501 7.71206 5.78 7.65001L7.5 4.54001C7.52993 4.49093 7.54802 4.43554 7.55282 4.37825C7.55761 4.32096 7.54899 4.26333 7.52764 4.20995C7.50629 4.15657 7.47279 4.1089 7.42981 4.07073C7.38682 4.03255 7.33553 4.00491 7.28 3.99001C7.17234 3.94595 7.0518 3.94529 6.94367 3.98817C6.83553 4.03105 6.7482 4.11414 6.7 4.22001L5 7.27001C4.85 7.57001 5 7.88001 5.44 7.88001ZM22.77 7.88001C22.8441 7.88753 22.9189 7.87365 22.9854 7.84001C23.0519 7.80638 23.1073 7.7544 23.1452 7.69022C23.1831 7.62604 23.2018 7.55236 23.1991 7.47789C23.1964 7.40342 23.1724 7.33128 23.13 7.27001L21.84 4.99001C21.7 4.73001 21.56 4.48001 21.41 4.23001C21.3872 4.17299 21.353 4.12123 21.3095 4.07792C21.2659 4.03461 21.214 4.00067 21.1569 3.97819C21.0997 3.95571 21.0386 3.94516 20.9772 3.94719C20.9158 3.94922 20.8555 3.9638 20.8 3.99001C20.7494 4.01591 20.7053 4.05283 20.6709 4.09804C20.6364 4.14325 20.6126 4.19561 20.6011 4.25126C20.5895 4.30692 20.5907 4.36444 20.6043 4.41961C20.618 4.47477 20.6438 4.52617 20.68 4.57001L20.75 4.68001L22.35 7.58001C22.3808 7.66706 22.4376 7.74254 22.5127 7.79621C22.5878 7.84988 22.6777 7.87914 22.77 7.88001ZM18.93 7.88001C19.33 7.88001 19.51 7.59001 19.35 7.28001C19.04 6.65001 18.72 6.02001 18.35 5.40001L17.78 4.19001C17.7527 4.13851 17.7155 4.09295 17.6704 4.05597C17.6254 4.01898 17.5735 3.99131 17.5176 3.97457C17.4618 3.95782 17.4032 3.95233 17.3453 3.95841C17.2873 3.9645 17.2311 3.98204 17.18 4.01001C17.1317 4.03097 17.0883 4.06202 17.053 4.10108C17.0176 4.14013 16.9909 4.18629 16.9749 4.23647C16.9588 4.28665 16.9536 4.33969 16.9596 4.39204C16.9657 4.44439 16.9829 4.49484 17.01 4.54001L18.58 7.63001C18.6113 7.69874 18.6601 7.75803 18.7215 7.80192C18.7829 7.8458 18.8548 7.87274 18.93 7.88001ZM8.98 7.88001C9.06658 7.88302 9.15204 7.8598 9.2252 7.81341C9.29836 7.76701 9.3558 7.69961 9.39 7.62001L10 6.49001L11 4.55001C11.0301 4.50146 11.0489 4.44673 11.055 4.3899C11.0611 4.33308 11.0542 4.27561 11.035 4.22179C11.0158 4.16798 10.9847 4.11918 10.944 4.07905C10.9033 4.03892 10.8541 4.00849 10.8 3.99001C10.7444 3.96335 10.6839 3.94816 10.6223 3.94533C10.5607 3.94251 10.4991 3.95211 10.4412 3.97357C10.3834 3.99503 10.3305 4.0279 10.2856 4.07024C10.2407 4.11258 10.2048 4.16351 10.18 4.22001L8.61 7.22001C8.55147 7.2832 8.5149 7.36359 8.50572 7.44923C8.49654 7.53487 8.51526 7.62118 8.55907 7.69533C8.60289 7.76948 8.66947 7.82751 8.74891 7.86079C8.82836 7.89406 8.91642 7.9008 9 7.88001H8.98Z" fill="black"/>
<path d="M14.08 1.57002H4.63C4.45603 1.57023 4.28339 1.53976 4.12 1.48002C3.97616 1.42924 3.85216 1.33408 3.76589 1.20827C3.67962 1.08246 3.63554 0.932505 3.64 0.780024C3.63848 0.625434 3.68608 0.474353 3.77594 0.348552C3.8658 0.222751 3.99328 0.128725 4.14 0.0800235C4.29295 0.0202013 4.45578 -0.010329 4.62 -0.00997638H23.55C23.727 -0.0299076 23.9059 0.00435144 24.063 0.0882716C24.2202 0.172192 24.3481 0.301821 24.43 0.460024C24.483 0.583601 24.5035 0.718652 24.4897 0.852392C24.4759 0.986131 24.4282 1.11413 24.3511 1.22428C24.274 1.33442 24.17 1.42307 24.0491 1.48182C23.9282 1.54058 23.7942 1.56749 23.66 1.56002H14.08V1.57002Z" fill="black"/>
<path d="M7.16 18.42V17.99C7.18376 17.8861 7.18159 17.7779 7.15369 17.675C7.12579 17.5721 7.07301 17.4777 7 17.4C6.94467 17.346 6.9007 17.2814 6.87067 17.2102C6.84065 17.1389 6.82519 17.0623 6.82519 16.985C6.82519 16.9077 6.84065 16.8311 6.87067 16.7598C6.9007 16.6886 6.94467 16.624 7 16.57C7.14677 16.4017 7.35387 16.2979 7.57655 16.281C7.79923 16.2642 8.01959 16.3357 8.19 16.48C8.26343 16.541 8.32253 16.6174 8.36309 16.7038C8.40364 16.7903 8.42467 16.8845 8.42467 16.98C8.42467 17.0755 8.40364 17.1697 8.36309 17.2562C8.32253 17.3426 8.26343 17.419 8.19 17.48C8.15334 17.5079 8.12413 17.5444 8.10494 17.5862C8.08575 17.6281 8.07719 17.674 8.08 17.72C8.08 18.16 8.08 18.61 8.08 19.06C8.08266 19.1359 8.11498 19.2077 8.17 19.26C8.27106 19.3299 8.3506 19.4266 8.39966 19.5393C8.44872 19.652 8.46535 19.7761 8.44768 19.8977C8.43001 20.0193 8.37874 20.1336 8.29965 20.2276C8.22056 20.3217 8.11678 20.3917 8 20.43C7.89155 20.4947 7.76932 20.5328 7.64331 20.5412C7.51731 20.5496 7.3911 20.528 7.27503 20.4783C7.15895 20.4285 7.05631 20.352 6.97548 20.255C6.89466 20.1579 6.83795 20.0432 6.81 19.92C6.78959 19.803 6.80435 19.6826 6.85241 19.574C6.90048 19.4654 6.97968 19.3735 7.08 19.31C7.11979 19.2851 7.15142 19.2491 7.17097 19.2065C7.19052 19.1638 7.19713 19.1164 7.19 19.07L7.16 18.42Z" fill="black"/>
</g>
<defs>
<clipPath id="clip0_612_277">
<rect width="28" height="25.99" fill="white"/>
</clipPath>
</defs>
</svg>
