<svg width="32" height="32" viewBox="0 0 32 32" fill="none" xmlns="http://www.w3.org/2000/svg">
<g clip-path="url(#clip0_612_317)">
<path d="M30 9.59285C29.8492 10.1603 29.6697 10.7197 29.4622 11.2689C28.7179 12.8437 27.7151 14.2827 26.4955 15.5263C26.0205 16.0461 25.5096 16.548 24.9898 17.0948C24.5595 16.6735 24.1652 16.306 23.7887 15.9117C22.5522 14.6834 21.5042 13.2789 20.6786 11.7439C20.171 10.8548 19.911 9.84579 19.9257 8.82204C19.9783 7.56643 20.4983 6.3758 21.3836 5.48392C22.269 4.59204 23.4558 4.06332 24.711 4.00157C25.9662 3.93982 27.1991 4.3495 28.1677 5.15018C29.1363 5.95085 29.7707 7.08469 29.9462 8.32908C29.9604 8.36955 29.9784 8.40856 30 8.4456V9.59285ZM24.9629 14.7555C25.4469 14.1908 25.9129 13.671 26.3521 13.1242C27.1167 12.2131 27.7227 11.1799 28.1447 10.0679C28.3163 9.55252 28.3607 9.00332 28.2743 8.46707C28.1878 7.93082 27.973 7.42341 27.6482 6.98806C27.3234 6.55272 26.8982 6.20234 26.4087 5.96677C25.9193 5.7312 25.3802 5.61743 24.8373 5.63514C24.2944 5.65285 23.7639 5.80152 23.2908 6.06849C22.8178 6.33546 22.4163 6.71281 22.1205 7.1684C21.8248 7.62399 21.6435 8.14432 21.5922 8.68506C21.5409 9.22581 21.6211 9.77094 21.8259 10.274C22.59 11.9463 23.6531 13.4651 24.9629 14.7555Z" fill="black"/>
<path d="M10.3265 28.7644V27.1332H10.6671H21.8169C22.1116 27.1594 22.4086 27.1253 22.6897 27.033C22.9708 26.9407 23.2301 26.792 23.4519 26.5962C23.6736 26.4003 23.8531 26.1613 23.9795 25.8938C24.1058 25.6262 24.1763 25.3357 24.1867 25.0401C24.1971 24.7444 24.1471 24.4497 24.0398 24.1739C23.9325 23.8982 23.7701 23.6472 23.5626 23.4363C23.3551 23.2254 23.1068 23.059 22.8329 22.9472C22.5589 22.8354 22.2651 22.7806 21.9693 22.7862C20.4187 22.7862 18.8771 22.7862 17.3265 22.7862C16.8239 22.7897 16.3256 22.6942 15.8599 22.5051C15.3942 22.3161 14.9703 22.0371 14.6124 21.6842C14.2546 21.3313 13.9697 20.9114 13.7741 20.4484C13.5785 19.9855 13.476 19.4885 13.4725 18.9859C13.4689 18.4833 13.5644 17.985 13.7535 17.5193C13.9426 17.0536 14.2215 16.6297 14.5744 16.2718C15.2871 15.5491 16.2577 15.139 17.2727 15.1319C18.6978 15.0781 20.1319 15.1319 21.5659 15.1319H21.6645V16.7721H17.452C16.8929 16.7504 16.347 16.9455 15.9284 17.3168C15.5098 17.6881 15.2509 18.2068 15.2058 18.7645C15.1607 19.3222 15.3328 19.8758 15.6863 20.3096C16.0397 20.7433 16.5471 21.0237 17.1024 21.0922C18.0704 21.137 19.0295 21.0922 19.9974 21.0922C20.7772 21.0922 21.548 21.0922 22.3188 21.0922C23.2331 21.1824 24.0844 21.5985 24.7173 22.2645C25.3501 22.9305 25.7223 23.8019 25.7658 24.7196C25.8093 25.6373 25.5212 26.5401 24.9542 27.2629C24.3871 27.9858 23.579 28.4805 22.6773 28.6568C22.4472 28.7036 22.2131 28.7276 21.9782 28.7285H10.5506L10.3265 28.7644Z" fill="black"/>
<path d="M7.03713 29.0961C5.23581 27.5235 3.73814 25.634 2.61844 23.5212C2.22157 22.7499 2.00982 21.8968 2 21.0295C2.02272 19.7853 2.50436 18.5934 3.35241 17.6827C4.20045 16.772 5.35509 16.2068 6.5945 16.0957C7.83391 15.9845 9.07069 16.3353 10.0672 17.0805C11.0638 17.8257 11.7499 18.9129 11.9936 20.1332C12.2027 21.2899 12.0165 22.4832 11.4648 23.5212C10.7652 24.946 9.85913 26.2597 8.77593 27.42C8.2023 27.9667 7.62868 28.5135 7.03713 29.0961ZM7.03713 26.8016C7.45839 26.3086 7.87068 25.8605 8.24712 25.3854C9.07423 24.425 9.73741 23.3349 10.21 22.1588C10.3855 21.6479 10.4355 21.1023 10.356 20.568C10.2765 20.0337 10.0697 19.5263 9.75305 19.0886C9.43639 18.651 9.01917 18.2959 8.53654 18.0532C8.05391 17.8105 7.52002 17.6875 6.97987 17.6943C6.43971 17.7012 5.90912 17.8378 5.43282 18.0927C4.95652 18.3475 4.54845 18.7131 4.24303 19.1587C3.9376 19.6043 3.74376 20.1167 3.67785 20.6529C3.61193 21.189 3.67587 21.7332 3.86428 22.2395C4.62507 23.9465 5.70157 25.4943 7.03713 26.8016Z" fill="black"/>
<path d="M23.3316 9.03716C23.334 8.60608 23.5069 8.19347 23.8126 7.88949C24.1182 7.58551 24.5318 7.41487 24.9629 7.41488C25.2884 7.41312 25.6071 7.50827 25.8784 7.68822C26.1497 7.86817 26.3613 8.12478 26.4863 8.42537C26.6112 8.72597 26.6439 9.05696 26.5802 9.3762C26.5165 9.69544 26.3592 9.98849 26.1283 10.2181C25.8975 10.4476 25.6036 10.6033 25.284 10.6653C24.9644 10.7272 24.6336 10.6927 24.3337 10.5661C24.0338 10.4395 23.7784 10.2264 23.5999 9.95417C23.4215 9.6819 23.3281 9.36268 23.3316 9.03716Z" fill="black"/>
<path d="M8.67734 21.0922C8.67557 21.4162 8.57787 21.7324 8.39656 22.001C8.21526 22.2695 7.95848 22.4783 7.65862 22.6011C7.35876 22.7239 7.02926 22.7551 6.71168 22.6908C6.39411 22.6265 6.10269 22.4696 5.8742 22.2398C5.64571 22.0101 5.49038 21.7178 5.42782 21.3999C5.36525 21.082 5.39825 20.7527 5.52266 20.4535C5.64706 20.1543 5.85729 19.8986 6.12682 19.7188C6.39635 19.539 6.71311 19.443 7.03713 19.443C7.47296 19.4454 7.89014 19.6202 8.19748 19.9292C8.50482 20.2382 8.67734 20.6563 8.67734 21.0922Z" fill="black"/>
</g>
<defs>
<clipPath id="clip0_612_317">
<rect width="28" height="25.096" fill="white" transform="translate(2 4)"/>
</clipPath>
</defs>
</svg>
