<svg width="29" height="29" viewBox="0 0 29 29" fill="none" xmlns="http://www.w3.org/2000/svg">
<g clip-path="url(#clip0_612_2821)">
<path d="M7.85 27.24C7.85 26.65 7.85 26.03 7.85 25.44C7.80678 25.0773 7.66882 24.7324 7.45 24.44C7.24 24.18 7.06 24.04 6.92 24.03C6.68172 24.0764 6.46846 24.2079 6.32 24.4L5.42 25.4L4.71 26.18L4.49 25.94L3.96 25.39C3.58 25 3.23 24.63 2.9 24.24C2.57 23.85 2.57 23.99 2.26 24.17C2.01222 24.3159 1.80991 24.5278 1.67569 24.7821C1.54147 25.0364 1.48064 25.3231 1.5 25.61C1.5 26.18 1.5 26.75 1.5 27.31V28.31H3.05509e-06V25.41C-0.0210902 24.7053 0.21972 24.0179 0.675911 23.4804C1.1321 22.943 1.7713 22.5937 2.47 22.5C2.67372 22.4802 2.87935 22.5009 3.07501 22.561C3.27067 22.621 3.4525 22.7193 3.61 22.85C3.91898 23.1278 4.20647 23.4287 4.47 23.75L4.64 23.96L4.84 23.74C5.13298 23.4038 5.44694 23.0865 5.78 22.79C6.06258 22.5638 6.41864 22.4499 6.78 22.47C7.49901 22.5741 8.15582 22.9355 8.62847 23.4873C9.10112 24.039 9.3575 24.7435 9.35 25.47C9.35 26.05 9.35 26.64 9.35 27.22V28.3H7.84V28C7.84 27.75 7.85 27.49 7.85 27.24Z" fill="black"/>
<path d="M27.08 27.35C27.115 26.7138 27.115 26.0762 27.08 25.44C27.0459 25.0751 26.907 24.7278 26.68 24.44C26.5839 24.2887 26.4538 24.162 26.3 24.07C26.1 24.02 25.86 24.15 25.56 24.45C25.26 24.75 25.2 24.84 25 25.04L24.57 25.5L24.27 25.83L24.2 25.91L23.97 26.13L23.76 25.9C23.5 25.62 23.27 25.38 23.05 25.13L22.95 25.02L22.81 24.87L22.23 24.22C22.1983 24.1365 22.1368 24.0678 22.0574 24.0272C21.9779 23.9865 21.8862 23.9768 21.8 24C21.7672 23.9915 21.7328 23.9915 21.7 24H21.64L21.55 24.05C21.3261 24.1858 21.1294 24.3622 20.97 24.57C20.9359 24.6156 20.9089 24.6662 20.89 24.72C20.8429 24.8078 20.8092 24.9022 20.79 25C20.7694 25.1158 20.7694 25.2342 20.79 25.35C20.79 26 20.79 26.65 20.79 27.3V28.24H19.18V27.73C19.18 26.96 19.18 26.2 19.18 25.42V25.4C19.1749 25.3635 19.1749 25.3265 19.18 25.29C19.1841 25.2668 19.1841 25.2431 19.18 25.22C19.1965 24.7434 19.3335 24.2788 19.5784 23.8695C19.8232 23.4603 20.1678 23.1198 20.58 22.88C20.7105 22.8013 20.8477 22.7344 20.99 22.68C21.0196 22.6728 21.0504 22.6728 21.08 22.68H21.16C21.2062 22.6711 21.2538 22.6711 21.3 22.68C21.3812 22.6472 21.4648 22.6204 21.55 22.6C21.7878 22.5255 22.0424 22.5238 22.2812 22.5951C22.5199 22.6663 22.732 22.8074 22.89 23C23.14 23.28 23.4 23.54 23.68 23.82L23.85 23.99L24.21 23.64L24.37 23.49L24.52 23.34L24.79 23.06L24.85 22.99C24.8857 22.9518 24.926 22.9182 24.97 22.89C25.0301 22.8318 25.0973 22.7814 25.17 22.74L25.32 22.67H25.49H25.64H26.18H26.35L26.52 22.73H26.68H26.74L26.83 22.81L26.98 22.87L27.1 22.94C27.1789 22.9852 27.2527 23.0388 27.32 23.1C27.4192 23.1652 27.5099 23.2424 27.59 23.33C27.6874 23.4195 27.7776 23.5165 27.86 23.62L27.98 23.78C28.2817 24.2237 28.4674 24.736 28.52 25.27C28.525 25.3599 28.525 25.4501 28.52 25.54C28.52 26.1 28.52 26.67 28.52 27.24V28.3H27.07V28C27.07 27.78 27.08 27.56 27.08 27.35Z" fill="black"/>
<path d="M25.67 22.49H25.62H25.55H25.7H25.67ZM26.04 22.49C25.9343 22.4702 25.8258 22.4702 25.72 22.49H26.14H26.04Z" fill="black"/>
<path d="M18.96 27.17C18.96 27.45 18.96 27.73 18.96 28V28.3H17.5V28C17.5 27.76 17.5 27.51 17.5 27.27C17.53 26.7071 17.53 26.1429 17.5 25.58C17.4641 25.1585 17.3156 24.7544 17.07 24.41C16.88 24.15 16.71 24.01 16.56 24C16.41 23.99 16.2 24.11 15.95 24.36L15.02 25.31L14.3 26L14.09 25.78L13.59 25.28C13.21 24.9 12.85 24.55 12.52 24.16C12.19 23.77 12.17 23.9 11.88 24.09C11.6364 24.2244 11.4347 24.4234 11.297 24.6651C11.1594 24.9069 11.0912 25.182 11.1 25.46V28.3H9.66V28C9.66 27.7 9.66 27.4 9.66 27.1C9.66 26.43 9.66 25.74 9.66 25.1C9.70622 24.4131 9.99865 23.766 10.4836 23.2773C10.9686 22.7887 11.6135 22.4914 12.3 22.44C12.6283 22.4446 12.9427 22.5732 13.18 22.8C13.4971 23.1 13.7976 23.4171 14.08 23.75L14.3 24L14.48 23.79C14.7646 23.4401 15.0684 23.1063 15.39 22.79C15.5267 22.6718 15.6854 22.5817 15.857 22.5251C16.0287 22.4684 16.2098 22.4463 16.39 22.46C17.0816 22.5378 17.721 22.8651 18.1886 23.3805C18.6562 23.8959 18.9198 24.5642 18.93 25.26C18.99 25.91 18.97 26.55 18.96 27.17Z" fill="black"/>
<path d="M24.68 15.35V16.48H23.16V15.81C23.16 15.55 23.16 15.3 23.16 15.04C23.1697 14.9523 23.1484 14.8639 23.1 14.79C23.0342 14.7495 22.9568 14.732 22.88 14.74H15.07V16.47H13.58V14.74H6.14C5.92417 14.713 5.70583 14.713 5.49 14.74C5.44617 14.9436 5.42936 15.1521 5.44 15.36V16.45H3.93V16.15C3.93 15.99 3.93 15.84 3.93 15.69C3.93 15.35 3.93 15 3.93 14.69C3.9681 14.274 4.16938 13.8901 4.48984 13.6221C4.81029 13.3541 5.22383 13.2239 5.64 13.26H13.52V11.53H15.01V13.26H22.6C24.13 13.26 24.68 13.81 24.68 15.35Z" fill="black"/>
<path d="M18.97 10C18.97 10.3 18.97 10.6 18.97 10.92V11.22H17.5V10.15C17.5 9.60001 17.5 9.05001 17.5 8.49001C17.5284 8.17557 17.4541 7.86041 17.2882 7.59178C17.1223 7.32314 16.8738 7.11551 16.58 7.00001C16.4414 6.97544 16.2985 7.00401 16.18 7.08001C15.79 7.43001 15.43 7.82001 15.04 8.23001L14.55 8.74001L14.3 9.00001L14.09 8.78001L13.57 8.28001C13.18 7.90001 12.81 7.54001 12.47 7.15001C12.26 6.92001 12.14 6.90001 11.83 7.09001C11.5867 7.22394 11.3858 7.42317 11.2497 7.66524C11.1136 7.90732 11.0479 8.18259 11.06 8.46001V11.2H9.68V10.9C9.68 10.57 9.68 10.24 9.68 9.90001C9.64677 9.1464 9.66348 8.39142 9.73 7.64002C9.86094 7.02121 10.1947 6.46382 10.6784 6.05623C11.1621 5.64864 11.768 5.41417 12.4 5.39001C12.7038 5.40342 12.992 5.52798 13.21 5.74001C13.51 6.03001 13.78 6.34001 14.1 6.69001L14.3 6.90001L14.48 6.69001C14.7596 6.364 15.0602 6.05667 15.38 5.77001C15.6828 5.52182 16.0697 5.40003 16.46 5.43001C17.109 5.50233 17.7126 5.79842 18.167 6.26742C18.6214 6.73642 18.8982 7.34904 18.95 8.00001C18.98 8.67001 18.98 9.31001 18.97 10Z" fill="black"/>
<path d="M15 9.56H13.6V10.97H15V9.56Z" fill="black"/>
<path d="M14.98 26.61H13.62V28.07H14.98V26.61Z" fill="black"/>
<path d="M5.39 26.62V28.05L3.95 28.11V26.62H5.39Z" fill="black"/>
<path d="M24.63 26.6H23.21V28.06H24.63V26.6Z" fill="black"/>
<path d="M14.3 2.00699e-05C13.6066 -0.00541138 12.939 0.26215 12.4413 0.744898C11.9436 1.22765 11.6557 1.88682 11.64 2.58002C11.64 3.28284 11.9192 3.95688 12.4162 4.45385C12.9131 4.95082 13.5872 5.23002 14.29 5.23002C14.9928 5.23002 15.6669 4.95082 16.1638 4.45385C16.6608 3.95688 16.94 3.28284 16.94 2.58002C16.9218 1.89113 16.636 1.23642 16.1431 0.754758C15.6502 0.2731 14.9891 0.00238022 14.3 2.00699e-05ZM15.7 2.69002C15.6915 2.87518 15.6465 3.05685 15.5678 3.22466C15.489 3.39246 15.378 3.54311 15.2411 3.668C15.1041 3.7929 14.9439 3.88959 14.7695 3.95256C14.5952 4.01554 14.4102 4.04356 14.225 4.03502C14.0398 4.02648 13.8582 3.98156 13.6904 3.90282C13.5226 3.82407 13.3719 3.71305 13.247 3.57608C13.1221 3.43911 13.0254 3.27889 12.9625 3.10455C12.8995 2.93022 12.8715 2.74518 12.88 2.56002C12.8885 2.37486 12.9335 2.19319 13.0122 2.02538C13.0909 1.85758 13.202 1.70693 13.3389 1.58204C13.4759 1.45714 13.6361 1.36045 13.8105 1.29748C13.9848 1.2345 14.1698 1.20648 14.355 1.21502C14.5402 1.22356 14.7218 1.26848 14.8896 1.34722C15.0574 1.42597 15.2081 1.53699 15.333 1.67396C15.4579 1.81093 15.5546 1.97115 15.6175 2.14549C15.6805 2.31982 15.7085 2.50486 15.7 2.69002Z" fill="black"/>
<path d="M23.95 17.06C23.2584 17.0572 22.5933 17.326 22.0977 17.8084C21.6021 18.2909 21.3157 18.9486 21.3 19.64C21.3 20.3428 21.5792 21.0169 22.0762 21.5139C22.5731 22.0108 23.2472 22.29 23.95 22.29C24.6528 22.29 25.3269 22.0108 25.8238 21.5139C26.3208 21.0169 26.6 20.3428 26.6 19.64C26.5818 18.9494 26.2945 18.2932 25.7995 17.8113C25.3045 17.3293 24.6409 17.0598 23.95 17.06ZM25.35 19.75C25.3352 19.9802 25.2641 20.2031 25.143 20.3994C25.022 20.5957 24.8546 20.7593 24.6556 20.8759C24.4566 20.9925 24.2321 21.0584 24.0017 21.068C23.7713 21.0777 23.542 21.0306 23.334 20.931C23.126 20.8314 22.9456 20.6823 22.8086 20.4968C22.6716 20.3113 22.5822 20.095 22.5483 19.8669C22.5143 19.6388 22.5369 19.4058 22.6139 19.1884C22.6909 18.9711 22.82 18.7759 22.99 18.62C23.1243 18.4964 23.2819 18.4009 23.4537 18.3391C23.6254 18.2773 23.8077 18.2504 23.99 18.26C24.1787 18.2636 24.3648 18.3056 24.5367 18.3834C24.7087 18.4612 24.863 18.5733 24.9903 18.7127C25.1175 18.8521 25.215 19.016 25.2769 19.1943C25.3387 19.3727 25.3636 19.5617 25.35 19.75Z" fill="black"/>
<path d="M14.3 17.06C13.6066 17.0546 12.939 17.3221 12.4413 17.8049C11.9436 18.2876 11.6557 18.9468 11.64 19.64C11.64 20.3428 11.9192 21.0169 12.4162 21.5139C12.9131 22.0108 13.5872 22.29 14.29 22.29C14.9928 22.29 15.6669 22.0108 16.1638 21.5139C16.6608 21.0169 16.94 20.3428 16.94 19.64C16.9218 18.9511 16.636 18.2964 16.1431 17.8148C15.6502 17.3331 14.9891 17.0624 14.3 17.06ZM15.7 19.75C15.6852 19.9802 15.6141 20.2031 15.493 20.3994C15.372 20.5957 15.2046 20.7593 15.0056 20.8759C14.8066 20.9925 14.5821 21.0584 14.3517 21.068C14.1213 21.0777 13.892 21.0306 13.684 20.931C13.476 20.8314 13.2956 20.6823 13.1586 20.4968C13.0216 20.3113 12.9322 20.095 12.8983 19.8669C12.8643 19.6388 12.8868 19.4058 12.9639 19.1884C13.0409 18.971 13.17 18.7759 13.34 18.62C13.4743 18.4964 13.6319 18.4009 13.8037 18.3391C13.9754 18.2773 14.1577 18.2504 14.34 18.26C14.5296 18.2623 14.7167 18.3032 14.8898 18.3805C15.063 18.4577 15.2185 18.5695 15.3468 18.7091C15.4751 18.8487 15.5736 19.013 15.636 19.192C15.6985 19.371 15.7237 19.5609 15.71 19.75H15.7Z" fill="black"/>
<path d="M4.67 17.06C3.97665 17.0546 3.30899 17.3221 2.81127 17.8049C2.31356 18.2876 2.02574 18.9468 2.01 19.64C2.00983 20.3458 2.28604 21.0236 2.77948 21.5283C3.27293 22.033 3.94437 22.3243 4.65 22.34C5.35313 22.3245 6.02268 22.0362 6.51718 21.5361C7.01167 21.036 7.29239 20.3633 7.3 19.66C7.28699 18.9693 7.00479 18.3111 6.51353 17.8254C6.02226 17.3397 5.36078 17.0651 4.67 17.06ZM6.07 19.75C6.05516 19.9802 5.98409 20.2031 5.86303 20.3994C5.74197 20.5957 5.57461 20.7593 5.37563 20.8759C5.17664 20.9925 4.9521 21.0584 4.72168 21.068C4.49126 21.0777 4.262 21.0306 4.054 20.931C3.846 20.8314 3.6656 20.6823 3.52862 20.4968C3.39163 20.3113 3.30225 20.095 3.26829 19.8669C3.23434 19.6388 3.25685 19.4058 3.33386 19.1884C3.41087 18.971 3.54002 18.7759 3.71 18.62C3.8443 18.4964 4.00194 18.4009 4.17367 18.3391C4.34539 18.2773 4.52774 18.2504 4.71 18.26C4.89873 18.2636 5.08475 18.3056 5.25672 18.3834C5.42869 18.4612 5.58301 18.5733 5.71027 18.7127C5.83752 18.8521 5.93505 19.016 5.99689 19.1943C6.05874 19.3727 6.08362 19.5617 6.07 19.75Z" fill="black"/>
</g>
<defs>
<clipPath id="clip0_612_2821">
<rect width="28.65" height="28.3" fill="white"/>
</clipPath>
</defs>
</svg>
