<svg width="31" height="24" viewBox="0 0 31 24" fill="none" xmlns="http://www.w3.org/2000/svg">
<g clip-path="url(#clip0_612_1127)">
<path d="M3.99 18.56H2.78V6.74997L0.89 7.81997L0 6.24997L0.47 5.97997L10.88 0.0699701C10.9587 0.0233288 11.0485 -0.00128174 11.14 -0.00128174C11.2315 -0.00128174 11.3213 0.0233288 11.4 0.0699701L22.01 6.06997L22.28 6.22997L21.39 7.78997L20.22 7.12997V7.42997C20.22 9.19997 20.22 10.97 20.22 12.74C20.22 12.92 20.22 12.98 20 12.97C19.67 12.97 19.35 12.97 19 12.97V12.73C19 10.73 19 8.67997 19 6.65997C19.0056 6.59348 18.9904 6.52689 18.9563 6.46951C18.9222 6.41213 18.8711 6.36684 18.81 6.33997L11.29 2.08997C11.2452 2.05669 11.1908 2.03872 11.135 2.03872C11.0792 2.03872 11.0248 2.05669 10.98 2.08997L4.12 5.96997C4.06966 5.99802 4.02919 6.04093 4.00414 6.09283C3.97908 6.14473 3.97065 6.2031 3.98 6.25997V18.56H3.99Z" fill="black"/>
<path d="M29.6 18.84H30.24V22.39H28.84C28.7668 22.3824 28.6931 22.3988 28.63 22.4367C28.5669 22.4745 28.5177 22.5319 28.49 22.6C28.2883 22.9478 28.0004 23.2378 27.654 23.442C27.3076 23.6462 26.9145 23.7577 26.5125 23.7657C26.1105 23.7738 25.7132 23.6781 25.359 23.4879C25.0047 23.2977 24.7054 23.0195 24.49 22.68C24.4429 22.5825 24.3665 22.5021 24.2714 22.4502C24.1764 22.3982 24.0675 22.3771 23.96 22.39H14.48C14.4031 22.3835 14.3261 22.4012 14.2597 22.4407C14.1934 22.4801 14.141 22.5393 14.11 22.61C13.9126 22.9822 13.6151 23.2917 13.2511 23.5037C12.8871 23.7158 12.4711 23.8219 12.05 23.81C11.6352 23.8113 11.2283 23.6968 10.875 23.4796C10.5217 23.2623 10.236 22.9508 10.05 22.58C10.0244 22.518 9.97939 22.4659 9.92169 22.4317C9.86398 22.3974 9.79672 22.3828 9.73 22.39H8.33V18.9H21.17V11.9H21.41H25.98C26.0479 11.8972 26.1154 11.9112 26.1765 11.9409C26.2375 11.9705 26.2903 12.0149 26.33 12.07C27.3567 13.3234 28.39 14.5667 29.43 15.8C29.5443 15.9294 29.6051 16.0975 29.6 16.27C29.6 17.07 29.6 17.87 29.6 18.67V18.84ZM22.26 12.9V18.84H28.5V17.33H23.12V13.62H26.33C26.14 13.39 25.99 13.2 25.82 13.02C25.7823 12.9786 25.7358 12.9463 25.6838 12.9255C25.6318 12.9048 25.5758 12.896 25.52 12.9C25.04 12.9 24.57 12.9 24.09 12.9H22.26ZM24.67 19.9H13.85C14.1752 20.2841 14.3742 20.7589 14.42 21.26H24.12C24.1576 20.7606 24.3498 20.2852 24.67 19.9ZM23.77 14.32V16.57H28.49C28.5163 16.4915 28.5209 16.4072 28.5033 16.3263C28.4857 16.2453 28.4466 16.1706 28.39 16.11C27.93 15.57 27.48 15.01 27.01 14.47C26.9324 14.384 26.8253 14.3305 26.71 14.32C25.97 14.32 25.23 14.32 24.49 14.32H23.77ZM26.46 20.53C26.282 20.5281 26.1074 20.5789 25.9584 20.6762C25.8093 20.7734 25.6924 20.9127 25.6224 21.0764C25.5525 21.24 25.5327 21.4208 25.5655 21.5957C25.5982 21.7707 25.6822 21.932 25.8066 22.0593C25.9311 22.1865 26.0905 22.274 26.2647 22.3107C26.4388 22.3473 26.62 22.3315 26.7852 22.2652C26.9504 22.199 27.0922 22.0852 27.1928 21.9383C27.2933 21.7914 27.348 21.618 27.35 21.44C27.3448 21.2075 27.2487 20.9862 27.0824 20.8236C26.916 20.661 26.6926 20.57 26.46 20.57V20.53ZM12.12 20.57C12.0015 20.5674 11.8836 20.5884 11.7733 20.6319C11.663 20.6755 11.5625 20.7406 11.4777 20.8235C11.3929 20.9064 11.3256 21.0054 11.2796 21.1148C11.2336 21.2241 11.21 21.3414 11.21 21.46C11.2087 21.5791 11.231 21.6972 11.2756 21.8075C11.3203 21.9179 11.3863 22.0183 11.47 22.1029C11.5537 22.1875 11.6534 22.2547 11.7633 22.3006C11.8731 22.3464 11.991 22.37 12.11 22.37C12.3487 22.37 12.5776 22.2752 12.7464 22.1064C12.9152 21.9376 13.01 21.7087 13.01 21.47C13.01 21.2313 12.9152 21.0024 12.7464 20.8336C12.5776 20.6648 12.3487 20.57 12.11 20.57H12.12ZM28.21 19.9C28.5125 20.2584 28.7067 20.6954 28.77 21.16C28.7786 21.1884 28.794 21.2141 28.815 21.2351C28.8359 21.256 28.8617 21.2714 28.89 21.28C29.14 21.33 29.18 21.28 29.18 21.03C29.18 20.78 29.18 20.64 29.18 20.44V19.9H28.21ZM9.74 21.3C9.77684 20.7865 9.97255 20.2973 10.3 19.9H9.41V21.3H9.74Z" fill="black"/>
<path d="M13.91 7.90002H17.6V10.61H13.91V7.90002Z" fill="black"/>
<path d="M13.35 10.61H9.66V7.90002H13.35V10.61Z" fill="black"/>
<path d="M13.35 11.03V13.74H9.67V11.03H13.35Z" fill="black"/>
<path d="M13.91 13.73V11.02H17.59V13.73H13.91Z" fill="black"/>
<path d="M9.19 10.61H5.51V7.90002H9.19V10.61ZM6.12 10H8.58V8.50002H6.12V10Z" fill="black"/>
<path d="M9.19 16.81H5.51V14.09H9.19V16.81ZM6.12 16.19H8.57V14.69H6.12V16.19Z" fill="black"/>
<path d="M9.19 13.74H5.51V11.02H9.19V13.74ZM6.12 13.13H8.58V11.62H6.12V13.13Z" fill="black"/>
</g>
<defs>
<clipPath id="clip0_612_1127">
<rect width="30.25" height="23.79" fill="white"/>
</clipPath>
</defs>
</svg>
