<svg width="75" height="75" viewBox="0 0 75 75" fill="none" xmlns="http://www.w3.org/2000/svg">
<circle cx="37.5" cy="37.5" r="37.5" fill="#BF83FF"/>
<path d="M33.75 39.375C40.9987 39.375 46.875 43.5723 46.875 48.75V50.5C46.875 51.6046 45.9796 52.5 44.875 52.5H22.625C21.5204 52.5 20.625 51.6046 20.625 50.5V48.75C20.625 43.5723 26.5013 39.375 33.75 39.375ZM33.75 22.5C37.8921 22.5 41.25 25.8579 41.25 30C41.25 34.1421 37.8921 37.5 33.75 37.5C29.6079 37.5 26.25 34.1421 26.25 30C26.25 25.8579 29.6079 22.5 33.75 22.5ZM48.75 26.25C49.7855 26.25 50.625 27.0895 50.625 28.125V30H52.5C53.5355 30 54.375 30.8395 54.375 31.875C54.375 32.9105 53.5355 33.75 52.5 33.75H50.625V35.625C50.625 36.6605 49.7855 37.5 48.75 37.5C47.7145 37.5 46.875 36.6605 46.875 35.625V33.75H45C43.9645 33.75 43.125 32.9105 43.125 31.875C43.125 30.8395 43.9645 30 45 30H46.875V28.125C46.875 27.0895 47.7145 26.25 48.75 26.25Z" fill="white"/>
</svg>
