<svg width="75" height="75" viewBox="0 0 75 75" fill="none" xmlns="http://www.w3.org/2000/svg">
<circle cx="37.5" cy="37.5" r="37.5" fill="#3CD856"/>
<path fill-rule="evenodd" clip-rule="evenodd" d="M46.174 24.8725L39.9868 25.7564C39.0416 25.8914 38.2693 26.342 37.7178 26.9646L23.2814 41.4011C21.8169 42.8655 21.8169 45.2398 23.2814 46.7044L28.5847 52.0077C30.0492 53.4722 32.4235 53.4721 33.888 52.0077L48.3244 37.5712C48.9471 37.0198 49.3977 36.2475 49.5327 35.3022L50.4166 29.1151C50.7702 26.6403 48.6488 24.5188 46.174 24.8725ZM41.8429 33.4461C42.5751 34.1783 43.7624 34.1784 44.4946 33.4461C45.2268 32.7139 45.2268 31.5266 44.4946 30.7945C43.7624 30.0623 42.5752 30.0622 41.8429 30.7945C41.1107 31.5267 41.1108 32.7139 41.8429 33.4461Z" fill="white"/>
</svg>
