<svg width="75" height="75" viewBox="0 0 75 75" fill="none" xmlns="http://www.w3.org/2000/svg">
<circle cx="37.5" cy="37.5" r="37.5" fill="#FF947A"/>
<path d="M55.996 43.1116C55.2282 42.0853 54.1304 41.3557 52.8878 41.0458C51.6453 40.736 50.334 40.8648 49.1753 41.4107C48.4059 41.814 47.6602 42.2612 46.9419 42.75L44.548 44.3303C44.1844 43.8542 43.7037 43.4805 43.1529 43.2458C42.6021 43.011 42 42.9233 41.4052 42.991C40.6161 42.991 39.8137 42.991 39.0247 42.991C38.6737 43.0174 38.3211 42.9676 37.9911 42.8451C37.661 42.7226 37.3613 42.5303 37.1122 42.2812C36.2229 41.4673 35.1511 40.8793 33.9874 40.567C32.8236 40.2547 31.602 40.2271 30.4253 40.4866C28.8994 40.8023 27.5023 41.5671 26.4132 42.683C26.308 42.7871 26.1824 42.8682 26.0442 42.9212C25.9061 42.9743 25.7585 42.998 25.6108 42.991C23.7251 42.991 21.8394 42.991 19.9671 42.991C19.8059 42.9764 19.6435 42.9976 19.4916 43.0532C19.3396 43.1087 19.2018 43.1973 19.088 43.3125C18.9742 43.4277 18.8873 43.5667 18.8335 43.7195C18.7797 43.8724 18.7604 44.0352 18.7768 44.1964V52.7812C18.7582 52.9434 18.776 53.1078 18.8288 53.2623C18.8817 53.4168 18.9683 53.5575 19.0823 53.6743C19.1963 53.791 19.3349 53.8808 19.4879 53.9372C19.641 53.9935 19.8047 54.015 19.9671 54H24.1263C25.4294 53.9736 26.7322 54.0678 28.0181 54.2812C31.6691 54.9509 35.3335 55.6205 38.9845 56.1696C39.2966 56.2441 39.6213 56.2492 39.9355 56.1844C40.2498 56.1196 40.546 55.9865 40.8034 55.7946C45.6982 52.1517 50.6331 48.5491 55.5145 44.9196C55.7753 44.704 56.0129 44.4616 56.2233 44.1964V43.6071C56.2233 43.4062 56.0896 43.2455 55.996 43.1116ZM49.6434 46.5133L39.7602 53.7857C39.6628 53.8713 39.5468 53.9328 39.4214 53.9654C39.296 53.9979 39.1647 54.0006 39.038 53.9732L31.1475 52.6339L26.6941 51.8705H20.9701V45.2276H21.3446C22.9628 45.2276 24.5944 45.2276 26.2126 45.2276C26.6764 45.2403 27.1271 45.0722 27.4697 44.7589C28.1804 44.0146 29.0242 43.4104 29.9573 42.9776C30.835 42.6233 31.7897 42.5036 32.7276 42.6304C33.6655 42.7572 34.5543 43.1261 35.3068 43.7008C35.6545 43.9553 35.9621 44.25 36.2964 44.5178C36.8519 44.9701 37.5464 45.2162 38.2624 45.2142H41.7797C41.962 45.1993 42.1451 45.2304 42.3124 45.3044C42.4797 45.3785 42.6258 45.4934 42.7375 45.6385C42.8491 45.7835 42.9228 45.9543 42.9517 46.1352C42.9806 46.3161 42.9639 46.5013 42.903 46.6741C42.8131 46.9108 42.6478 47.1113 42.4326 47.2445C42.2175 47.3776 41.9645 47.436 41.7128 47.4107H35.6411C34.8119 47.4107 33.9828 47.4107 33.1536 47.4107C32.8627 47.4107 32.5838 47.5264 32.3781 47.7323C32.1725 47.9383 32.0569 48.2176 32.0569 48.5089C32.0569 48.8001 32.1725 49.0795 32.3781 49.2854C32.5838 49.4914 32.8627 49.6071 33.1536 49.6071H41.9134C42.6807 49.6108 43.4249 49.3446 44.0163 48.8552C44.6078 48.3657 45.0089 47.6838 45.1498 46.9285C45.1968 46.7457 45.3055 46.5848 45.4574 46.4732C46.7948 45.5491 48.1322 44.6517 49.5766 43.7946C50.114 43.4063 50.7548 43.1875 51.4171 43.166C52.0794 43.1445 52.7331 43.3214 53.2945 43.6741L53.4683 43.7946L49.6434 46.5133Z" fill="white"/>
<path d="M37.4998 18.7499C35.5366 18.7393 33.6144 19.3121 31.9764 20.3959C30.3384 21.4796 29.0582 23.0255 28.2977 24.838C27.5373 26.6506 27.3308 28.6483 27.7044 30.5783C28.078 32.5084 29.0149 34.2842 30.3965 35.6809C31.7781 37.0776 33.5424 38.0326 35.4661 38.4249C37.3899 38.8172 39.3866 38.6293 41.2036 37.8849C43.0207 37.1405 44.5764 35.8731 45.674 34.2431C46.7716 32.613 47.3617 30.6936 47.3696 28.7276C47.3803 26.0943 46.3469 23.5644 44.4963 21.6936C42.6457 19.8228 40.1293 18.7641 37.4998 18.7499ZM37.4998 36.6026C35.9419 36.6026 34.4189 36.1399 33.1235 35.2732C31.8281 34.4064 30.8185 33.1744 30.2223 31.733C29.6261 30.2915 29.4701 28.7055 29.774 27.1753C30.078 25.6451 30.8282 24.2395 31.9298 23.1363C33.0315 22.0331 34.435 21.2818 35.9631 20.9774C37.4911 20.673 39.0749 20.8292 40.5143 21.4263C41.9536 22.0233 43.1839 23.0344 44.0494 24.3316C44.915 25.6289 45.377 27.154 45.377 28.7142C45.377 30.8063 44.547 32.8128 43.0698 34.2921C41.5925 35.7715 39.589 36.6026 37.4998 36.6026Z" fill="white"/>
<path d="M41.1642 23.1429C41.2396 23.3132 41.2891 23.4937 41.3113 23.6786C41.3113 24.6429 41.405 24.5492 40.442 24.5492H39.1047C39.2518 24.951 39.3989 25.3394 39.5594 25.7144C39.5594 25.7144 39.7065 25.7947 39.7867 25.7947H40.9369C41.2445 25.7947 41.298 25.7947 41.298 26.1563V26.8527C41.298 27.0938 41.2043 27.2144 40.9502 27.2144H39.6129C39.4558 28.0242 39.029 28.7566 38.4022 29.2918C37.7754 29.8271 36.9857 30.1335 36.1624 30.1608C36.47 30.4956 36.7643 30.817 37.0451 31.1519L40.0141 34.6608C40.0555 34.6905 40.0892 34.7298 40.1125 34.7752C40.1358 34.8206 40.1479 34.8709 40.1479 34.9219C40.1479 34.973 40.1358 35.0233 40.1125 35.0687C40.0892 35.1141 40.0555 35.1533 40.0141 35.1831H38.1418L37.9412 34.9688C36.7643 33.6295 35.6141 32.2902 34.4239 30.951C33.7017 30.134 33.6883 30.1608 33.7017 29.0894C33.7017 28.8081 33.7953 28.7144 34.0628 28.7144H35.1059C35.7125 28.7223 36.3109 28.5747 36.8445 28.2858C37.0356 28.1789 37.2022 28.0332 37.3335 27.8578C37.4648 27.6825 37.5579 27.4815 37.6068 27.2679H34.0628C33.7418 27.2679 33.6749 27.201 33.6749 26.8795V26.2233C33.6749 25.8349 33.6749 25.7947 34.1029 25.7947H37.4998C37.4998 25.7947 37.4998 25.7947 37.4998 25.7144C37.5067 25.6835 37.5067 25.6515 37.4998 25.6206C37.3098 25.3884 37.0711 25.2009 36.8007 25.0713C36.5304 24.9417 36.2348 24.8732 35.9351 24.8706C35.36 24.8706 34.7849 24.8706 34.2099 24.8706C33.8889 24.8706 33.822 24.8706 33.822 24.4956C33.822 24.1206 33.822 23.8661 33.822 23.5581C33.8476 23.4293 33.8976 23.3066 33.9691 23.1965L41.1642 23.1429Z" fill="white"/>
</svg>
