<svg width="75" height="75" viewBox="0 0 75 75" fill="none" xmlns="http://www.w3.org/2000/svg">
<circle cx="37.5" cy="37.5" r="37.5" fill="#FA5A7D"/>
<path fill-rule="evenodd" clip-rule="evenodd" d="M22.5 26.25C22.5 22.1079 25.8579 18.75 30 18.75H41.25V26.25C41.25 30.3921 44.6079 33.75 48.75 33.75H52.5V48.75C52.5 52.8921 49.1421 56.25 45 56.25H30C25.8579 56.25 22.5 52.8921 22.5 48.75V26.25ZM30 35.625C28.9645 35.625 28.125 36.4645 28.125 37.5C28.125 38.5355 28.9645 39.375 30 39.375H33.75C34.7855 39.375 35.625 38.5355 35.625 37.5C35.625 36.4645 34.7855 35.625 33.75 35.625H30ZM30 43.125C28.9645 43.125 28.125 43.9645 28.125 45C28.125 46.0355 28.9645 46.875 30 46.875H37.5C38.5355 46.875 39.375 46.0355 39.375 45C39.375 43.9645 38.5355 43.125 37.5 43.125H30ZM46.2784 22.8727L46.0329 26.5554C45.9574 27.6873 46.8965 28.6264 48.0284 28.551L51.7111 28.3055C53.3184 28.1983 54.0513 26.2479 52.9122 25.1088L49.475 21.6716C48.3359 20.5325 46.3855 21.2654 46.2784 22.8727Z" fill="white"/>
</svg>
