<svg width="39" height="39" viewBox="0 0 39 39" fill="none" xmlns="http://www.w3.org/2000/svg">
<path d="M10.1676 13.4225V11.8322C10.1676 6.56234 14.4397 2.29028 19.7095 2.29028C24.9794 2.29028 29.2515 6.56234 29.2515 11.8322V13.4225H32.4321C33.3104 13.4225 34.0224 14.1345 34.0224 15.0128V34.0966C34.0224 34.975 33.3104 35.687 32.4321 35.687H6.987C6.1087 35.687 5.39668 34.975 5.39668 34.0966V15.0128C5.39668 14.1345 6.1087 13.4225 6.987 13.4225H10.1676ZM30.8418 16.6031H8.57732V32.5063H30.8418V16.6031ZM18.1192 25.7195C17.1685 25.1696 16.5289 24.1417 16.5289 22.9644C16.5289 21.2078 17.9529 19.7838 19.7095 19.7838C21.4662 19.7838 22.8902 21.2078 22.8902 22.9644C22.8902 24.1417 22.2506 25.1696 21.2999 25.7195V29.3257H18.1192V25.7195ZM13.3483 13.4225H26.0708V11.8322C26.0708 8.31896 23.2227 5.47092 19.7095 5.47092C16.1963 5.47092 13.3483 8.31896 13.3483 11.8322V13.4225Z" fill="#1C1C1C"/>
</svg>
