<svg width="39" height="39" viewBox="0 0 39 39" fill="none" xmlns="http://www.w3.org/2000/svg">
<path d="M32.4321 34.987H29.2515V31.8064C29.2515 29.1714 27.1155 27.0354 24.4805 27.0354H14.9386C12.3037 27.0354 10.1676 29.1714 10.1676 31.8064V34.987H6.987V31.8064C6.987 27.4149 10.5471 23.8548 14.9386 23.8548H24.4805C28.872 23.8548 32.4321 27.4149 32.4321 31.8064V34.987ZM19.7095 20.6742C14.4397 20.6742 10.1676 16.4021 10.1676 11.1322C10.1676 5.86239 14.4397 1.59033 19.7095 1.59033C24.9794 1.59033 29.2515 5.86239 29.2515 11.1322C29.2515 16.4021 24.9794 20.6742 19.7095 20.6742ZM19.7095 17.4935C23.2227 17.4935 26.0708 14.6455 26.0708 11.1322C26.0708 7.61901 23.2227 4.77097 19.7095 4.77097C16.1963 4.77097 13.3483 7.61901 13.3483 11.1322C13.3483 14.6455 16.1963 17.4935 19.7095 17.4935Z" fill="#1C1C1C"/>
</svg>
