<svg width="48" height="34" viewBox="0 0 48 34" fill="none" xmlns="http://www.w3.org/2000/svg">
<rect width="48" height="34" fill="#FDF3EA"/>
<path d="M17.3145 17.4198C18.641 17.4198 19.6756 17.9515 20.4185 19.0149C21.2143 20.0223 21.6123 21.2815 21.6123 22.7927C21.6123 24.4158 21.0817 25.7589 20.0205 26.8223C18.9593 27.8296 17.6329 28.3334 16.0411 28.3334C14.2371 28.3334 12.7515 27.6339 11.5842 26.2346C10.4169 24.8355 9.83325 23.0165 9.83325 20.7779C9.83325 17.6437 10.7883 14.7894 12.6984 12.2149C14.6085 9.64041 17.4472 7.4577 21.2143 5.66675V7.76551C18.9859 8.82889 17.0758 10.2281 15.484 11.963C13.8922 13.6421 13.0964 15.321 13.0964 17.0001C13.0964 18.1194 13.3882 18.6791 13.9718 18.6791C14.0779 18.6791 14.2106 18.6511 14.3698 18.5951C14.5289 18.4832 14.6881 18.3993 14.8473 18.3432C15.6432 17.7277 16.4656 17.4198 17.3145 17.4198ZM33.8688 17.4198C35.1953 17.4198 36.23 17.9515 36.9728 19.0149C37.7686 20.0223 38.1666 21.2815 38.1666 22.7927C38.1666 24.4158 37.636 25.7589 36.5748 26.8223C35.5136 27.8296 34.1872 28.3334 32.5954 28.3334C30.7914 28.3334 29.3058 27.6339 28.1384 26.2346C26.9712 24.8355 26.3876 23.0165 26.3876 20.7779C26.3876 17.6437 27.3427 14.7894 29.2528 12.2149C31.1629 9.64041 34.0014 7.4577 37.7686 5.66675V7.76551C35.5402 8.82889 33.6301 10.2281 32.0384 11.963C30.4466 13.6421 29.6507 15.321 29.6507 17.0001C29.6507 18.1194 29.9426 18.6791 30.5261 18.6791C30.6322 18.6791 30.7649 18.6511 30.924 18.5951C31.0833 18.4832 31.2425 18.3993 31.4016 18.3432C32.1975 17.7277 33.0198 17.4198 33.8688 17.4198Z" fill="#FF6D2C"/>
</svg>
